<?xml version="1.0" encoding="utf-8"?>
<!-- Generator: Adobe Illustrator 24.0.1, SVG Export Plug-In . SVG Version: 6.00 Build 0)  -->
<svg version="1.1"
	 id="Layer_1" xmlns:cc="http://creativecommons.org/ns#" xmlns:dc="http://purl.org/dc/elements/1.1/" xmlns:inkscape="http://www.inkscape.org/namespaces/inkscape" xmlns:rdf="http://www.w3.org/1999/02/22-rdf-syntax-ns#" xmlns:sodipodi="http://sodipodi.sourceforge.net/DTD/sodipodi-0.dtd" xmlns:svg="http://www.w3.org/2000/svg"
	 xmlns="http://www.w3.org/2000/svg" xmlns:xlink="http://www.w3.org/1999/xlink" x="0px" y="0px" viewBox="0 0 26.5 33.1"
	 style="enable-background:new 0 0 26.5 33.1;" xml:space="preserve" fill='#f7bd4c'>
<g transform="translate(131.02975,-196.70833)">
	<path d="M-118,200c-4.4,0-7.9,3.7-7.9,7.8c0,3.1,0.8,4.6,2.3,6.5c1,1.3,2.4,2.7,3.9,4.9c0,0,0,0,0,0c0.4,0.5,0.8,1.1,1.2,1.8
		c0.2,0.3,0.3,0.6,0.5,0.9c0.2-0.3,0.4-0.6,0.5-0.9c0.4-0.6,0.8-1.2,1.2-1.8c0,0,0,0,0,0c1.5-2.2,2.9-3.6,3.9-4.9
		c1.4-1.8,2.3-3.3,2.3-6.5C-110.1,203.7-113.6,200-118,200L-118,200z M-118,201.7c3.4,0,6.1,2.7,6.1,6.1s-2.7,6.1-6.1,6.1
		c-3.4,0-6.1-2.7-6.1-6.1S-121.4,201.7-118,201.7z M-124.4,219.7l-4.5,5.5l5.3-1.6l1.2-1.9c0.1-0.1,0.2-0.2,0.4-0.1l3.8,2.1l2.4-2.1
		c0.1-0.1,0.2-0.1,0.3,0l1.9,1.2l0.3-2c0-0.1,0-0.1,0.1-0.2l0.9-0.9h-3.7c-0.5,0.7-1,1.4-1.5,2.2c-0.1,0.1-0.1,0.2-0.2,0.3
		c0,0,0,0,0,0.1c-0.1,0.1-0.1,0.2-0.2,0.3l-0.2,0.4l-0.2-0.4c-0.1-0.1-0.1-0.2-0.2-0.3c0,0,0,0,0,0c0-0.1-0.1-0.2-0.1-0.2
		c-0.5-0.8-1-1.6-1.4-2.3L-124.4,219.7z M-111.5,219.8l-1.1,1.1l-0.3,2.4c0,0.2-0.2,0.3-0.3,0.2c0,0-0.1,0-0.1,0l-2.1-1.3l-2.4,2.1
		c-0.1,0.1-0.2,0.1-0.3,0l-3.8-2.1l-1.1,1.8c0,0.1-0.1,0.1-0.2,0.1l-4.5,1.3h20.7L-111.5,219.8z"/>
</g>
</svg>
