<?xml version="1.0" encoding="utf-8"?>
<!-- Generator: Adobe Illustrator 24.0.1, SVG Export Plug-In . SVG Version: 6.00 Build 0)  -->
<svg version="1.1" xmlns="http://www.w3.org/2000/svg" xmlns:xlink="http://www.w3.org/1999/xlink" x="0px" y="0px"
	 viewBox="0 0 100 125" style="enable-background:new 0 0 100 125;" xml:space="preserve" fill="#f7bd4c">
<g id="Layer_2">
</g>
<g id="Layer_1">
	<g>
		<path d="M86.5,88l-17.8-9.2c-2.5-1.3-5.6-0.6-7.3,1.6l-6.5,8.4c-6.4-3.4-11.2-6.7-16.8-12.3c-6-6-9.2-10.9-12.4-17.1l8.3-6.5
			c2.2-1.7,2.9-4.8,1.6-7.3l-9.2-17.7c-1.6-3.1-5.6-4.1-8.5-2.2L6.6,33.3c-2.6,1.8-4.1,4.8-3.9,7.9c0.2,3.2,0.6,7.3,1.4,10.1
			C7.4,64,15.3,77.1,26.5,88.2c11.1,11.1,24.2,19,36.9,22.4c2.8,0.7,6.9,1.1,10.2,1.4c3.2,0.2,6.3-1.3,8-4L89,96.5
			C90.6,93.5,89.5,89.6,86.5,88z"/>
		<path d="M50.5,54.2c2.2,0.6,4.4,1.8,6.1,3.6c1.8,1.8,3,3.9,3.6,6.1c0.5,1.8,2.2,3,4.1,2.9h0.4c2.6-0.1,4.5-2.6,3.8-5.1
			c-1-3.6-2.9-7.1-5.8-9.9c-2.9-2.9-6.3-4.8-9.9-5.8c-2.5-0.7-5,1.2-5.1,3.8v0.4C47.5,52,48.7,53.7,50.5,54.2z"/>
		<path d="M51.7,39.8c5.5,1,10.8,3.6,15,7.8c4.3,4.3,6.9,9.5,7.8,15c0.4,2,2.2,3.5,4.3,3.4h0.3c2.5-0.1,4.3-2.4,3.8-4.8
			c-1.3-7.2-4.7-14.1-10.2-19.7c-5.6-5.6-12.4-9-19.7-10.2c-2.4-0.4-4.7,1.4-4.8,3.8v0.3C48.2,37.6,49.7,39.4,51.7,39.8z"/>
		<path d="M97.5,60.6C96,49.9,91.2,39.6,83,31.4s-18.5-13-29.2-14.5c-2.4-0.3-4.6,1.4-4.7,3.9v0.4c-0.1,2.2,1.5,4,3.6,4.3
			c8.9,1.2,17.4,5.3,24.2,12.1S87.7,53,89,61.8c0.3,2.1,2.1,3.7,4.3,3.6h0.4C96,65.2,97.8,63,97.5,60.6z"/>
	</g>
</g>
</svg>
