<svg id="Layer_1" data-name="Layer 1" xmlns="http://www.w3.org/2000/svg" viewBox="0 0 133 147"><defs><style>.cls-1{fill:#202e53;}.cls-2{fill:#f6aa17;}</style></defs><title>1-01</title><path class="cls-1" d="M93.81,56.9h0A26.67,26.67,0,0,1,41.65,64a25.08,25.08,0,0,1-.74-3,27.06,27.06,0,0,1-.43-4.78,26.45,26.45,0,0,1,1.14-7.69h0a26.15,26.15,0,0,1,1.91-4.67,26.79,26.79,0,0,1,41.1-8.48c.9.7,1.73,1.4,2.61,2.17S89,39.17,89.8,40a37.31,37.31,0,0,0-6.86-4,32.12,32.12,0,0,0-10.83-2.3,26.43,26.43,0,0,0-16.65,5.9c-.3.22-.59.46-.87.71-.69.6-1.31,1.25-1.92,1.89l-.12.14a20.15,20.15,0,0,0,10,33.46c6.5,1.9,12.67.93,18.16-3.66a11.39,11.39,0,0,0,2.2-2.39,24,24,0,0,1-2.8,2.13c-.49.31-1,.6-1.47.86A21,21,0,0,1,55.82,70.9c-.4-.3-.39-.51-.13-.89a11,11,0,0,1,.92-1.21,14.78,14.78,0,0,1,7.09-4.5A24.61,24.61,0,0,1,70,63.45c3.17-.15,6.35-.2,9.51-.47l.36,0a20.28,20.28,0,0,0,4.4-.6,24.41,24.41,0,0,0,3-.76,11.49,11.49,0,0,0,6.57-4.7Z"/><path class="cls-2" d="M62.33,44V62.37c.49-.21,1-.39,1.53-.56A22.44,22.44,0,0,1,69.53,61l2.36-.1V39.13Zm7.86,9-6.07,3.09V54.62l6.07-3.09Zm0-4.53-6.07,3.08V50.08L70.19,47Zm0-4.28-6.07,3.08V45.8l6.07-3.08Z"/><path class="cls-1" d="M73.09,39.13V60.89c1.54-.06,3.11-.13,4.64-.26l.17,0h.21a16.78,16.78,0,0,0,3.61-.49h0l.88-.19V44Zm8.12,17.26-6.08-3.08V51.84l6.08,3.08Zm0-4.53-6.08-3.09V47.3l6.08,3.09Zm0-4.28-6.08-3.09V43l6.08,3.09Z"/><path class="cls-1" d="M105.71,101.77a.88.88,0,0,0-.42-.38,1.44,1.44,0,0,0-.65-.15.91.91,0,0,0-.58.2.62.62,0,0,0-.24.52.73.73,0,0,0,.18.52,1,1,0,0,0,.44.26,6,6,0,0,1,.58.17c.21.07.4.14.58.22a1,1,0,0,1,.44.38,1.15,1.15,0,0,1,.18.65,1.46,1.46,0,0,1-.14.66,1.06,1.06,0,0,1-.38.43,1.85,1.85,0,0,1-1,.3,2.51,2.51,0,0,1-1-.19c-.27-.13-.41-.28-.41-.46a.35.35,0,0,1,.17-.28l.18-.09a1,1,0,0,0,.48.42,1.64,1.64,0,0,0,.72.16,1.07,1.07,0,0,0,.65-.21.69.69,0,0,0,.27-.58.66.66,0,0,0-.24-.55,1.86,1.86,0,0,0-.6-.29c-.23-.06-.47-.13-.7-.21a1.38,1.38,0,0,1-.6-.4,1.08,1.08,0,0,1-.25-.75,1.17,1.17,0,0,1,.42-1,1.64,1.64,0,0,1,1.08-.34,2.3,2.3,0,0,1,.88.16c.28.11.41.27.41.46S106,101.72,105.71,101.77Z"/><path class="cls-1" d="M107.07,105.1v-2.62a11.84,11.84,0,0,0-.09-1.6,6,6,0,0,1,1-.08q1.86,0,1.86,1.38a1.31,1.31,0,0,1-.31.92,1.39,1.39,0,0,1-.83.45s0,.09.12.26.13.28.16.33l.14.28a2.05,2.05,0,0,0,.32.48.59.59,0,0,0,.44.2l.19,0a.48.48,0,0,1,.06.21c0,.17-.17.26-.52.26a.7.7,0,0,1-.53-.28l-.22-.27a2.8,2.8,0,0,1-.23-.37c-.09-.17-.16-.29-.19-.36s-.1-.2-.19-.39a2.44,2.44,0,0,0-.16-.33c-.12,0-.19-.08-.19-.16a.63.63,0,0,1,0-.19,1.33,1.33,0,0,0,.32,0A1,1,0,0,0,109,103a1.11,1.11,0,0,0,.27-.8.85.85,0,0,0-.3-.73,1.44,1.44,0,0,0-.89-.22l-.55,0c0,.27,0,.74,0,1.42v1.4a5.7,5.7,0,0,0,.13,1.38.93.93,0,0,1-.32,0q-.21,0-.27-.09A.49.49,0,0,1,107.07,105.1Z"/><path class="cls-1" d="M37.05,99.23h0A6.47,6.47,0,0,1,26.37,104a6.4,6.4,0,0,1-2-3,4.7,4.7,0,0,1-.18-.74,6.3,6.3,0,0,1,.17-3h0A6.53,6.53,0,0,1,34.83,94c.21.17.42.34.63.53s.42.4.62.61a8.72,8.72,0,0,0-1.66-1,7.8,7.8,0,0,0-2.63-.56,6.4,6.4,0,0,0-4,1.43,1.84,1.84,0,0,0-.22.17c-.16.15-.31.31-.46.46l0,0a4.9,4.9,0,0,0-.05,6.68,4.6,4.6,0,0,0,.74.65,4.84,4.84,0,0,0,1.74.8,4.53,4.53,0,0,0,4.4-.89,3,3,0,0,0,.54-.58,6.8,6.8,0,0,1-.68.52l-.36.2a5.09,5.09,0,0,1-5.54-.44c-.09-.07-.09-.12,0-.22l.22-.29A3.62,3.62,0,0,1,29.75,101a6,6,0,0,1,1.52-.21c.77,0,1.54,0,2.31-.11h.08a5.4,5.4,0,0,0,1.07-.14,6,6,0,0,0,.73-.19,2.75,2.75,0,0,0,1.59-1.14Z"/><path class="cls-2" d="M29.41,96.1v4.46l.38-.14a5.43,5.43,0,0,1,1.37-.18l.57,0V94.92Zm1.91,2.19L29.85,99v-.35l1.47-.75Zm0-1.1-1.47.74v-.35l1.47-.75Zm0-1-1.47.75v-.36l1.47-.75Z"/><path class="cls-1" d="M32,94.92v5.28c.37,0,.75,0,1.12-.06h.09a4.24,4.24,0,0,0,.88-.12h0l.22-.05V96.1Zm2,4.19-1.48-.75V98l1.48.75ZM34,98l-1.48-.75V96.9l1.48.75Zm0-1-1.48-.75v-.36l1.48.75Z"/><path class="cls-2" d="M26.4,111.81a1.13,1.13,0,0,1,.82.34,1.11,1.11,0,0,1,.34.82h0v.78H28v.38H26.4a1.14,1.14,0,0,1-.79-.32,1.61,1.61,0,0,1-.5,1l-.26.2-.37-.22a1.2,1.2,0,0,0,.34-.23,1.4,1.4,0,0,0,.43-.94V113a1.07,1.07,0,0,1,.34-.81A1.11,1.11,0,0,1,26.4,111.81Zm0,.38a.7.7,0,0,0-.54.23.74.74,0,0,0-.24.55h0a.79.79,0,0,0,.23.56.72.72,0,0,0,.55.21h.78V113a.75.75,0,0,0-.23-.55A.71.71,0,0,0,26.4,112.19Z"/><path class="cls-2" d="M31,109.91l-1.92,1.44h3.14a1.36,1.36,0,0,1,1,.4,1.39,1.39,0,0,1,.4,1,1.34,1.34,0,0,1-.45,1H34v.38H27.75v-.38h4.5a.93.93,0,0,0,.7-.31,1,1,0,0,0,.3-.71A1,1,0,0,0,33,112a1,1,0,0,0-.71-.3h-3.8v-.37l.05,0,2.54-1.8Z"/><path class="cls-2" d="M34.9,109.56v3.66a.9.9,0,0,1-.9.91h-.17v-.38H34a.53.53,0,0,0,.37-.15.54.54,0,0,0,.15-.38v-3.66Z"/><path class="cls-2" d="M36.2,109.56v4.11a.07.07,0,0,0,.08.08h.5v.38h-1v-4.57Z"/><path class="cls-2" d="M39.75,113.75v.38H38.16a1.11,1.11,0,0,1-.75-.28l0,0v.31h-.79v-.38h.72a1.1,1.1,0,0,1-.29-.58,1.16,1.16,0,0,1,.47-1.19,1.12,1.12,0,0,1,.69-.23,1.14,1.14,0,0,1,.83.35,1.09,1.09,0,0,1,.36.82v.83Zm-.77,0v-.81a.76.76,0,0,0-.24-.56.81.81,0,0,0-.57-.23.78.78,0,0,0-.58.23.76.76,0,0,0-.24.57.79.79,0,0,0,.23.56.82.82,0,0,0,.58.24Z"/><path class="cls-2" d="M41.4,111.77a1.3,1.3,0,0,1,1.1.57H42a1.11,1.11,0,0,0-.82-.18.91.91,0,0,0-.71.38.7.7,0,0,0-.07.78.86.86,0,0,0,.87.43H42.5v.38h-3v-.38h.69A1.08,1.08,0,0,1,40,113a1.14,1.14,0,0,1,.28-.77A1.35,1.35,0,0,1,41.4,111.77Z"/><path class="cls-2" d="M43.84,109.55v.18a.34.34,0,0,0-.2,0,.15.15,0,0,0-.08.11c0,.13.11.2.35.21v.18h-.57v-.18h.09a.34.34,0,0,1,0-.37A.44.44,0,0,1,43.84,109.55Zm0,4.58h-.39v-3.6h.39Z"/><path class="cls-2" d="M51.05,109.56v4.19h.41v.38H51a1.35,1.35,0,0,1-.31.45,1.36,1.36,0,0,1-2.32-1v-.46h.37v.46a.91.91,0,0,0,.29.69.93.93,0,0,0,.69.3,1,1,0,0,0,1-1v-4.06Z"/><path class="cls-2" d="M53.68,112.1a1.12,1.12,0,0,1,.35.82v1.21h-1.2a1.11,1.11,0,0,1-.75-.28l0,0v.31h-.8v-.38H52a1.19,1.19,0,0,1,.18-1.77,1.17,1.17,0,0,1,1.53.12Zm0,1.64v-.81a.73.73,0,0,0-.25-.56.78.78,0,0,0-.57-.23.82.82,0,0,0-.58.23.79.79,0,0,0,0,1.13.78.78,0,0,0,.57.24Z"/><path class="cls-2" d="M55.33,109.56v4.11a.07.07,0,0,0,.08.08h.5v.38H55v-4.57Z"/><path class="cls-2" d="M59,109.91l-1.91,1.44h3.14a1.38,1.38,0,0,1,.92,2.4H62v.38H55.71v-.38h4.51a.93.93,0,0,0,.69-.31,1,1,0,0,0,.3-.71,1,1,0,0,0-.29-.71,1,1,0,0,0-.7-.3H56.41v-.37l.05,0,2.54-1.8Z"/><path class="cls-2" d="M62.87,111.74v1.47a.89.89,0,0,1-.27.65.87.87,0,0,1-.64.27h-.17v-.38H62a.52.52,0,0,0,.37-.16.49.49,0,0,0,.16-.38v-1.47Zm-.59,2.68a.29.29,0,0,1,.21.09.3.3,0,0,1,.08.2.28.28,0,0,1-.08.2.29.29,0,0,1-.21.09.28.28,0,0,1-.2-.09.24.24,0,0,1-.08-.2.26.26,0,0,1,.08-.2A.28.28,0,0,1,62.28,114.42Z"/><path class="cls-2" d="M69.31,111.81a1.16,1.16,0,1,1,0,2.32,1.14,1.14,0,0,1-.79-.32,1.61,1.61,0,0,1-.5,1,2.17,2.17,0,0,1-.26.2l-.37-.22a1.08,1.08,0,0,0,.34-.23,1.36,1.36,0,0,0,.43-.94V113a1.07,1.07,0,0,1,.34-.81A1.11,1.11,0,0,1,69.31,111.81Zm0,.38a.73.73,0,0,0-.54.23.73.73,0,0,0-.23.55h0a.71.71,0,0,0,.23.55.74.74,0,0,0,.54.23.76.76,0,0,0,.56-.22.78.78,0,0,0,.22-.56.77.77,0,0,0-.78-.78Z"/><path class="cls-2" d="M72.56,111.81a1.11,1.11,0,0,1,.81.35,1.08,1.08,0,0,1,.35.78v.81h.69v.38h-.69a1.79,1.79,0,0,1-.25.33,1.31,1.31,0,0,1-1,.4l-.22,0v-.38l.22,0a1,1,0,0,0,.71-.29l0,0h0l0,0h-.7a1.16,1.16,0,0,1-.82-2A1.13,1.13,0,0,1,72.56,111.81Zm0,.38a.79.79,0,0,0-.78.78.75.75,0,0,0,.23.56.76.76,0,0,0,.55.22h.77V113a.79.79,0,0,0-.77-.78Z"/><path class="cls-2" d="M76.16,111.76a1.34,1.34,0,0,1,.78.3.93.93,0,0,1,.25.27,1.13,1.13,0,0,1,.19.73,1,1,0,0,1-.29.69h.69v.38H74.21v-.38h.69a1.09,1.09,0,0,1-.3-.69,1.24,1.24,0,0,1,.2-.73,1.12,1.12,0,0,1,.25-.28,1.29,1.29,0,0,1,.77-.29A1.93,1.93,0,0,1,76.16,111.76Zm-.12.37h-.1a1,1,0,0,0-.69.26.83.83,0,0,0-.27.55.63.63,0,0,0,.21.55,1,1,0,0,0,.75.26h.11a1.05,1.05,0,0,0,.75-.26.69.69,0,0,0,.21-.55.83.83,0,0,0-.27-.55A1,1,0,0,0,76,112.13Zm-.47-1.32a.32.32,0,0,1,.21.08.32.32,0,0,1,.08.2.32.32,0,0,1-.08.21.28.28,0,0,1-.21.08.26.26,0,0,1-.2-.08.28.28,0,0,1-.08-.21.27.27,0,0,1,.08-.2A.3.3,0,0,1,75.57,110.81Zm.79,0a.32.32,0,0,1,.21.08.28.28,0,0,1,.09.2.29.29,0,0,1-.09.21.28.28,0,0,1-.21.08.27.27,0,0,1-.2-.08.32.32,0,0,1-.08-.21.27.27,0,0,1,.28-.28Z"/><path class="cls-2" d="M78.67,111.74v1.47a.52.52,0,0,0,.15.38.57.57,0,0,0,.38.16h.17v.38H79.2a.86.86,0,0,1-.65-.27l-.07-.08-.08.08a.86.86,0,0,1-.65.27h-.17v-.38h.17a.55.55,0,0,0,.54-.54v-1.47Zm-.21-1a.27.27,0,0,1,.2.09.29.29,0,0,1,0,.4.27.27,0,0,1-.2.09.29.29,0,0,1,0-.58Z"/><path class="cls-2" d="M80.24,109.56v3.66a.9.9,0,0,1-.9.91h-.17v-.38h.17a.49.49,0,0,0,.36-.15.51.51,0,0,0,.16-.38v-3.66Z"/><path class="cls-2" d="M89,111.76a1.61,1.61,0,0,1,.77.09,1.41,1.41,0,0,1,.35.21,1,1,0,0,1,.24.27,1.07,1.07,0,0,1,.2.72,1.09,1.09,0,0,1-.3.7H91v.38H85.65a.85.85,0,0,1-.63-.27.82.82,0,0,1-.26-.63h.37a.53.53,0,0,0,.52.52h2.43a1.09,1.09,0,0,1-.3-.69,1.11,1.11,0,0,1,.2-.73.92.92,0,0,1,.24-.28A1.35,1.35,0,0,1,89,111.76Zm.22.37h-.11a1,1,0,0,0-.66.23.8.8,0,0,0-.29.58.68.68,0,0,0,.23.58,1.05,1.05,0,0,0,.72.23h.12a1,1,0,0,0,.72-.24.65.65,0,0,0,.23-.57.8.8,0,0,0-.29-.58A1,1,0,0,0,89.22,112.13Zm0-1.4a.24.24,0,0,1,.19.08.25.25,0,0,1,.09.2.28.28,0,0,1-.09.2.27.27,0,0,1-.19.08.3.3,0,0,1-.21-.08.32.32,0,0,1-.08-.2.28.28,0,0,1,.08-.2A.26.26,0,0,1,89.19,110.73Z"/><path class="cls-2" d="M92.49,111.78h.1a1.24,1.24,0,0,1,1.12.56h-.5a1,1,0,0,0-.62-.19h-.1a1,1,0,0,0-.69.25.78.78,0,0,0-.26.55.66.66,0,0,0,.2.55,1.07,1.07,0,0,0,.74.25h1.64v.38H90.76v-.38h.7a1.07,1.07,0,0,1-.29-.59,1.1,1.1,0,0,1,.1-.64,1.12,1.12,0,0,1,.44-.52A1.37,1.37,0,0,1,92.49,111.78Zm0-1a.26.26,0,0,1,.2.08.28.28,0,0,1,.08.2.32.32,0,0,1-.08.2.3.3,0,0,1-.2.08.28.28,0,0,1-.2-.08.28.28,0,0,1-.09-.2.25.25,0,0,1,.09-.2A.24.24,0,0,1,92.49,110.73Z"/><path class="cls-2" d="M99,111.76v1.46a.52.52,0,0,0,.15.38.51.51,0,0,0,.37.15h.17v.38h-.17a.85.85,0,0,1-.63-.27.65.65,0,0,1-.15-.18l-.09.1a1.1,1.1,0,0,1-.84.35,1.13,1.13,0,0,1-1-.54,1.11,1.11,0,0,1-1,.54,1.15,1.15,0,0,1-.84-.35l-.09-.1a.73.73,0,0,1-.14.18.87.87,0,0,1-.64.27h-.16v-.38h.16a.51.51,0,0,0,.37-.15.57.57,0,0,0,.16-.38v-.75H95v.58a.79.79,0,0,0,.22.47.8.8,0,0,0,.58.24.78.78,0,0,0,.57-.24.77.77,0,0,0,.23-.57v-.88H97V113a.81.81,0,0,0,.23.57.81.81,0,0,0,1.38-.57v-1.19Zm-2.55-1a.28.28,0,0,1,.2.08.28.28,0,0,1,.09.2.29.29,0,0,1-.09.21.29.29,0,0,1-.4,0,.29.29,0,0,1-.09-.21.28.28,0,0,1,.09-.2A.28.28,0,0,1,96.41,110.81Zm.37-.68a.29.29,0,0,1,.21.09.27.27,0,0,1,.09.2.29.29,0,0,1-.09.21.32.32,0,0,1-.21.08.32.32,0,0,1-.2-.08.32.32,0,0,1-.08-.21.3.3,0,0,1,.08-.2A.28.28,0,0,1,96.78,110.13Zm.42.68a.32.32,0,0,1,.21.08.32.32,0,0,1,.08.2.32.32,0,0,1-.08.21.28.28,0,0,1-.21.08.26.26,0,0,1-.2-.08.29.29,0,0,1-.09-.21.28.28,0,0,1,.09-.2A.3.3,0,0,1,97.2,110.81Z"/><path class="cls-2" d="M100.53,109.56v3.66a.87.87,0,0,1-.27.64.89.89,0,0,1-.64.27h-.17v-.38h.17a.51.51,0,0,0,.37-.15.54.54,0,0,0,.15-.38v-3.66Z"/><path class="cls-2" d="M101.83,114.13h-.38v-4.57h.38Z"/><path class="cls-2" d="M106.73,109.56v4.11a.07.07,0,0,0,.08.08h.5v.38h-1v-4.57Z"/><path class="cls-2" d="M108.19,111.74v1.47a.53.53,0,0,0,.16.38.55.55,0,0,0,.38.16h.17v.38h-.17a.86.86,0,0,1-.65-.27l-.08-.08-.07.08a.86.86,0,0,1-.65.27h-.17v-.38h.17a.55.55,0,0,0,.38-.16.52.52,0,0,0,.15-.38v-1.47Zm-.21-1a.29.29,0,0,1,.21.09.29.29,0,0,1,0,.4.29.29,0,0,1-.21.09.28.28,0,0,1-.2-.09.29.29,0,0,1,0-.4A.28.28,0,0,1,108,110.77Z"/><path class="cls-2" d="M109.77,109.56v3.66a.92.92,0,0,1-.9.91h-.18v-.38h.18a.49.49,0,0,0,.36-.15.55.55,0,0,0,.16-.38v-3.66Z"/><path class="cls-1" d="M48.93,102.47c0-1.69-.54-2.73-1.62-3.07L47,99.29l.34-.12a2.85,2.85,0,0,0,1.88-2.89c0-2.06-1.56-3.33-4-3.33H39.89V105.4H42v-5.25h2.2c2.24,0,2.65.79,2.65,2.35v.22a9.42,9.42,0,0,0,.22,2.68h2a10.71,10.71,0,0,1-.14-2.21Zm-4.37-4H42V94.63h2.69c1.51,0,2.34.67,2.34,1.9S46.21,98.47,44.56,98.47Z"/><path class="cls-1" d="M55.89,92.93c-3.56,0-6,2.54-6,6.33s2.27,6.32,5.79,6.32c4.11,0,5.94-3.2,5.94-6.37C61.67,95.4,59.41,92.93,55.89,92.93Zm-.07,11c-2.24,0-3.69-1.84-3.69-4.69s1.37-4.58,3.66-4.58,3.69,1.73,3.69,4.62S58.11,103.89,55.82,103.89Z"/><path class="cls-1" d="M71,93v7.47c0,2.35-.95,3.5-2.92,3.5-1.1,0-3-.46-3-3.5V93H62.93v7.42c0,3.45,1.71,5.2,5.08,5.2s5.09-1.72,5.09-5.27V93Z"/><path class="cls-1" d="M80,92.93H75V105.4h2.15v-4.91h2.77c2.11,0,4.36-1,4.36-3.82C84.24,94.4,82.56,92.93,80,92.93Zm-.33,5.88H77.11v-4.2h2.57c1.51,0,2.38.77,2.38,2.11S81.19,98.81,79.62,98.81Z"/><path class="cls-1" d="M87.36,103.67v-3.9h6.15V98H87.36V94.68h6.43V93H85.28V105.4h8.59l.25-1.73Z"/><path class="cls-1" d="M96.86,92.93V94.7h6.31l-.15.19a26.79,26.79,0,0,0-4.6,10.51h2.23a27.46,27.46,0,0,1,4.62-10.8V92.93Z"/><circle class="cls-1" cx="106.49" cy="105.25" r="0.27"/></svg>