<svg id="Layer_1" data-name="Layer 1" xmlns="http://www.w3.org/2000/svg" viewBox="0 0 133 147"><defs><style>.cls-1{fill:#202e53;}.cls-2{fill:#f6aa17;}</style></defs><title>2-01</title><path class="cls-1" d="M47.45,77.77h0A16.1,16.1,0,0,1,16,82.07a15,15,0,0,1-.45-1.84,16.42,16.42,0,0,1,.43-7.53h0a16.22,16.22,0,0,1,26-7.93c.54.42,1,.84,1.57,1.3s1.05,1,1.54,1.52a22.09,22.09,0,0,0-4.13-2.44,19.39,19.39,0,0,0-6.54-1.39,16,16,0,0,0-10,3.56c-.19.14-.36.28-.53.43-.41.36-.79.76-1.16,1.15l-.07.07a12.16,12.16,0,0,0-.13,16.6,11.8,11.8,0,0,0,1.84,1.63,12,12,0,0,0,4.32,2,11.25,11.25,0,0,0,11-2.2,7,7,0,0,0,1.33-1.44,14.15,14.15,0,0,1-1.69,1.28c-.29.19-.59.36-.89.52a12.67,12.67,0,0,1-13.77-1.1c-.24-.19-.23-.32-.08-.54A8.27,8.27,0,0,1,25,85a8.92,8.92,0,0,1,4.28-2.72,14.67,14.67,0,0,1,3.79-.51c1.91-.1,3.83-.13,5.74-.29l.21,0a11.76,11.76,0,0,0,2.66-.36,13,13,0,0,0,1.81-.46,6.94,6.94,0,0,0,4-2.83Z"/><path class="cls-2" d="M28.44,70V81.07q.45-.18.93-.33a13.11,13.11,0,0,1,3.42-.47l1.42-.06V67Zm4.75,5.44-3.67,1.86v-.89l3.67-1.86Zm0-2.74-3.67,1.86v-.89l3.67-1.86Zm0-2.58L29.52,72v-.89l3.67-1.86Z"/><path class="cls-1" d="M34.94,67V80.18c.93,0,1.88-.08,2.8-.16H38a9.38,9.38,0,0,0,2.18-.29h0l.53-.11V70Zm4.9,10.43L36.17,75.6v-.88l3.67,1.86Zm0-2.74-3.67-1.86V72l3.67,1.86Zm0-2.58-3.67-1.87V69.4l3.67,1.86Z"/><path class="cls-1" d="M112.72,76.73a.69.69,0,0,0-.32-.28,1,1,0,0,0-.49-.11.69.69,0,0,0-.43.14.5.5,0,0,0-.19.4.56.56,0,0,0,.14.39.78.78,0,0,0,.33.19l.44.13.43.16A.83.83,0,0,1,113,78a.88.88,0,0,1,.14.49,1.09,1.09,0,0,1-.11.5.87.87,0,0,1-.28.32,1.4,1.4,0,0,1-.79.22,1.7,1.7,0,0,1-.75-.14c-.21-.1-.31-.21-.31-.35a.22.22,0,0,1,.13-.2l.13-.08a.76.76,0,0,0,.36.32,1.25,1.25,0,0,0,.54.12.81.81,0,0,0,.49-.15.52.52,0,0,0,.21-.44.47.47,0,0,0-.19-.41,1.18,1.18,0,0,0-.45-.22l-.53-.16a1.11,1.11,0,0,1-.45-.3.84.84,0,0,1-.18-.56.89.89,0,0,1,.32-.74A1.24,1.24,0,0,1,112,76a1.63,1.63,0,0,1,.67.13c.2.08.31.2.31.34S112.92,76.7,112.72,76.73Z"/><path class="cls-1" d="M113.73,79.24v-2a10.25,10.25,0,0,0-.06-1.21,4.9,4.9,0,0,1,.77-.06c.94,0,1.41.35,1.41,1a1,1,0,0,1-.24.7,1.07,1.07,0,0,1-.62.33s0,.07.09.2l.12.25.11.2a1.49,1.49,0,0,0,.23.36.45.45,0,0,0,.34.15H116a.37.37,0,0,1,0,.16c0,.13-.13.19-.39.19a.54.54,0,0,1-.4-.2,2.25,2.25,0,0,1-.17-.21,1.72,1.72,0,0,1-.18-.28l-.14-.27s-.07-.15-.14-.29l-.12-.25c-.09,0-.14,0-.14-.12a1.15,1.15,0,0,1,0-.14l.25,0a.72.72,0,0,0,.55-.21.83.83,0,0,0,.2-.59.66.66,0,0,0-.22-.55,1.13,1.13,0,0,0-.68-.17l-.41,0c0,.2,0,.56,0,1.07v1a4.35,4.35,0,0,0,.09,1,.75.75,0,0,1-.24,0,.25.25,0,0,1-.2-.07A.35.35,0,0,1,113.73,79.24Z"/><path class="cls-1" d="M66,74.62h0A5.08,5.08,0,0,1,56,76c-.06-.19-.1-.39-.14-.58a5.5,5.5,0,0,1-.08-.91A5,5,0,0,1,56,73h0a4.61,4.61,0,0,1,.36-.89,5.1,5.1,0,0,1,4.55-2.8,5,5,0,0,1,3.27,1.19c.17.13.33.26.5.41a5.43,5.43,0,0,1,.48.48,6.36,6.36,0,0,0-1.3-.77,6,6,0,0,0-2.06-.44,5,5,0,0,0-3.17,1.12l-.17.14a4.08,4.08,0,0,0-.36.36l0,0a3.81,3.81,0,0,0,0,5.23,3.59,3.59,0,0,0,.58.52,4,4,0,0,0,1.36.62,3.53,3.53,0,0,0,3.45-.7,2.24,2.24,0,0,0,.42-.45,4.09,4.09,0,0,1-.53.4l-.28.17a4,4,0,0,1-4.34-.35c-.08-.06-.08-.1,0-.17l.18-.23A2.79,2.79,0,0,1,60.22,76a4.8,4.8,0,0,1,1.19-.16c.6,0,1.21,0,1.81-.09h.07a3.46,3.46,0,0,0,.84-.11c.19,0,.38-.08.57-.14a2.26,2.26,0,0,0,1.25-.9Z"/><path class="cls-2" d="M60.39,71.94v3.6l.3-.11a4.78,4.78,0,0,1,1.11-.15l.47,0V71Zm1.54,1.77-1.19.6V74l1.19-.6Zm0-.89-1.19.6v-.29l1.19-.6Zm0-.84-1.19.6v-.29l1.19-.6Z"/><path class="cls-1" d="M62.5,71v4.27c.31,0,.61,0,.91,0h.08a3.38,3.38,0,0,0,.71-.1h0l.17,0V71.94Zm1.6,3.39-1.2-.6v-.29l1.2.6Zm0-.89-1.2-.6v-.29l1.2.6Zm0-.84L62.9,72v-.29l1.2.6Z"/><path class="cls-2" d="M59.7,83.77a.77.77,0,0,1,.53.22.74.74,0,0,1,.21.53h0V85h.26v.24h-1a.73.73,0,0,1-.51-.2,1,1,0,0,1-.33.62.74.74,0,0,1-.16.12l-.24-.13a.82.82,0,0,0,.22-.16.84.84,0,0,0,.27-.6v-.39a.75.75,0,0,1,.22-.53A.77.77,0,0,1,59.7,83.77Zm0,.24a.47.47,0,0,0-.35.15.49.49,0,0,0-.15.36h0a.48.48,0,0,0,.14.35.43.43,0,0,0,.36.14h.5v-.49a.49.49,0,0,0-.15-.36A.45.45,0,0,0,59.7,84Z"/><path class="cls-2" d="M62.68,82.54l-1.23.93h2a.89.89,0,0,1,.63.26.88.88,0,0,1,.25.63.87.87,0,0,1-.28.66h.54v.24h-4V85h2.9a.62.62,0,0,0,.45-.2.63.63,0,0,0,.19-.46.62.62,0,0,0-.19-.46.65.65,0,0,0-.45-.19H61v-.24h0l1.64-1.16Z"/><path class="cls-2" d="M65.18,82.32v2.36a.54.54,0,0,1-.18.41.57.57,0,0,1-.41.17h-.11V85h.11a.37.37,0,0,0,.24-.1.33.33,0,0,0,.1-.24V82.32Z"/><path class="cls-2" d="M66,82.32V85a0,0,0,0,0,0,0h.33v.24h-.62V82.32Z"/><path class="cls-2" d="M68.3,85v.24h-1a.72.72,0,0,1-.48-.18l0,0v.2h-.51V85h.46a.72.72,0,0,1-.19-.38.76.76,0,0,1,.3-.76.74.74,0,0,1,.45-.15.77.77,0,0,1,.54.22.74.74,0,0,1,.23.54V85Zm-.5,0v-.52a.49.49,0,0,0-.15-.36.51.51,0,0,0-.37-.15.48.48,0,0,0-.37.15.47.47,0,0,0-.16.37.49.49,0,0,0,.15.36.53.53,0,0,0,.37.15Z"/><path class="cls-2" d="M69.36,83.75a.82.82,0,0,1,.71.36h-.32a.77.77,0,0,0-.53-.12.64.64,0,0,0-.46.25.44.44,0,0,0,0,.5.56.56,0,0,0,.56.28h.79v.24h-1.9V85h.45a.67.67,0,0,1-.19-.49.74.74,0,0,1,.18-.49A.84.84,0,0,1,69.36,83.75Z"/><path class="cls-2" d="M70.93,82.31v.12a.19.19,0,0,0-.13,0,.12.12,0,0,0,0,.07c0,.08.07.13.23.14v.11h-.37v-.11h.06a.21.21,0,0,1,0-.24Q70.72,82.29,70.93,82.31Zm0,3h-.24V82.94h.24Z"/><path class="cls-2" d="M75.58,82.32V85h.26v.24h-.32a.83.83,0,0,1-.2.3.89.89,0,0,1-1.24,0,.86.86,0,0,1-.26-.63v-.29h.24v.29a.58.58,0,0,0,.19.45.61.61,0,0,0,.45.19.65.65,0,0,0,.64-.64V82.32Z"/><path class="cls-2" d="M77.27,84a.74.74,0,0,1,.23.54v.77h-.77a.76.76,0,0,1-.49-.18l0,0v.2h-.51V85h.46a.79.79,0,0,1-.18-.38.75.75,0,0,1,.3-.76.71.71,0,0,1,.44-.15A.77.77,0,0,1,77.27,84Zm0,1.06v-.52a.46.46,0,0,0-.16-.36.53.53,0,0,0-.74,0,.51.51,0,0,0-.16.37.5.5,0,0,0,.16.36.51.51,0,0,0,.37.15Z"/><path class="cls-2" d="M78.34,82.32V85a0,0,0,0,0,0,0h.32v.24h-.62V82.32Z"/><path class="cls-2" d="M80.69,82.54l-1.23.93h2a.86.86,0,0,1,.63.26.89.89,0,0,1,.26.63.88.88,0,0,1-.29.66h.55v.24h-4V85h2.9a.59.59,0,0,0,.45-.2.63.63,0,0,0,.19-.46.65.65,0,0,0-.18-.46.66.66,0,0,0-.46-.19H79v-.24h0L80.7,82.3Z"/><path class="cls-2" d="M83.2,83.72v1a.58.58,0,0,1-.18.42.57.57,0,0,1-.41.17H82.5V85h.11a.37.37,0,0,0,.24-.1.37.37,0,0,0,.1-.25v-1Zm-.38,1.73a.18.18,0,0,1,.13.06.19.19,0,0,1,0,.13.21.21,0,0,1,0,.13.17.17,0,0,1-.13,0,.15.15,0,0,1-.13,0,.18.18,0,0,1-.06-.13.21.21,0,0,1,.19-.19Z"/><path class="cls-2" d="M87.35,83.77a.73.73,0,0,1,.52.22.71.71,0,0,1,.22.53.76.76,0,0,1-.21.53.74.74,0,0,1-.53.21.73.73,0,0,1-.51-.2,1.09,1.09,0,0,1-.33.62l-.16.12-.24-.13a.65.65,0,0,0,.21-.16.81.81,0,0,0,.28-.6v-.39a.75.75,0,0,1,.75-.75Zm0,.24a.47.47,0,0,0-.35.15.49.49,0,0,0-.15.36h0a.46.46,0,0,0,.14.35.49.49,0,0,0,.36.15.47.47,0,0,0,.35-.15.45.45,0,0,0,.15-.35.49.49,0,0,0-.15-.36A.47.47,0,0,0,87.35,84Z"/><path class="cls-2" d="M89.44,83.77A.74.74,0,0,1,90,84a.7.7,0,0,1,.22.51V85h.45v.24h-.45a.82.82,0,0,1-.16.22.84.84,0,0,1-.62.25h-.15v-.24h.15a.62.62,0,0,0,.46-.19v0h-.43a.73.73,0,0,1-.75-.74.71.71,0,0,1,.22-.53A.73.73,0,0,1,89.44,83.77Zm0,.24a.51.51,0,0,0-.51.51.45.45,0,0,0,.15.35.46.46,0,0,0,.36.15h.5v-.5a.49.49,0,0,0-.15-.36A.49.49,0,0,0,89.44,84Z"/><path class="cls-2" d="M91.76,83.74a.81.81,0,0,1,.5.19.85.85,0,0,1,.16.17.71.71,0,0,1,.12.47.62.62,0,0,1-.19.45h.45v.24H90.5V85h.44a.71.71,0,0,1-.19-.45.88.88,0,0,1,.13-.47.69.69,0,0,1,.16-.18.82.82,0,0,1,.5-.18Zm-.08.24h-.07a.61.61,0,0,0-.44.16.56.56,0,0,0-.17.36.41.41,0,0,0,.13.35.65.65,0,0,0,.48.17h.07a.69.69,0,0,0,.49-.17.41.41,0,0,0,.13-.35.56.56,0,0,0-.17-.36A.64.64,0,0,0,91.68,84Zm-.3-.86a.18.18,0,0,1,.13.06.16.16,0,0,1,.06.13.18.18,0,0,1-.06.13.17.17,0,0,1-.13,0,.15.15,0,0,1-.13,0,.18.18,0,0,1-.06-.13.21.21,0,0,1,.19-.19Zm.51,0a.18.18,0,0,1,.13.06.16.16,0,0,1,.06.13.18.18,0,0,1-.06.13.19.19,0,0,1-.26,0,.18.18,0,0,1-.06-.13.16.16,0,0,1,.06-.13A.18.18,0,0,1,91.89,83.12Z"/><path class="cls-2" d="M93.37,83.72v1a.33.33,0,0,0,.1.25.37.37,0,0,0,.25.1h.1v.24h-.1a.57.57,0,0,1-.42-.17l0,0,0,0a.57.57,0,0,1-.42.17h-.11V85h.11a.34.34,0,0,0,.35-.35v-1Zm-.13-.62a.18.18,0,0,1,.13.06.17.17,0,0,1,0,.13.17.17,0,0,1-.18.18.19.19,0,0,1-.13,0,.18.18,0,0,1-.06-.13.21.21,0,0,1,.19-.19Z"/><path class="cls-2" d="M94.39,82.32v2.36a.54.54,0,0,1-.18.41.57.57,0,0,1-.41.17h-.11V85h.11a.37.37,0,0,0,.24-.1.33.33,0,0,0,.1-.24V82.32Z"/><path class="cls-2" d="M100,83.74a1.11,1.11,0,0,1,.49.05.88.88,0,0,1,.23.14.85.85,0,0,1,.16.17.76.76,0,0,1,.13.47.72.72,0,0,1-.2.45h.45v.24H97.87a.54.54,0,0,1-.41-.17.57.57,0,0,1-.17-.41h.25a.3.3,0,0,0,.1.24.29.29,0,0,0,.23.1h1.56a.71.71,0,0,1-.19-.44.73.73,0,0,1,.13-.48.69.69,0,0,1,.16-.18A.82.82,0,0,1,100,83.74Zm.14.24h-.07a.63.63,0,0,0-.43.15.53.53,0,0,0-.18.37.44.44,0,0,0,.14.37.68.68,0,0,0,.47.15h.07a.68.68,0,0,0,.47-.15.44.44,0,0,0,.15-.37.5.5,0,0,0-.19-.37A.61.61,0,0,0,100.17,84Zm0-.91a.17.17,0,0,1,.18.18.18.18,0,0,1-.06.13.13.13,0,0,1-.12.05.15.15,0,0,1-.13-.05.17.17,0,0,1,0-.26A.19.19,0,0,1,100.15,83.07Z"/><path class="cls-2" d="M102.27,83.75h.07a.81.81,0,0,1,.73.36h-.33a.65.65,0,0,0-.4-.12h-.07a.59.59,0,0,0-.43.16.5.5,0,0,0-.18.35.45.45,0,0,0,.14.36.68.68,0,0,0,.47.16h1.06v.24h-2.17V85h.45a.68.68,0,0,1-.18-.38.77.77,0,0,1,.06-.42.75.75,0,0,1,.28-.33A1,1,0,0,1,102.27,83.75Zm0-.68a.17.17,0,0,1,.12.05.17.17,0,0,1,0,.26.13.13,0,0,1-.12.05.15.15,0,0,1-.13-.05.17.17,0,0,1,0-.26A.19.19,0,0,1,102.28,83.07Z"/><path class="cls-2" d="M106.45,83.74v.94a.36.36,0,0,0,.09.24.37.37,0,0,0,.24.1h.11v.24h-.11a.58.58,0,0,1-.41-.17.62.62,0,0,1-.09-.12l-.06.07a.7.7,0,0,1-.54.22.72.72,0,0,1-.64-.34.71.71,0,0,1-.64.34.73.73,0,0,1-.54-.22L103.8,85a.47.47,0,0,1-.09.12.57.57,0,0,1-.41.17h-.1V85h.1a.35.35,0,0,0,.24-.1.33.33,0,0,0,.1-.24V84.2h.25v.37a.52.52,0,0,0,.14.3.53.53,0,0,0,.37.15.5.5,0,0,0,.37-.15.51.51,0,0,0,.15-.37v-.56h.24v.56a.5.5,0,0,0,.15.37.53.53,0,0,0,.37.15.51.51,0,0,0,.52-.52v-.76Zm-1.65-.62a.21.21,0,0,1,.19.19.18.18,0,0,1-.06.13.15.15,0,0,1-.13,0,.17.17,0,0,1-.13,0,.21.21,0,0,1,0-.13.19.19,0,0,1,0-.13A.18.18,0,0,1,104.8,83.12Zm.24-.43a.22.22,0,0,1,.14,0,.21.21,0,0,1,0,.13.17.17,0,0,1-.19.19.17.17,0,0,1-.12,0,.18.18,0,0,1-.06-.14.18.18,0,0,1,.06-.13A.17.17,0,0,1,105,82.69Zm.27.43a.2.2,0,0,1,.14.06.19.19,0,0,1,0,.13.21.21,0,0,1,0,.13.19.19,0,0,1-.14,0,.17.17,0,0,1-.13,0,.21.21,0,0,1-.05-.13.19.19,0,0,1,.05-.13A.18.18,0,0,1,105.31,83.12Z"/><path class="cls-2" d="M107.46,82.32v2.36a.54.54,0,0,1-.18.41.57.57,0,0,1-.41.17h-.11V85h.11a.37.37,0,0,0,.24-.1.33.33,0,0,0,.1-.24V82.32Z"/><path class="cls-2" d="M108.29,85.26h-.24V82.32h.24Z"/><path class="cls-2" d="M111.45,82.32V85a0,0,0,0,0,0,0h.33v.24h-.62V82.32Z"/><path class="cls-2" d="M112.4,83.72v1a.33.33,0,0,0,.1.25.35.35,0,0,0,.24.1h.11v.24h-.11a.57.57,0,0,1-.42-.17l0,0,0,0a.57.57,0,0,1-.41.17h-.11V85h.11a.37.37,0,0,0,.24-.1.33.33,0,0,0,.1-.25v-1Zm-.14-.62a.16.16,0,0,1,.13.06.14.14,0,0,1,0,.13.17.17,0,0,1,0,.13.19.19,0,0,1-.13,0,.21.21,0,0,1-.13,0,.17.17,0,0,1,0-.13.15.15,0,0,1,0-.13A.18.18,0,0,1,112.26,83.1Z"/><path class="cls-2" d="M113.41,82.32v2.36a.57.57,0,0,1-.17.41.6.6,0,0,1-.41.17h-.11V85h.11a.34.34,0,0,0,.33-.34V82.32Z"/><path class="cls-1" d="M74.09,77.58c0-1.14-.37-1.83-1.09-2.06l-.22-.07.22-.08a1.92,1.92,0,0,0,1.26-1.94c0-1.38-1-2.24-2.72-2.24H68v8.36h1.41V76H70.9c1.51,0,1.78.53,1.78,1.58v.15a6.54,6.54,0,0,0,.14,1.8h1.36a7.59,7.59,0,0,1-.09-1.49ZM71.16,74.9H69.43V72.32h1.8c1,0,1.57.45,1.57,1.28S72.26,74.9,71.16,74.9Z"/><path class="cls-1" d="M78.61,71.18a3.86,3.86,0,0,0-3.94,4.19c0,2.54,1.51,4.18,3.83,4.18,2.72,0,3.94-2.11,3.94-4.21C82.44,72.81,80.94,71.18,78.61,71.18Zm0,7.26c-1.49,0-2.44-1.22-2.44-3.11s.9-3,2.42-3,2.44,1.14,2.44,3S80.08,78.44,78.57,78.44Z"/><path class="cls-1" d="M88.58,71.19v5c0,1.56-.63,2.31-1.93,2.31-.73,0-2-.3-2-2.31v-5H83.27v4.92c0,2.28,1.13,3.44,3.36,3.44S90,78.41,90,76.06V71.19Z"/><path class="cls-1" d="M94.54,71.18H91.19v8.37h1.44v-3.3h1.85c1.42,0,2.93-.67,2.93-2.56C97.41,72.17,96.28,71.18,94.54,71.18Zm-.23,3.95H92.63V72.31h1.72c1,0,1.6.52,1.6,1.41S95.37,75.13,94.31,75.13Z"/><path class="cls-1" d="M99.43,78.29V75.71h4.07V74.56H99.43V72.34h4.26V71.19H98.06v8.24h5.68l.16-1.14Z"/><path class="cls-1" d="M106,69.34v1.44h5.13l-.12.15a21.78,21.78,0,0,0-3.74,8.55H109a22.43,22.43,0,0,1,3.75-8.78V69.34Z"/><circle class="cls-1" cx="113.36" cy="79.35" r="0.21"/></svg>