<?xml version="1.0" encoding="UTF-8"?>
<svg xmlns="http://www.w3.org/2000/svg" xmlns:xlink="http://www.w3.org/1999/xlink" width="82pt" height="90pt" viewBox="0 0 82 90" version="1.1">
<g id="surface1">
<path style=" stroke:none;fill-rule:nonzero;fill:rgb(100%,100%,100%);fill-opacity:1;" d="M 29.296875 47.550781 C 29.140625 52.34375 25.511719 56.328125 20.710938 56.976562 C 15.90625 57.628906 11.332031 54.757812 9.878906 50.179688 C 9.765625 49.808594 9.667969 49.433594 9.601562 49.054688 C 9.328125 47.519531 9.417969 45.945312 9.867188 44.449219 C 10.808594 41.226562 13.328125 38.695312 16.566406 37.714844 C 19.808594 36.738281 23.328125 37.445312 25.921875 39.601562 C 26.253906 39.859375 26.539062 40.113281 26.890625 40.394531 C 27.242188 40.679688 27.539062 41.007812 27.839844 41.324219 C 27.046875 40.738281 26.195312 40.238281 25.292969 39.832031 C 24.003906 39.320312 22.640625 39.03125 21.253906 38.984375 C 19.003906 38.992188 16.824219 39.761719 15.078125 41.160156 C 14.960938 41.246094 14.855469 41.332031 14.75 41.421875 C 14.5 41.644531 14.265625 41.890625 14.035156 42.125 L 13.992188 42.167969 C 11.273438 45.003906 11.238281 49.441406 13.914062 52.320312 C 14.253906 52.6875 14.636719 53.023438 15.046875 53.316406 C 15.84375 53.894531 16.753906 54.3125 17.714844 54.539062 C 20.058594 55.320312 22.644531 54.808594 24.507812 53.191406 C 24.820312 52.941406 25.097656 52.644531 25.328125 52.3125 C 25 52.597656 24.652344 52.859375 24.285156 53.09375 C 24.105469 53.210938 23.917969 53.316406 23.738281 53.414062 C 21.015625 54.871094 17.683594 54.609375 15.234375 52.742188 C 15.085938 52.625 15.09375 52.546875 15.183594 52.410156 C 15.261719 52.257812 15.34375 52.113281 15.4375 51.96875 C 16.136719 51.175781 17.054688 50.597656 18.082031 50.308594 C 18.84375 50.101562 19.628906 49.996094 20.417969 49.996094 C 21.597656 49.933594 22.785156 49.917969 23.964844 49.816406 L 24.09375 49.816406 C 24.648438 49.804688 25.199219 49.730469 25.734375 49.597656 C 26.113281 49.53125 26.488281 49.4375 26.851562 49.316406 C 27.863281 49.054688 28.742188 48.441406 29.324219 47.585938 Z M 29.296875 47.550781 "/>
<path style=" stroke:none;fill-rule:nonzero;fill:rgb(96.470588%,66.666667%,9.019608%);fill-opacity:1;" d="M 17.5625 42.800781 L 17.5625 49.566406 C 17.746094 49.492188 17.9375 49.425781 18.136719 49.363281 C 18.824219 49.179688 19.53125 49.082031 20.246094 49.078125 L 21.125 49.042969 L 21.125 40.964844 Z M 20.496094 46.125 L 18.226562 47.261719 L 18.226562 46.71875 L 20.496094 45.582031 Z M 20.496094 44.449219 L 18.226562 45.585938 L 18.226562 45.042969 L 20.496094 43.90625 Z M 20.496094 42.871094 L 18.226562 44.023438 L 18.226562 43.476562 L 20.496094 42.339844 Z M 20.496094 42.871094 "/>
<path style=" stroke:none;fill-rule:nonzero;fill:rgb(100%,100%,100%);fill-opacity:1;" d="M 21.574219 40.964844 L 21.574219 49.023438 C 22.148438 49.023438 22.734375 48.976562 23.300781 48.925781 L 23.464844 48.925781 C 23.917969 48.917969 24.371094 48.859375 24.808594 48.75 L 25.136719 48.679688 L 25.136719 42.800781 Z M 24.601562 47.339844 L 22.335938 46.222656 L 22.335938 45.683594 L 24.601562 46.820312 Z M 24.601562 45.667969 L 22.335938 44.527344 L 22.335938 44.023438 L 24.601562 45.160156 Z M 24.601562 44.089844 L 22.335938 42.945312 L 22.335938 42.429688 L 24.601562 43.570312 Z M 24.601562 44.089844 "/>
<path style=" stroke:none;fill-rule:nonzero;fill:rgb(100%,100%,100%);fill-opacity:1;" d="M 69.601562 46.914062 C 69.554688 46.835938 69.488281 46.777344 69.402344 46.742188 C 69.3125 46.695312 69.203125 46.671875 69.101562 46.675781 C 69.003906 46.671875 68.914062 46.703125 68.835938 46.761719 C 68.761719 46.820312 68.71875 46.910156 68.71875 47.003906 C 68.714844 47.09375 68.746094 47.179688 68.804688 47.242188 C 68.863281 47.296875 68.933594 47.339844 69.007812 47.359375 L 69.28125 47.4375 L 69.546875 47.539062 C 69.632812 47.566406 69.714844 47.617188 69.773438 47.691406 C 69.832031 47.777344 69.863281 47.882812 69.859375 47.988281 C 69.863281 48.097656 69.839844 48.203125 69.792969 48.292969 C 69.753906 48.375 69.691406 48.441406 69.621094 48.492188 C 69.476562 48.582031 69.304688 48.632812 69.132812 48.625 C 68.972656 48.632812 68.8125 48.601562 68.667969 48.539062 C 68.539062 48.476562 68.476562 48.410156 68.476562 48.324219 C 68.476562 48.273438 68.507812 48.226562 68.558594 48.203125 L 68.636719 48.15625 C 68.6875 48.242188 68.765625 48.3125 68.859375 48.347656 C 68.964844 48.398438 69.078125 48.421875 69.191406 48.421875 C 69.300781 48.425781 69.40625 48.394531 69.496094 48.332031 C 69.582031 48.269531 69.628906 48.167969 69.628906 48.0625 C 69.632812 47.964844 69.589844 47.871094 69.507812 47.8125 C 69.425781 47.746094 69.332031 47.703125 69.230469 47.679688 L 68.902344 47.582031 C 68.796875 47.542969 68.699219 47.480469 68.625 47.394531 C 68.546875 47.296875 68.507812 47.179688 68.515625 47.054688 C 68.503906 46.878906 68.578125 46.714844 68.710938 46.601562 C 68.84375 46.511719 68.996094 46.464844 69.15625 46.46875 C 69.300781 46.464844 69.4375 46.492188 69.570312 46.546875 C 69.695312 46.597656 69.761719 46.667969 69.761719 46.753906 C 69.761719 46.839844 69.726562 46.894531 69.601562 46.914062 Z M 69.601562 46.914062 "/>
<path style=" stroke:none;fill-rule:nonzero;fill:rgb(100%,100%,100%);fill-opacity:1;" d="M 70.226562 48.449219 L 70.226562 47.222656 C 70.226562 46.976562 70.214844 46.734375 70.1875 46.488281 C 70.347656 46.460938 70.503906 46.449219 70.664062 46.449219 C 71.242188 46.449219 71.535156 46.664062 71.535156 47.058594 C 71.542969 47.21875 71.488281 47.371094 71.386719 47.488281 C 71.285156 47.597656 71.148438 47.667969 71 47.691406 C 71 47.691406 71 47.734375 71.058594 47.8125 L 71.132812 47.964844 L 71.199219 48.085938 C 71.234375 48.167969 71.285156 48.242188 71.34375 48.308594 C 71.394531 48.367188 71.472656 48.398438 71.550781 48.398438 L 71.625 48.398438 C 71.632812 48.429688 71.632812 48.464844 71.625 48.496094 C 71.625 48.578125 71.546875 48.613281 71.386719 48.613281 C 71.289062 48.609375 71.199219 48.5625 71.140625 48.492188 C 71.101562 48.449219 71.066406 48.40625 71.03125 48.363281 C 70.992188 48.308594 70.953125 48.25 70.921875 48.191406 L 70.835938 48.027344 C 70.835938 48.027344 70.792969 47.933594 70.75 47.851562 L 70.675781 47.699219 C 70.621094 47.699219 70.589844 47.699219 70.589844 47.625 C 70.585938 47.59375 70.585938 47.566406 70.589844 47.539062 L 70.742188 47.539062 C 70.871094 47.542969 70.996094 47.496094 71.082031 47.410156 C 71.171875 47.308594 71.214844 47.179688 71.207031 47.046875 C 71.214844 46.921875 71.167969 46.796875 71.070312 46.710938 C 70.945312 46.632812 70.800781 46.597656 70.652344 46.609375 L 70.398438 46.609375 C 70.398438 46.730469 70.398438 46.949219 70.398438 47.261719 L 70.398438 47.875 C 70.390625 48.078125 70.410156 48.285156 70.453125 48.484375 C 70.402344 48.492188 70.355469 48.492188 70.304688 48.484375 C 70.257812 48.492188 70.214844 48.472656 70.183594 48.441406 C 70.195312 48.441406 70.210938 48.445312 70.226562 48.449219 Z M 70.226562 48.449219 "/>
<path style=" stroke:none;fill-rule:nonzero;fill:rgb(100%,100%,100%);fill-opacity:1;" d="M 40.753906 45.625 C 40.792969 47.203125 39.625 48.558594 38.046875 48.773438 C 36.46875 48.988281 34.972656 48 34.578125 46.46875 C 34.542969 46.351562 34.515625 46.230469 34.492188 46.113281 C 34.460938 45.929688 34.441406 45.742188 34.441406 45.558594 C 34.441406 45.246094 34.488281 44.933594 34.578125 44.632812 C 34.632812 44.445312 34.707031 44.261719 34.800781 44.089844 C 35.335938 43.039062 36.421875 42.378906 37.609375 42.375 C 38.347656 42.371094 39.066406 42.628906 39.628906 43.105469 C 39.734375 43.183594 39.835938 43.265625 39.9375 43.355469 C 40.042969 43.445312 40.144531 43.542969 40.234375 43.648438 C 39.984375 43.460938 39.71875 43.304688 39.429688 43.179688 C 39.027344 43.015625 38.597656 42.921875 38.160156 42.910156 C 37.445312 42.90625 36.757812 43.148438 36.203125 43.59375 L 36.097656 43.679688 C 36.019531 43.746094 35.945312 43.820312 35.875 43.898438 C 35.019531 44.796875 35.019531 46.199219 35.875 47.097656 C 35.980469 47.214844 36.101562 47.324219 36.234375 47.414062 C 36.484375 47.59375 36.769531 47.722656 37.074219 47.796875 C 37.808594 48.035156 38.621094 47.875 39.203125 47.367188 C 39.300781 47.285156 39.390625 47.195312 39.460938 47.089844 C 39.359375 47.179688 39.25 47.261719 39.132812 47.335938 L 38.964844 47.4375 C 38.105469 47.898438 37.054688 47.8125 36.285156 47.222656 C 36.234375 47.1875 36.234375 47.164062 36.285156 47.121094 L 36.394531 46.980469 C 36.605469 46.738281 36.875 46.5625 37.183594 46.46875 C 37.425781 46.40625 37.671875 46.371094 37.917969 46.371094 C 38.289062 46.371094 38.667969 46.371094 39.035156 46.316406 L 39.078125 46.316406 C 39.253906 46.3125 39.429688 46.289062 39.597656 46.246094 C 39.714844 46.246094 39.835938 46.199219 39.949219 46.160156 C 40.265625 46.074219 40.539062 45.878906 40.722656 45.613281 Z M 40.753906 45.625 "/>
<path style=" stroke:none;fill-rule:nonzero;fill:rgb(96.470588%,66.666667%,9.019608%);fill-opacity:1;" d="M 37.289062 43.984375 L 37.289062 46.1875 L 37.476562 46.117188 C 37.699219 46.0625 37.929688 46.03125 38.160156 46.027344 L 38.449219 46.027344 L 38.449219 43.410156 Z M 38.238281 45.066406 L 37.503906 45.433594 L 37.503906 45.246094 L 38.238281 44.875 Z M 38.238281 44.523438 L 37.503906 44.890625 L 37.503906 44.710938 L 38.238281 44.347656 Z M 38.238281 44.011719 L 37.503906 44.375 L 37.503906 44.199219 L 38.238281 43.832031 Z M 38.238281 44.011719 "/>
<path style=" stroke:none;fill-rule:nonzero;fill:rgb(100%,100%,100%);fill-opacity:1;" d="M 38.59375 43.410156 L 38.59375 46.019531 C 38.78125 46.019531 38.96875 46.019531 39.152344 46.019531 L 39.203125 46.019531 C 39.351562 46.015625 39.5 45.996094 39.640625 45.960938 L 39.746094 45.960938 L 39.746094 43.984375 Z M 39.582031 45.484375 L 38.839844 45.117188 L 38.839844 44.9375 L 39.582031 45.308594 Z M 39.582031 44.9375 L 38.839844 44.570312 L 38.839844 44.394531 L 39.582031 44.761719 Z M 39.582031 44.425781 L 38.839844 44.023438 L 38.839844 43.84375 L 39.582031 44.210938 Z M 39.582031 44.425781 "/>
<path style=" stroke:none;fill-rule:nonzero;fill:rgb(96.470588%,66.666667%,9.019608%);fill-opacity:1;" d="M 36.863281 51.21875 C 36.984375 51.21875 37.105469 51.269531 37.191406 51.351562 C 37.273438 51.441406 37.324219 51.558594 37.320312 51.675781 L 37.320312 51.96875 L 37.480469 51.96875 L 37.480469 52.117188 L 36.863281 52.117188 C 36.746094 52.117188 36.632812 52.074219 36.550781 51.992188 C 36.53125 52.140625 36.457031 52.277344 36.34375 52.375 C 36.316406 52.402344 36.28125 52.425781 36.246094 52.449219 L 36.097656 52.367188 C 36.148438 52.34375 36.195312 52.308594 36.234375 52.269531 C 36.335938 52.175781 36.398438 52.042969 36.398438 51.902344 L 36.398438 51.664062 C 36.398438 51.542969 36.449219 51.425781 36.535156 51.339844 C 36.625 51.261719 36.742188 51.214844 36.863281 51.21875 Z M 36.863281 51.367188 C 36.78125 51.363281 36.703125 51.398438 36.648438 51.457031 C 36.585938 51.515625 36.554688 51.59375 36.554688 51.675781 C 36.550781 51.757812 36.582031 51.832031 36.640625 51.890625 C 36.695312 51.953125 36.78125 51.984375 36.863281 51.976562 L 37.171875 51.976562 L 37.171875 51.675781 C 37.171875 51.59375 37.140625 51.515625 37.078125 51.457031 C 37.027344 51.394531 36.945312 51.359375 36.863281 51.359375 Z M 36.863281 51.367188 "/>
<path style=" stroke:none;fill-rule:nonzero;fill:rgb(96.470588%,66.666667%,9.019608%);fill-opacity:1;" d="M 38.703125 50.464844 L 37.941406 51.035156 L 39.179688 51.035156 C 39.324219 51.035156 39.464844 51.089844 39.566406 51.195312 C 39.667969 51.296875 39.726562 51.433594 39.71875 51.578125 C 39.726562 51.730469 39.664062 51.878906 39.550781 51.980469 L 39.882812 51.980469 L 39.882812 52.128906 L 37.414062 52.128906 L 37.414062 51.96875 L 39.203125 51.96875 C 39.308594 51.96875 39.410156 51.925781 39.480469 51.847656 C 39.558594 51.773438 39.601562 51.671875 39.597656 51.566406 C 39.601562 51.460938 39.558594 51.359375 39.480469 51.285156 C 39.40625 51.214844 39.308594 51.171875 39.203125 51.171875 L 37.664062 51.171875 L 37.664062 51.023438 L 38.679688 50.3125 Z M 38.703125 50.464844 "/>
<path style=" stroke:none;fill-rule:nonzero;fill:rgb(96.470588%,66.666667%,9.019608%);fill-opacity:1;" d="M 40.246094 50.332031 L 40.246094 51.773438 C 40.25 51.871094 40.207031 51.960938 40.136719 52.023438 C 40.066406 52.09375 39.976562 52.128906 39.882812 52.128906 L 39.816406 52.128906 L 39.816406 51.96875 L 39.882812 51.96875 C 39.9375 51.96875 39.992188 51.945312 40.03125 51.90625 C 40.070312 51.871094 40.09375 51.816406 40.09375 51.761719 L 40.09375 50.332031 Z M 40.246094 50.332031 "/>
<path style=" stroke:none;fill-rule:nonzero;fill:rgb(96.470588%,66.666667%,9.019608%);fill-opacity:1;" d="M 40.753906 50.332031 L 40.753906 51.96875 L 40.957031 51.96875 L 40.957031 52.117188 L 40.574219 52.117188 L 40.574219 50.332031 Z M 40.753906 50.332031 "/>
<path style=" stroke:none;fill-rule:nonzero;fill:rgb(96.470588%,66.666667%,9.019608%);fill-opacity:1;" d="M 42.171875 51.96875 L 42.171875 52.117188 L 41.554688 52.117188 C 41.449219 52.117188 41.339844 52.078125 41.257812 52.007812 L 41.257812 52.128906 L 40.945312 52.128906 L 40.945312 51.96875 L 41.226562 51.96875 C 41.164062 51.90625 41.125 51.824219 41.109375 51.738281 C 41.078125 51.558594 41.148438 51.378906 41.296875 51.273438 C 41.375 51.214844 41.472656 51.183594 41.574219 51.183594 C 41.699219 51.183594 41.820312 51.230469 41.910156 51.316406 C 42 51.402344 42.050781 51.519531 42.050781 51.644531 L 42.050781 51.96875 Z M 41.863281 51.96875 L 41.863281 51.652344 C 41.863281 51.570312 41.832031 51.488281 41.769531 51.433594 C 41.710938 51.371094 41.628906 51.339844 41.542969 51.339844 C 41.457031 51.335938 41.371094 51.371094 41.316406 51.433594 C 41.25 51.488281 41.214844 51.570312 41.214844 51.65625 C 41.214844 51.742188 41.246094 51.820312 41.308594 51.878906 C 41.371094 51.9375 41.453125 51.96875 41.535156 51.96875 Z M 41.863281 51.96875 "/>
<path style=" stroke:none;fill-rule:nonzero;fill:rgb(96.470588%,66.666667%,9.019608%);fill-opacity:1;" d="M 42.828125 51.207031 C 43.003906 51.199219 43.167969 51.28125 43.265625 51.425781 L 43.070312 51.425781 C 42.972656 51.363281 42.855469 51.335938 42.742188 51.351562 C 42.628906 51.359375 42.527344 51.414062 42.457031 51.503906 C 42.394531 51.597656 42.394531 51.71875 42.457031 51.808594 C 42.527344 51.933594 42.664062 52 42.804688 51.980469 L 43.289062 51.980469 L 43.289062 52.128906 L 42.117188 52.128906 L 42.117188 51.96875 L 42.394531 51.96875 C 42.316406 51.890625 42.273438 51.78125 42.277344 51.671875 C 42.277344 51.5625 42.316406 51.453125 42.386719 51.371094 C 42.5 51.25 42.664062 51.1875 42.828125 51.207031 Z M 42.828125 51.207031 "/>
<path style=" stroke:none;fill-rule:nonzero;fill:rgb(96.470588%,66.666667%,9.019608%);fill-opacity:1;" d="M 43.796875 50.324219 L 43.796875 50.398438 C 43.769531 50.390625 43.742188 50.390625 43.71875 50.398438 C 43.710938 50.414062 43.710938 50.425781 43.71875 50.441406 C 43.71875 50.488281 43.761719 50.519531 43.859375 50.527344 L 43.859375 50.59375 L 43.628906 50.59375 L 43.628906 50.527344 L 43.667969 50.527344 C 43.636719 50.480469 43.636719 50.425781 43.667969 50.378906 C 43.667969 50.335938 43.710938 50.316406 43.796875 50.324219 Z M 43.796875 52.160156 L 43.648438 52.160156 L 43.648438 50.710938 L 43.796875 50.710938 Z M 43.796875 52.160156 "/>
<path style=" stroke:none;fill-rule:nonzero;fill:rgb(96.470588%,66.666667%,9.019608%);fill-opacity:1;" d="M 46.667969 50.332031 L 46.667969 51.96875 L 46.828125 51.96875 L 46.828125 52.117188 L 46.632812 52.117188 C 46.605469 52.183594 46.5625 52.25 46.507812 52.300781 C 46.296875 52.503906 45.957031 52.503906 45.742188 52.300781 C 45.636719 52.199219 45.578125 52.0625 45.582031 51.914062 L 45.582031 51.738281 L 45.730469 51.738281 L 45.730469 51.914062 C 45.726562 52.019531 45.769531 52.121094 45.847656 52.191406 C 45.917969 52.265625 46.019531 52.308594 46.125 52.308594 C 46.339844 52.300781 46.519531 52.128906 46.519531 51.914062 L 46.519531 50.332031 Z M 46.667969 50.332031 "/>
<path style=" stroke:none;fill-rule:nonzero;fill:rgb(96.470588%,66.666667%,9.019608%);fill-opacity:1;" d="M 47.710938 51.359375 C 47.804688 51.445312 47.855469 51.5625 47.855469 51.6875 L 47.855469 52.160156 L 47.378906 52.160156 C 47.269531 52.160156 47.160156 52.121094 47.074219 52.050781 L 47.074219 52.171875 L 46.761719 52.171875 L 46.761719 51.96875 L 47.046875 51.96875 C 46.988281 51.902344 46.949219 51.824219 46.933594 51.738281 C 46.894531 51.558594 46.972656 51.378906 47.117188 51.273438 C 47.199219 51.214844 47.292969 51.183594 47.390625 51.183594 C 47.519531 51.195312 47.632812 51.257812 47.710938 51.359375 Z M 47.710938 52.007812 L 47.710938 51.6875 C 47.714844 51.605469 47.679688 51.523438 47.613281 51.46875 C 47.484375 51.347656 47.28125 51.347656 47.15625 51.46875 C 47.09375 51.527344 47.058594 51.609375 47.058594 51.695312 C 47.058594 51.777344 47.09375 51.859375 47.15625 51.914062 C 47.21875 51.976562 47.300781 52.007812 47.382812 52.007812 Z M 47.710938 52.007812 "/>
<path style=" stroke:none;fill-rule:nonzero;fill:rgb(96.470588%,66.666667%,9.019608%);fill-opacity:1;" d="M 48.371094 50.332031 L 48.371094 51.96875 L 48.570312 51.96875 L 48.570312 52.117188 L 48.1875 52.117188 L 48.1875 50.332031 Z M 48.371094 50.332031 "/>
<path style=" stroke:none;fill-rule:nonzero;fill:rgb(96.470588%,66.666667%,9.019608%);fill-opacity:1;" d="M 49.824219 50.464844 L 49.066406 51.035156 L 50.300781 51.035156 C 50.445312 51.03125 50.585938 51.089844 50.6875 51.195312 C 50.792969 51.296875 50.847656 51.433594 50.847656 51.578125 C 50.847656 51.730469 50.785156 51.878906 50.667969 51.980469 L 51.007812 51.980469 L 51.007812 52.128906 L 48.539062 52.128906 L 48.539062 51.96875 L 50.332031 51.96875 C 50.4375 51.972656 50.539062 51.925781 50.609375 51.847656 C 50.683594 51.773438 50.726562 51.671875 50.722656 51.566406 C 50.726562 51.460938 50.6875 51.359375 50.613281 51.285156 C 50.539062 51.210938 50.4375 51.171875 50.332031 51.171875 L 48.78125 51.171875 L 48.78125 51.023438 L 49.828125 50.320312 Z M 49.824219 50.464844 "/>
<path style=" stroke:none;fill-rule:nonzero;fill:rgb(96.470588%,66.666667%,9.019608%);fill-opacity:1;" d="M 51.371094 51.1875 L 51.371094 51.796875 C 51.371094 51.894531 51.335938 51.988281 51.261719 52.054688 C 51.195312 52.121094 51.105469 52.160156 51.007812 52.160156 L 50.941406 52.160156 L 50.941406 51.96875 L 51.007812 51.96875 C 51.0625 51.96875 51.117188 51.945312 51.160156 51.90625 C 51.195312 51.867188 51.21875 51.8125 51.21875 51.753906 L 51.21875 51.144531 Z M 51.140625 52.246094 C 51.171875 52.246094 51.199219 52.257812 51.21875 52.28125 C 51.226562 52.308594 51.226562 52.335938 51.21875 52.363281 C 51.226562 52.386719 51.226562 52.414062 51.21875 52.441406 C 51.195312 52.453125 51.164062 52.453125 51.140625 52.441406 C 51.113281 52.453125 51.082031 52.453125 51.058594 52.441406 C 51.035156 52.421875 51.023438 52.394531 51.019531 52.363281 C 51.027344 52.300781 51.078125 52.25 51.140625 52.246094 Z M 51.140625 52.246094 "/>
<path style=" stroke:none;fill-rule:nonzero;fill:rgb(96.470588%,66.666667%,9.019608%);fill-opacity:1;" d="M 53.9375 51.21875 C 54.058594 51.21875 54.171875 51.269531 54.257812 51.351562 C 54.347656 51.4375 54.394531 51.554688 54.394531 51.675781 C 54.394531 51.796875 54.347656 51.914062 54.261719 52 C 54.175781 52.085938 54.058594 52.128906 53.9375 52.128906 C 53.820312 52.128906 53.707031 52.085938 53.621094 52.007812 C 53.597656 52.152344 53.523438 52.285156 53.417969 52.386719 L 53.320312 52.460938 L 53.171875 52.382812 C 53.21875 52.355469 53.265625 52.324219 53.300781 52.28125 C 53.410156 52.191406 53.472656 52.054688 53.472656 51.914062 L 53.472656 51.675781 C 53.472656 51.421875 53.679688 51.21875 53.9375 51.21875 Z M 53.9375 51.367188 C 53.855469 51.363281 53.773438 51.398438 53.71875 51.457031 C 53.660156 51.515625 53.625 51.59375 53.628906 51.675781 C 53.625 51.757812 53.65625 51.832031 53.710938 51.890625 C 53.773438 51.949219 53.851562 51.984375 53.9375 51.980469 C 54.019531 51.984375 54.097656 51.949219 54.152344 51.890625 C 54.214844 51.835938 54.25 51.757812 54.246094 51.675781 C 54.246094 51.59375 54.210938 51.515625 54.152344 51.457031 C 54.097656 51.394531 54.019531 51.359375 53.9375 51.359375 Z M 53.9375 51.367188 "/>
<path style=" stroke:none;fill-rule:nonzero;fill:rgb(96.470588%,66.666667%,9.019608%);fill-opacity:1;" d="M 55.226562 51.21875 C 55.359375 51.214844 55.484375 51.265625 55.574219 51.359375 C 55.660156 51.441406 55.707031 51.550781 55.707031 51.671875 L 55.707031 51.96875 L 55.988281 51.96875 L 55.988281 52.117188 L 55.707031 52.117188 C 55.683594 52.164062 55.648438 52.210938 55.609375 52.25 C 55.507812 52.351562 55.371094 52.40625 55.226562 52.40625 L 55.132812 52.40625 L 55.132812 52.257812 L 55.226562 52.257812 C 55.332031 52.257812 55.4375 52.21875 55.507812 52.140625 L 55.246094 52.140625 C 55.121094 52.144531 55.003906 52.097656 54.917969 52.011719 C 54.828125 51.925781 54.78125 51.808594 54.78125 51.6875 C 54.777344 51.566406 54.828125 51.449219 54.917969 51.367188 C 55 51.277344 55.109375 51.226562 55.226562 51.21875 Z M 55.226562 51.367188 C 55.054688 51.367188 54.910156 51.503906 54.910156 51.675781 C 54.910156 51.757812 54.941406 51.835938 55.003906 51.890625 C 55.0625 51.953125 55.144531 51.988281 55.226562 51.980469 L 55.535156 51.980469 L 55.535156 51.675781 C 55.535156 51.59375 55.503906 51.515625 55.441406 51.457031 C 55.386719 51.398438 55.308594 51.359375 55.226562 51.359375 Z M 55.226562 51.367188 "/>
<path style=" stroke:none;fill-rule:nonzero;fill:rgb(96.470588%,66.666667%,9.019608%);fill-opacity:1;" d="M 56.660156 51.199219 C 56.773438 51.203125 56.882812 51.242188 56.96875 51.316406 C 57.003906 51.347656 57.039062 51.378906 57.066406 51.421875 C 57.125 51.503906 57.148438 51.605469 57.140625 51.707031 C 57.140625 51.808594 57.097656 51.910156 57.023438 51.980469 L 57.300781 51.980469 L 57.300781 52.128906 L 55.882812 52.128906 L 55.882812 51.96875 L 56.152344 51.96875 C 56.082031 51.894531 56.039062 51.796875 56.035156 51.695312 C 56.035156 51.59375 56.0625 51.496094 56.113281 51.40625 C 56.140625 51.367188 56.175781 51.328125 56.214844 51.296875 C 56.304688 51.226562 56.410156 51.1875 56.523438 51.1875 Z M 56.609375 51.347656 L 56.566406 51.347656 C 56.46875 51.34375 56.367188 51.378906 56.296875 51.445312 C 56.234375 51.503906 56.195312 51.582031 56.191406 51.664062 C 56.179688 51.742188 56.210938 51.824219 56.269531 51.878906 C 56.351562 51.949219 56.457031 51.988281 56.566406 51.980469 L 56.609375 51.980469 C 56.71875 51.988281 56.828125 51.949219 56.914062 51.878906 C 56.972656 51.824219 57.003906 51.742188 56.992188 51.664062 C 56.984375 51.582031 56.949219 51.503906 56.886719 51.445312 C 56.808594 51.382812 56.710938 51.351562 56.609375 51.359375 Z M 56.421875 50.820312 C 56.457031 50.820312 56.484375 50.835938 56.503906 50.855469 C 56.53125 50.875 56.542969 50.90625 56.542969 50.9375 C 56.542969 50.96875 56.527344 50.996094 56.503906 51.015625 C 56.480469 51.027344 56.449219 51.027344 56.421875 51.015625 C 56.398438 51.027344 56.371094 51.027344 56.34375 51.015625 C 56.320312 50.996094 56.308594 50.96875 56.308594 50.9375 C 56.3125 50.875 56.359375 50.824219 56.421875 50.820312 Z M 56.738281 50.820312 C 56.769531 50.820312 56.800781 50.835938 56.820312 50.855469 C 56.84375 50.875 56.859375 50.90625 56.855469 50.9375 C 56.855469 50.96875 56.84375 50.996094 56.820312 51.015625 C 56.773438 51.058594 56.703125 51.058594 56.660156 51.015625 C 56.636719 50.996094 56.621094 50.96875 56.621094 50.9375 C 56.621094 50.90625 56.632812 50.875 56.660156 50.855469 C 56.679688 50.835938 56.707031 50.820312 56.738281 50.820312 Z M 56.738281 50.820312 "/>
<path style=" stroke:none;fill-rule:nonzero;fill:rgb(96.470588%,66.666667%,9.019608%);fill-opacity:1;" d="M 57.652344 51.1875 L 57.652344 51.796875 C 57.652344 51.855469 57.671875 51.914062 57.714844 51.949219 C 57.757812 51.992188 57.8125 52.011719 57.867188 52.011719 L 57.929688 52.011719 L 57.929688 52.160156 L 57.867188 52.160156 C 57.773438 52.160156 57.679688 52.125 57.609375 52.054688 C 57.542969 52.125 57.449219 52.160156 57.351562 52.160156 L 57.28125 52.160156 L 57.28125 51.96875 L 57.351562 51.96875 C 57.40625 51.972656 57.464844 51.949219 57.503906 51.910156 C 57.546875 51.871094 57.570312 51.8125 57.566406 51.753906 L 57.566406 51.144531 Z M 57.570312 50.808594 C 57.601562 50.808594 57.632812 50.820312 57.652344 50.84375 C 57.664062 50.871094 57.664062 50.898438 57.652344 50.925781 C 57.652344 50.953125 57.644531 50.984375 57.621094 51.003906 C 57.601562 51.023438 57.570312 51.035156 57.542969 51.035156 C 57.515625 51.042969 57.488281 51.042969 57.460938 51.035156 C 57.4375 51.015625 57.425781 50.984375 57.425781 50.953125 C 57.429688 50.894531 57.480469 50.84375 57.542969 50.839844 Z M 57.570312 50.808594 "/>
<path style=" stroke:none;fill-rule:nonzero;fill:rgb(96.470588%,66.666667%,9.019608%);fill-opacity:1;" d="M 58.285156 50.332031 L 58.285156 51.773438 C 58.285156 51.871094 58.246094 51.960938 58.171875 52.023438 C 58.105469 52.09375 58.011719 52.128906 57.917969 52.128906 L 57.851562 52.128906 L 57.851562 51.96875 L 57.917969 51.96875 C 57.976562 51.96875 58.027344 51.945312 58.066406 51.90625 C 58.105469 51.871094 58.128906 51.816406 58.128906 51.761719 L 58.128906 50.332031 Z M 58.285156 50.332031 "/>
<path style=" stroke:none;fill-rule:nonzero;fill:rgb(96.470588%,66.666667%,9.019608%);fill-opacity:1;" d="M 61.746094 51.199219 C 61.847656 51.1875 61.953125 51.199219 62.046875 51.230469 C 62.101562 51.25 62.148438 51.28125 62.191406 51.316406 C 62.230469 51.347656 62.261719 51.378906 62.289062 51.421875 C 62.347656 51.503906 62.375 51.605469 62.371094 51.707031 C 62.363281 51.808594 62.320312 51.90625 62.246094 51.980469 L 62.527344 51.980469 L 62.527344 52.128906 L 60.433594 52.128906 C 60.335938 52.132812 60.246094 52.09375 60.179688 52.023438 C 60.113281 51.957031 60.074219 51.871094 60.074219 51.773438 L 60.226562 51.773438 C 60.226562 51.828125 60.246094 51.882812 60.289062 51.921875 C 60.328125 51.964844 60.378906 51.984375 60.433594 51.980469 L 61.394531 51.980469 C 61.324219 51.90625 61.285156 51.816406 61.277344 51.710938 C 61.269531 51.609375 61.296875 51.503906 61.359375 51.421875 C 61.386719 51.378906 61.417969 51.339844 61.457031 51.3125 C 61.539062 51.242188 61.640625 51.207031 61.746094 51.199219 Z M 61.832031 51.347656 L 61.789062 51.347656 C 61.695312 51.34375 61.597656 51.375 61.523438 51.4375 C 61.457031 51.496094 61.417969 51.578125 61.414062 51.664062 C 61.40625 51.746094 61.4375 51.832031 61.5 51.890625 C 61.582031 51.957031 61.683594 51.988281 61.789062 51.980469 L 61.832031 51.980469 C 61.9375 51.988281 62.042969 51.957031 62.125 51.890625 C 62.1875 51.832031 62.222656 51.75 62.21875 51.664062 C 62.210938 51.574219 62.167969 51.492188 62.097656 51.4375 C 62.027344 51.382812 61.941406 51.355469 61.851562 51.359375 Z M 61.832031 50.789062 C 61.863281 50.789062 61.890625 50.800781 61.914062 50.820312 C 61.933594 50.839844 61.945312 50.871094 61.945312 50.898438 C 61.945312 50.929688 61.929688 50.960938 61.910156 50.980469 C 61.890625 51.003906 61.863281 51.015625 61.832031 51.011719 C 61.800781 51.015625 61.773438 51.003906 61.753906 50.980469 C 61.730469 50.960938 61.714844 50.929688 61.714844 50.898438 C 61.714844 50.867188 61.730469 50.839844 61.753906 50.820312 C 61.777344 50.800781 61.808594 50.789062 61.839844 50.789062 Z M 61.832031 50.789062 "/>
<path style=" stroke:none;fill-rule:nonzero;fill:rgb(96.470588%,66.666667%,9.019608%);fill-opacity:1;" d="M 63.148438 51.207031 L 63.191406 51.207031 C 63.371094 51.195312 63.542969 51.277344 63.644531 51.425781 L 63.4375 51.425781 C 63.367188 51.375 63.28125 51.347656 63.191406 51.351562 L 63.148438 51.351562 C 63.050781 51.347656 62.957031 51.382812 62.882812 51.449219 C 62.816406 51.503906 62.777344 51.582031 62.773438 51.664062 C 62.765625 51.746094 62.796875 51.828125 62.859375 51.882812 C 62.9375 51.949219 63.042969 51.988281 63.148438 51.980469 L 63.800781 51.980469 L 63.800781 52.128906 L 62.464844 52.128906 L 62.464844 51.96875 L 62.742188 51.96875 C 62.679688 51.90625 62.640625 51.824219 62.628906 51.738281 C 62.617188 51.648438 62.628906 51.5625 62.664062 51.480469 C 62.703125 51.398438 62.761719 51.328125 62.839844 51.28125 C 62.933594 51.226562 63.042969 51.203125 63.148438 51.207031 Z M 63.148438 50.789062 C 63.175781 50.789062 63.203125 50.800781 63.222656 50.820312 C 63.246094 50.839844 63.257812 50.867188 63.257812 50.898438 C 63.257812 50.929688 63.246094 50.960938 63.222656 50.980469 C 63.207031 51.003906 63.175781 51.015625 63.148438 51.011719 C 63.121094 51.015625 63.089844 51.003906 63.070312 50.980469 C 63.042969 50.960938 63.03125 50.929688 63.03125 50.898438 C 63.03125 50.867188 63.042969 50.839844 63.070312 50.820312 C 63.09375 50.800781 63.121094 50.789062 63.15625 50.789062 Z M 63.148438 50.789062 "/>
<path style=" stroke:none;fill-rule:nonzero;fill:rgb(96.470588%,66.666667%,9.019608%);fill-opacity:1;" d="M 65.730469 51.199219 L 65.730469 51.773438 C 65.730469 51.828125 65.75 51.882812 65.785156 51.921875 C 65.824219 51.957031 65.878906 51.980469 65.933594 51.980469 L 66 51.980469 L 66 52.128906 L 65.933594 52.128906 C 65.835938 52.128906 65.75 52.09375 65.679688 52.023438 C 65.660156 52.003906 65.640625 51.976562 65.625 51.949219 L 65.585938 51.992188 C 65.503906 52.085938 65.378906 52.136719 65.253906 52.128906 C 65.09375 52.136719 64.941406 52.054688 64.859375 51.921875 C 64.777344 52.054688 64.625 52.136719 64.464844 52.128906 C 64.335938 52.132812 64.21875 52.082031 64.128906 51.992188 L 64.09375 51.96875 C 64.078125 51.996094 64.058594 52.023438 64.039062 52.042969 C 63.972656 52.109375 63.878906 52.148438 63.785156 52.148438 L 63.722656 52.148438 L 63.722656 51.96875 L 63.785156 51.96875 C 63.839844 51.96875 63.894531 51.949219 63.933594 51.90625 C 63.972656 51.871094 63.996094 51.816406 63.996094 51.761719 L 63.996094 51.480469 L 64.148438 51.480469 L 64.148438 51.707031 C 64.15625 51.777344 64.1875 51.839844 64.234375 51.890625 C 64.296875 51.949219 64.378906 51.980469 64.464844 51.980469 C 64.550781 51.984375 64.632812 51.949219 64.691406 51.890625 C 64.753906 51.832031 64.785156 51.746094 64.785156 51.664062 L 64.785156 51.324219 L 64.933594 51.324219 L 64.933594 51.664062 C 64.929688 51.75 64.964844 51.832031 65.023438 51.890625 C 65.085938 51.949219 65.167969 51.980469 65.253906 51.980469 C 65.339844 51.984375 65.421875 51.949219 65.484375 51.890625 C 65.542969 51.832031 65.578125 51.75 65.574219 51.664062 L 65.574219 51.199219 Z M 64.710938 50.820312 C 64.773438 50.824219 64.824219 50.875 64.828125 50.9375 C 64.828125 50.96875 64.816406 50.996094 64.789062 51.015625 C 64.765625 51.027344 64.734375 51.027344 64.710938 51.015625 C 64.683594 51.027344 64.65625 51.027344 64.632812 51.015625 C 64.621094 50.992188 64.621094 50.960938 64.632812 50.9375 C 64.621094 50.910156 64.621094 50.882812 64.632812 50.855469 C 64.652344 50.835938 64.679688 50.820312 64.710938 50.820312 Z M 64.859375 50.558594 C 64.886719 50.550781 64.917969 50.550781 64.945312 50.558594 C 64.953125 50.582031 64.953125 50.609375 64.945312 50.636719 C 64.949219 50.667969 64.9375 50.703125 64.917969 50.722656 C 64.890625 50.746094 64.859375 50.757812 64.828125 50.753906 C 64.804688 50.761719 64.777344 50.761719 64.753906 50.753906 C 64.730469 50.730469 64.714844 50.699219 64.714844 50.667969 C 64.71875 50.636719 64.730469 50.609375 64.753906 50.585938 C 64.773438 50.566406 64.804688 50.554688 64.835938 50.558594 Z M 65.023438 50.820312 C 65.058594 50.820312 65.089844 50.832031 65.113281 50.855469 C 65.121094 50.882812 65.121094 50.910156 65.113281 50.9375 C 65.121094 50.960938 65.121094 50.992188 65.113281 51.015625 C 65.085938 51.027344 65.054688 51.027344 65.023438 51.015625 C 65 51.027344 64.972656 51.027344 64.945312 51.015625 C 64.925781 50.992188 64.917969 50.96875 64.914062 50.9375 C 64.914062 50.90625 64.925781 50.878906 64.945312 50.855469 C 64.96875 50.835938 64.996094 50.820312 65.023438 50.820312 Z M 65.023438 50.820312 "/>
<path style=" stroke:none;fill-rule:nonzero;fill:rgb(96.470588%,66.666667%,9.019608%);fill-opacity:1;" d="M 66.355469 50.332031 L 66.355469 51.773438 C 66.355469 51.871094 66.316406 51.960938 66.242188 52.023438 C 66.175781 52.09375 66.082031 52.128906 65.988281 52.128906 L 65.921875 52.128906 L 65.921875 51.96875 L 65.988281 51.96875 C 66.046875 51.96875 66.097656 51.945312 66.136719 51.90625 C 66.179688 51.871094 66.199219 51.816406 66.199219 51.761719 L 66.199219 50.332031 Z M 66.355469 50.332031 "/>
<path style=" stroke:none;fill-rule:nonzero;fill:rgb(96.470588%,66.666667%,9.019608%);fill-opacity:1;" d="M 66.863281 52.128906 L 66.71875 52.128906 L 66.71875 50.332031 L 66.863281 50.332031 Z M 66.863281 52.128906 "/>
<path style=" stroke:none;fill-rule:nonzero;fill:rgb(96.470588%,66.666667%,9.019608%);fill-opacity:1;" d="M 68.816406 50.332031 L 68.816406 51.96875 L 69.023438 51.96875 L 69.023438 52.117188 L 68.636719 52.117188 L 68.636719 50.332031 Z M 68.816406 50.332031 "/>
<path style=" stroke:none;fill-rule:nonzero;fill:rgb(96.470588%,66.666667%,9.019608%);fill-opacity:1;" d="M 69.402344 51.1875 L 69.402344 51.796875 C 69.398438 51.855469 69.425781 51.914062 69.464844 51.949219 C 69.503906 51.988281 69.558594 52.011719 69.613281 52.011719 L 69.683594 52.011719 L 69.683594 52.160156 L 69.613281 52.160156 C 69.515625 52.160156 69.421875 52.125 69.355469 52.054688 C 69.285156 52.121094 69.195312 52.160156 69.101562 52.160156 L 69.035156 52.160156 L 69.035156 51.96875 L 69.101562 51.96875 C 69.15625 51.96875 69.210938 51.945312 69.25 51.90625 C 69.292969 51.871094 69.3125 51.8125 69.3125 51.753906 L 69.3125 51.144531 Z M 69.316406 50.808594 C 69.347656 50.808594 69.378906 50.820312 69.398438 50.84375 C 69.410156 50.867188 69.410156 50.898438 69.398438 50.925781 C 69.40625 50.949219 69.40625 50.980469 69.398438 51.003906 C 69.371094 51.011719 69.34375 51.011719 69.316406 51.003906 C 69.292969 51.011719 69.261719 51.011719 69.234375 51.003906 C 69.226562 50.980469 69.226562 50.949219 69.234375 50.925781 C 69.222656 50.898438 69.222656 50.867188 69.234375 50.84375 C 69.257812 50.820312 69.285156 50.808594 69.316406 50.808594 Z M 69.316406 50.808594 "/>
<path style=" stroke:none;fill-rule:nonzero;fill:rgb(96.470588%,66.666667%,9.019608%);fill-opacity:1;" d="M 70.027344 50.332031 L 70.027344 51.773438 C 70.027344 51.871094 69.992188 51.957031 69.921875 52.023438 C 69.855469 52.089844 69.765625 52.128906 69.667969 52.128906 L 69.601562 52.128906 L 69.601562 51.96875 L 69.667969 51.96875 C 69.785156 51.96875 69.871094 51.875 69.871094 51.761719 L 69.871094 50.332031 Z M 70.027344 50.332031 "/>
<path style=" stroke:none;fill-rule:nonzero;fill:rgb(100%,100%,100%);fill-opacity:1;" d="M 45.75 47.433594 C 45.75 46.738281 45.519531 46.316406 45.074219 46.171875 L 44.941406 46.128906 L 45.074219 46.082031 C 45.570312 45.902344 45.890625 45.417969 45.855469 44.894531 C 45.855469 44.054688 45.238281 43.527344 44.171875 43.527344 L 41.988281 43.527344 L 41.988281 48.636719 L 42.859375 48.636719 L 42.859375 46.46875 L 43.777344 46.46875 C 44.710938 46.46875 44.878906 46.792969 44.878906 47.433594 L 44.878906 47.527344 C 44.855469 47.894531 44.882812 48.261719 44.964844 48.625 L 45.804688 48.625 C 45.753906 48.324219 45.734375 48.019531 45.75 47.714844 Z M 43.9375 45.792969 L 42.871094 45.792969 L 42.871094 44.21875 L 43.984375 44.21875 C 44.601562 44.21875 44.953125 44.492188 44.953125 45 C 44.953125 45.507812 44.621094 45.792969 43.9375 45.792969 Z M 43.9375 45.792969 "/>
<path style=" stroke:none;fill-rule:nonzero;fill:rgb(100%,100%,100%);fill-opacity:1;" d="M 48.539062 43.519531 C 47.859375 43.503906 47.210938 43.773438 46.746094 44.261719 C 46.28125 44.753906 46.046875 45.414062 46.109375 46.082031 C 46.109375 47.636719 47.039062 48.636719 48.472656 48.636719 C 50.148438 48.636719 50.90625 47.347656 50.90625 46.0625 C 50.90625 44.515625 49.980469 43.519531 48.539062 43.519531 Z M 48.539062 47.960938 C 47.621094 47.960938 47.035156 47.210938 47.035156 46.054688 C 47.035156 44.902344 47.589844 44.222656 48.527344 44.222656 C 49.464844 44.222656 50.035156 44.917969 50.035156 46.054688 C 50.035156 47.195312 49.445312 47.960938 48.515625 47.960938 Z M 48.539062 47.960938 "/>
<path style=" stroke:none;fill-rule:nonzero;fill:rgb(100%,100%,100%);fill-opacity:1;" d="M 54.695312 43.527344 L 54.695312 46.585938 C 54.695312 47.539062 54.304688 47.996094 53.503906 47.996094 C 53.054688 47.996094 52.269531 47.8125 52.269531 46.585938 L 52.269531 43.527344 L 51.417969 43.527344 L 51.417969 46.535156 C 51.417969 47.929688 52.113281 48.636719 53.492188 48.636719 C 54.867188 48.636719 55.574219 47.941406 55.574219 46.503906 L 55.574219 43.527344 Z M 54.695312 43.527344 "/>
<path style=" stroke:none;fill-rule:nonzero;fill:rgb(100%,100%,100%);fill-opacity:1;" d="M 58.375 43.519531 L 56.308594 43.519531 L 56.308594 48.636719 L 57.195312 48.636719 L 57.195312 46.621094 L 58.339844 46.621094 C 59.214844 46.621094 60.148438 46.210938 60.148438 45.054688 C 60.148438 44.125 59.449219 43.519531 58.375 43.519531 Z M 58.234375 45.933594 L 57.195312 45.933594 L 57.195312 44.210938 L 58.257812 44.210938 C 58.875 44.210938 59.246094 44.527344 59.246094 45.074219 C 59.246094 45.617188 58.890625 45.933594 58.234375 45.933594 Z M 58.234375 45.933594 "/>
<path style=" stroke:none;fill-rule:nonzero;fill:rgb(100%,100%,100%);fill-opacity:1;" d="M 61.394531 47.867188 L 61.394531 46.289062 L 63.90625 46.289062 L 63.90625 45.585938 L 61.394531 45.585938 L 61.394531 44.230469 L 64.027344 44.230469 L 64.027344 43.527344 L 60.546875 43.527344 L 60.546875 48.5625 L 64.054688 48.5625 L 64.152344 47.867188 Z M 61.394531 47.867188 "/>
<path style=" stroke:none;fill-rule:nonzero;fill:rgb(100%,100%,100%);fill-opacity:1;" d="M 65.453125 42.394531 L 65.453125 43.277344 L 68.617188 43.277344 L 68.546875 43.367188 C 67.402344 44.925781 66.613281 46.707031 66.234375 48.59375 L 67.304688 48.59375 C 67.679688 46.660156 68.464844 44.832031 69.621094 43.226562 L 69.621094 42.394531 Z M 65.453125 42.394531 "/>
<path style=" stroke:none;fill-rule:nonzero;fill:rgb(100%,100%,100%);fill-opacity:1;" d="M 70.125 48.515625 C 70.125 48.585938 70.066406 48.644531 69.996094 48.644531 C 69.921875 48.644531 69.867188 48.585938 69.867188 48.515625 C 69.867188 48.445312 69.921875 48.386719 69.996094 48.386719 C 70.066406 48.386719 70.125 48.445312 70.125 48.515625 Z M 70.125 48.515625 "/>
</g>
</svg>
