<?xml version="1.0" encoding="UTF-8"?>
<svg xmlns="http://www.w3.org/2000/svg" xmlns:xlink="http://www.w3.org/1999/xlink" width="133pt" height="147pt" viewBox="0 0 133 147" version="1.1">
<g id="surface1">
<path style=" stroke:none;fill-rule:nonzero;fill:#FFFFFF;fill-opacity:1;" d="M 47.449219 77.769531 C 47.191406 85.613281 41.316406 92.128906 33.539062 93.191406 C 25.761719 94.253906 18.355469 89.558594 16 82.070312 C 15.8125 81.464844 15.660156 80.851562 15.550781 80.230469 C 15.105469 77.71875 15.253906 75.144531 15.980469 72.699219 C 17.503906 67.429688 21.585938 63.289062 26.832031 61.6875 C 32.078125 60.089844 37.777344 61.246094 41.980469 64.769531 C 42.519531 65.191406 42.980469 65.609375 43.550781 66.070312 C 44.121094 66.53125 44.601562 67.070312 45.089844 67.589844 C 43.804688 66.628906 42.421875 65.8125 40.960938 65.148438 C 38.875 64.3125 36.664062 63.839844 34.421875 63.761719 C 30.777344 63.773438 27.25 65.03125 24.421875 67.320312 C 24.230469 67.460938 24.058594 67.601562 23.890625 67.75 C 23.480469 68.109375 23.101562 68.511719 22.730469 68.898438 L 22.660156 68.96875 C 18.257812 73.609375 18.203125 80.863281 22.53125 85.570312 C 23.085938 86.175781 23.703125 86.722656 24.371094 87.199219 C 25.660156 88.148438 27.132812 88.828125 28.691406 89.199219 C 32.488281 90.476562 36.675781 89.640625 39.691406 87 C 40.199219 86.585938 40.644531 86.101562 41.019531 85.558594 C 40.488281 86.027344 39.925781 86.457031 39.328125 86.839844 C 39.039062 87.03125 38.738281 87.199219 38.441406 87.359375 C 34.035156 89.746094 28.640625 89.316406 24.671875 86.261719 C 24.429688 86.070312 24.441406 85.941406 24.589844 85.71875 C 24.714844 85.472656 24.851562 85.234375 25 85 C 26.132812 83.699219 27.621094 82.753906 29.28125 82.28125 C 30.515625 81.945312 31.789062 81.773438 33.070312 81.769531 C 34.980469 81.671875 36.898438 81.640625 38.808594 81.480469 L 39.019531 81.480469 C 39.917969 81.460938 40.808594 81.339844 41.679688 81.121094 C 42.292969 81.011719 42.898438 80.855469 43.488281 80.660156 C 45.125 80.234375 46.546875 79.226562 47.488281 77.828125 Z M 47.449219 77.769531 "/>
<path style=" stroke:none;fill-rule:nonzero;fill:rgb(96.470588%,66.666667%,9.019608%);fill-opacity:1;" d="M 28.441406 70 L 28.441406 81.070312 C 28.738281 80.949219 29.050781 80.839844 29.371094 80.738281 C 30.484375 80.433594 31.632812 80.273438 32.789062 80.269531 L 34.210938 80.210938 L 34.210938 67 Z M 33.191406 75.441406 L 29.519531 77.300781 L 29.519531 76.410156 L 33.191406 74.550781 Z M 33.191406 72.699219 L 29.519531 74.558594 L 29.519531 73.671875 L 33.191406 71.808594 Z M 33.191406 70.121094 L 29.519531 72 L 29.519531 71.109375 L 33.191406 69.25 Z M 33.191406 70.121094 "/>
<path style=" stroke:none;fill-rule:nonzero;fill:#FFFFFF;fill-opacity:1;" d="M 34.941406 67 L 34.941406 80.179688 C 35.871094 80.179688 36.820312 80.101562 37.738281 80.019531 L 38 80.019531 C 38.734375 80.007812 39.46875 79.910156 40.179688 79.730469 L 40.710938 79.621094 L 40.710938 70 Z M 39.839844 77.429688 L 36.171875 75.601562 L 36.171875 74.71875 L 39.839844 76.578125 Z M 39.839844 74.691406 L 36.171875 72.828125 L 36.171875 72 L 39.839844 73.859375 Z M 39.839844 72.109375 L 36.171875 70.238281 L 36.171875 69.398438 L 39.839844 71.261719 Z M 39.839844 72.109375 "/>
<path style=" stroke:none;fill-rule:nonzero;fill:#FFFFFF;fill-opacity:1;" d="M 112.71875 76.730469 C 112.644531 76.605469 112.535156 76.507812 112.398438 76.449219 C 112.25 76.371094 112.078125 76.335938 111.910156 76.339844 C 111.753906 76.335938 111.605469 76.386719 111.480469 76.480469 C 111.359375 76.578125 111.289062 76.722656 111.289062 76.878906 C 111.285156 77.023438 111.335938 77.164062 111.429688 77.269531 C 111.523438 77.359375 111.636719 77.425781 111.761719 77.460938 L 112.199219 77.589844 L 112.628906 77.75 C 112.773438 77.796875 112.902344 77.882812 113 78 C 113.09375 78.144531 113.144531 78.316406 113.140625 78.488281 C 113.144531 78.664062 113.105469 78.835938 113.03125 78.988281 C 112.964844 79.117188 112.867188 79.226562 112.75 79.308594 C 112.515625 79.460938 112.238281 79.539062 111.960938 79.53125 C 111.703125 79.539062 111.445312 79.492188 111.210938 79.390625 C 111 79.289062 110.898438 79.179688 110.898438 79.039062 C 110.898438 78.953125 110.949219 78.875 111.03125 78.839844 L 111.160156 78.761719 C 111.242188 78.902344 111.367188 79.015625 111.519531 79.078125 C 111.6875 79.160156 111.875 79.199219 112.058594 79.199219 C 112.234375 79.203125 112.40625 79.152344 112.550781 79.050781 C 112.6875 78.949219 112.765625 78.78125 112.761719 78.609375 C 112.769531 78.449219 112.699219 78.296875 112.570312 78.199219 C 112.4375 78.09375 112.285156 78.019531 112.121094 77.980469 L 111.589844 77.820312 C 111.417969 77.757812 111.261719 77.65625 111.140625 77.519531 C 111.015625 77.359375 110.949219 77.164062 110.960938 76.960938 C 110.941406 76.675781 111.0625 76.402344 111.28125 76.21875 C 111.492188 76.074219 111.742188 75.996094 112 76 C 112.230469 75.996094 112.457031 76.039062 112.671875 76.128906 C 112.871094 76.210938 112.980469 76.328125 112.980469 76.46875 C 112.980469 76.609375 112.921875 76.699219 112.71875 76.730469 Z M 112.71875 76.730469 "/>
<path style=" stroke:none;fill-rule:nonzero;fill:#FFFFFF;fill-opacity:1;" d="M 113.730469 79.238281 L 113.730469 77.238281 C 113.734375 76.835938 113.714844 76.433594 113.671875 76.03125 C 113.925781 75.988281 114.183594 75.96875 114.441406 75.96875 C 115.378906 75.96875 115.851562 76.320312 115.851562 76.96875 C 115.863281 77.226562 115.777344 77.476562 115.609375 77.671875 C 115.445312 77.847656 115.226562 77.964844 114.988281 78 C 114.988281 78 114.988281 78.070312 115.078125 78.199219 L 115.199219 78.449219 L 115.308594 78.648438 C 115.367188 78.78125 115.445312 78.902344 115.539062 79.011719 C 115.625 79.105469 115.75 79.160156 115.878906 79.160156 L 116 79.160156 C 116.011719 79.210938 116.011719 79.265625 116 79.320312 C 116 79.449219 115.871094 79.511719 115.609375 79.511719 C 115.453125 79.503906 115.308594 79.429688 115.210938 79.308594 C 115.148438 79.242188 115.09375 79.171875 115.039062 79.101562 C 114.972656 79.011719 114.910156 78.917969 114.859375 78.820312 L 114.71875 78.550781 C 114.71875 78.550781 114.648438 78.398438 114.578125 78.261719 L 114.460938 78.011719 C 114.371094 78.011719 114.320312 78.011719 114.320312 77.890625 C 114.316406 77.84375 114.316406 77.796875 114.320312 77.75 L 114.570312 77.75 C 114.773438 77.761719 114.976562 77.683594 115.121094 77.539062 C 115.261719 77.375 115.332031 77.164062 115.320312 76.949219 C 115.335938 76.742188 115.257812 76.539062 115.101562 76.398438 C 114.898438 76.273438 114.660156 76.214844 114.421875 76.230469 L 114.011719 76.230469 C 114.011719 76.429688 114.011719 76.789062 114.011719 77.300781 L 114.011719 78.300781 C 114 78.636719 114.03125 78.972656 114.101562 79.300781 C 114.019531 79.3125 113.941406 79.3125 113.859375 79.300781 C 113.785156 79.308594 113.714844 79.28125 113.660156 79.230469 C 113.683594 79.230469 113.707031 79.234375 113.730469 79.238281 Z M 113.730469 79.238281 "/>
<path style=" stroke:none;fill-rule:nonzero;fill:#FFFFFF;fill-opacity:1;" d="M 66 74.621094 C 66.0625 77.203125 64.175781 79.417969 61.617188 79.773438 C 59.058594 80.125 56.640625 78.503906 56 76 C 55.941406 75.808594 55.898438 75.609375 55.859375 75.421875 C 55.808594 75.121094 55.78125 74.816406 55.78125 74.511719 C 55.777344 74 55.851562 73.488281 56 73 C 56.089844 72.691406 56.210938 72.394531 56.359375 72.109375 C 57.226562 70.394531 58.988281 69.3125 60.910156 69.308594 C 62.105469 69.300781 63.269531 69.722656 64.179688 70.5 C 64.351562 70.628906 64.511719 70.761719 64.679688 70.910156 C 64.851562 71.058594 65.011719 71.21875 65.160156 71.390625 C 64.757812 71.082031 64.324219 70.824219 63.859375 70.621094 C 63.203125 70.351562 62.507812 70.203125 61.800781 70.179688 C 60.644531 70.175781 59.527344 70.570312 58.628906 71.300781 L 58.460938 71.441406 C 58.332031 71.550781 58.210938 71.671875 58.101562 71.800781 C 56.714844 73.269531 56.714844 75.5625 58.101562 77.03125 C 58.273438 77.222656 58.46875 77.398438 58.679688 77.550781 C 59.089844 77.839844 59.550781 78.050781 60.039062 78.171875 C 61.234375 78.566406 62.546875 78.300781 63.488281 77.46875 C 63.648438 77.339844 63.792969 77.1875 63.910156 77.019531 C 63.746094 77.167969 63.566406 77.300781 63.378906 77.421875 L 63.101562 77.589844 C 61.710938 78.339844 60.011719 78.203125 58.761719 77.238281 C 58.679688 77.179688 58.679688 77.140625 58.761719 77.070312 L 58.941406 76.839844 C 59.28125 76.445312 59.722656 76.15625 60.21875 76 C 60.609375 75.898438 61.007812 75.84375 61.410156 75.839844 C 62.011719 75.839844 62.621094 75.839844 63.21875 75.75 L 63.289062 75.75 C 63.574219 75.746094 63.855469 75.710938 64.128906 75.640625 C 64.320312 75.640625 64.511719 75.558594 64.699219 75.5 C 65.210938 75.355469 65.652344 75.039062 65.949219 74.601562 Z M 66 74.621094 "/>
<path style=" stroke:none;fill-rule:nonzero;fill:rgb(96.470588%,66.666667%,9.019608%);fill-opacity:1;" d="M 60.390625 71.941406 L 60.390625 75.539062 L 60.691406 75.429688 C 61.054688 75.335938 61.425781 75.285156 61.800781 75.28125 L 62.269531 75.28125 L 62.269531 71 Z M 61.929688 73.710938 L 60.738281 74.308594 L 60.738281 74 L 61.929688 73.398438 Z M 61.929688 72.820312 L 60.738281 73.421875 L 60.738281 73.128906 L 61.929688 72.53125 Z M 61.929688 71.980469 L 60.738281 72.578125 L 60.738281 72.289062 L 61.929688 71.691406 Z M 61.929688 71.980469 "/>
<path style=" stroke:none;fill-rule:nonzero;fill:#FFFFFF;fill-opacity:1;" d="M 62.5 71 L 62.5 75.269531 C 62.808594 75.269531 63.109375 75.269531 63.410156 75.269531 L 63.488281 75.269531 C 63.730469 75.261719 63.96875 75.226562 64.199219 75.171875 L 64.371094 75.171875 L 64.371094 71.941406 Z M 64.101562 74.390625 L 62.898438 73.789062 L 62.898438 73.5 L 64.101562 74.101562 Z M 64.101562 73.5 L 62.898438 72.898438 L 62.898438 72.609375 L 64.101562 73.210938 Z M 64.101562 72.660156 L 62.898438 72 L 62.898438 71.710938 L 64.101562 72.308594 Z M 64.101562 72.660156 "/>
<path style=" stroke:none;fill-rule:nonzero;fill:rgb(96.470588%,66.666667%,9.019608%);fill-opacity:1;" d="M 59.699219 83.769531 C 59.898438 83.773438 60.089844 83.851562 60.230469 83.988281 C 60.367188 84.132812 60.445312 84.324219 60.441406 84.519531 L 60.441406 85 L 60.699219 85 L 60.699219 85.238281 L 59.699219 85.238281 C 59.511719 85.242188 59.328125 85.171875 59.191406 85.039062 C 59.160156 85.28125 59.042969 85.5 58.859375 85.660156 C 58.8125 85.707031 58.757812 85.746094 58.699219 85.78125 L 58.460938 85.648438 C 58.542969 85.609375 58.617188 85.554688 58.679688 85.488281 C 58.847656 85.335938 58.945312 85.117188 58.949219 84.890625 L 58.949219 84.5 C 58.949219 84.300781 59.03125 84.109375 59.171875 83.96875 C 59.316406 83.839844 59.503906 83.765625 59.699219 83.769531 Z M 59.699219 84.011719 C 59.566406 84.007812 59.441406 84.0625 59.351562 84.160156 C 59.253906 84.253906 59.199219 84.382812 59.199219 84.519531 C 59.195312 84.652344 59.246094 84.777344 59.339844 84.871094 C 59.429688 84.972656 59.566406 85.023438 59.699219 85.011719 L 60.199219 85.011719 L 60.199219 84.519531 C 60.203125 84.382812 60.148438 84.253906 60.050781 84.160156 C 59.964844 84.058594 59.835938 84 59.699219 84 Z M 59.699219 84.011719 "/>
<path style=" stroke:none;fill-rule:nonzero;fill:rgb(96.470588%,66.666667%,9.019608%);fill-opacity:1;" d="M 62.679688 82.539062 L 61.449219 83.46875 L 63.449219 83.46875 C 63.6875 83.46875 63.914062 83.5625 64.078125 83.730469 C 64.242188 83.898438 64.335938 84.125 64.328125 84.359375 C 64.335938 84.609375 64.234375 84.851562 64.050781 85.019531 L 64.589844 85.019531 L 64.589844 85.261719 L 60.589844 85.261719 L 60.589844 85 L 63.488281 85 C 63.660156 85 63.824219 84.925781 63.941406 84.800781 C 64.0625 84.679688 64.132812 84.511719 64.128906 84.339844 C 64.132812 84.167969 64.066406 84 63.941406 83.878906 C 63.820312 83.761719 63.660156 83.691406 63.488281 83.691406 L 61 83.691406 L 61 83.449219 L 62.640625 82.289062 Z M 62.679688 82.539062 "/>
<path style=" stroke:none;fill-rule:nonzero;fill:rgb(96.470588%,66.666667%,9.019608%);fill-opacity:1;" d="M 65.179688 82.320312 L 65.179688 84.679688 C 65.183594 84.835938 65.117188 84.984375 65 85.089844 C 64.890625 85.199219 64.742188 85.261719 64.589844 85.261719 L 64.480469 85.261719 L 64.480469 85 L 64.589844 85 C 64.679688 84.996094 64.765625 84.960938 64.828125 84.898438 C 64.894531 84.835938 64.929688 84.75 64.929688 84.660156 L 64.929688 82.320312 Z M 65.179688 82.320312 "/>
<path style=" stroke:none;fill-rule:nonzero;fill:rgb(96.470588%,66.666667%,9.019608%);fill-opacity:1;" d="M 66 82.320312 L 66 85 L 66.328125 85 L 66.328125 85.238281 L 65.710938 85.238281 L 65.710938 82.320312 Z M 66 82.320312 "/>
<path style=" stroke:none;fill-rule:nonzero;fill:rgb(96.470588%,66.666667%,9.019608%);fill-opacity:1;" d="M 68.300781 85 L 68.300781 85.238281 L 67.300781 85.238281 C 67.125 85.242188 66.953125 85.175781 66.820312 85.058594 L 66.820312 85.261719 L 66.308594 85.261719 L 66.308594 85 L 66.769531 85 C 66.667969 84.894531 66.605469 84.761719 66.578125 84.621094 C 66.523438 84.328125 66.640625 84.035156 66.878906 83.859375 C 67.007812 83.761719 67.167969 83.710938 67.328125 83.710938 C 67.53125 83.710938 67.726562 83.789062 67.871094 83.929688 C 68.019531 84.070312 68.101562 84.265625 68.101562 84.46875 L 68.101562 85 Z M 67.800781 85 L 67.800781 84.480469 C 67.800781 84.34375 67.746094 84.214844 67.648438 84.121094 C 67.550781 84.023438 67.417969 83.96875 67.28125 83.96875 C 67.140625 83.964844 67.003906 84.019531 66.910156 84.121094 C 66.804688 84.214844 66.746094 84.347656 66.75 84.488281 C 66.746094 84.625 66.800781 84.757812 66.898438 84.851562 C 67 84.945312 67.132812 85 67.269531 85 Z M 67.800781 85 "/>
<path style=" stroke:none;fill-rule:nonzero;fill:rgb(96.470588%,66.666667%,9.019608%);fill-opacity:1;" d="M 69.359375 83.75 C 69.644531 83.738281 69.910156 83.875 70.070312 84.109375 L 69.75 84.109375 C 69.59375 84.007812 69.40625 83.964844 69.21875 83.988281 C 69.039062 84.003906 68.871094 84.09375 68.761719 84.238281 C 68.65625 84.390625 68.65625 84.589844 68.761719 84.738281 C 68.871094 84.9375 69.09375 85.050781 69.320312 85.019531 L 70.109375 85.019531 L 70.109375 85.261719 L 68.210938 85.261719 L 68.210938 85 L 68.660156 85 C 68.53125 84.871094 68.464844 84.691406 68.46875 84.511719 C 68.46875 84.332031 68.53125 84.15625 68.648438 84.019531 C 68.832031 83.820312 69.09375 83.722656 69.359375 83.75 Z M 69.359375 83.75 "/>
<path style=" stroke:none;fill-rule:nonzero;fill:rgb(96.470588%,66.666667%,9.019608%);fill-opacity:1;" d="M 70.929688 82.308594 L 70.929688 82.429688 C 70.886719 82.414062 70.84375 82.414062 70.800781 82.429688 C 70.792969 82.453125 70.792969 82.476562 70.800781 82.5 C 70.800781 82.578125 70.871094 82.628906 71.03125 82.640625 L 71.03125 82.75 L 70.660156 82.75 L 70.660156 82.640625 L 70.71875 82.640625 C 70.667969 82.566406 70.667969 82.472656 70.71875 82.398438 C 70.71875 82.328125 70.789062 82.296875 70.929688 82.308594 Z M 70.929688 85.308594 L 70.691406 85.308594 L 70.691406 82.941406 L 70.929688 82.941406 Z M 70.929688 85.308594 "/>
<path style=" stroke:none;fill-rule:nonzero;fill:rgb(96.470588%,66.666667%,9.019608%);fill-opacity:1;" d="M 75.578125 82.320312 L 75.578125 85 L 75.839844 85 L 75.839844 85.238281 L 75.519531 85.238281 C 75.476562 85.351562 75.40625 85.457031 75.320312 85.539062 C 74.976562 85.875 74.425781 85.875 74.078125 85.539062 C 73.910156 85.375 73.816406 85.148438 73.820312 84.910156 L 73.820312 84.621094 L 74.058594 84.621094 L 74.058594 84.910156 C 74.054688 85.082031 74.125 85.246094 74.25 85.359375 C 74.367188 85.484375 74.53125 85.550781 74.699219 85.550781 C 75.050781 85.542969 75.335938 85.261719 75.339844 84.910156 L 75.339844 82.320312 Z M 75.578125 82.320312 "/>
<path style=" stroke:none;fill-rule:nonzero;fill:rgb(96.470588%,66.666667%,9.019608%);fill-opacity:1;" d="M 77.269531 84 C 77.417969 84.140625 77.5 84.335938 77.5 84.539062 L 77.5 85.308594 L 76.730469 85.308594 C 76.550781 85.308594 76.378906 85.246094 76.238281 85.128906 L 76.238281 85.328125 L 75.730469 85.328125 L 75.730469 85 L 76.191406 85 C 76.097656 84.890625 76.035156 84.761719 76.011719 84.621094 C 75.949219 84.328125 76.070312 84.03125 76.308594 83.859375 C 76.4375 83.761719 76.589844 83.710938 76.75 83.710938 C 76.957031 83.734375 77.140625 83.835938 77.269531 84 Z M 77.269531 85.058594 L 77.269531 84.539062 C 77.273438 84.402344 77.214844 84.269531 77.109375 84.179688 C 76.902344 83.980469 76.574219 83.980469 76.371094 84.179688 C 76.269531 84.277344 76.210938 84.410156 76.210938 84.550781 C 76.210938 84.6875 76.269531 84.816406 76.371094 84.910156 C 76.46875 85.007812 76.601562 85.0625 76.738281 85.058594 Z M 77.269531 85.058594 "/>
<path style=" stroke:none;fill-rule:nonzero;fill:rgb(96.470588%,66.666667%,9.019608%);fill-opacity:1;" d="M 78.339844 82.320312 L 78.339844 85 L 78.660156 85 L 78.660156 85.238281 L 78.039062 85.238281 L 78.039062 82.320312 Z M 78.339844 82.320312 "/>
<path style=" stroke:none;fill-rule:nonzero;fill:rgb(96.470588%,66.666667%,9.019608%);fill-opacity:1;" d="M 80.691406 82.539062 L 79.460938 83.46875 L 81.460938 83.46875 C 81.695312 83.464844 81.925781 83.558594 82.089844 83.730469 C 82.257812 83.898438 82.351562 84.125 82.351562 84.359375 C 82.351562 84.609375 82.246094 84.851562 82.058594 85.019531 L 82.609375 85.019531 L 82.609375 85.261719 L 78.609375 85.261719 L 78.609375 85 L 81.511719 85 C 81.683594 85.003906 81.847656 84.929688 81.960938 84.800781 C 82.082031 84.679688 82.152344 84.511719 82.148438 84.339844 C 82.152344 84.167969 82.089844 84.003906 81.96875 83.878906 C 81.847656 83.757812 81.683594 83.691406 81.511719 83.691406 L 79 83.691406 L 79 83.449219 L 80.699219 82.300781 Z M 80.691406 82.539062 "/>
<path style=" stroke:none;fill-rule:nonzero;fill:rgb(96.470588%,66.666667%,9.019608%);fill-opacity:1;" d="M 83.199219 83.71875 L 83.199219 84.71875 C 83.199219 84.878906 83.136719 85.03125 83.019531 85.140625 C 82.910156 85.25 82.765625 85.3125 82.609375 85.308594 L 82.5 85.308594 L 82.5 85 L 82.609375 85 C 82.699219 84.996094 82.785156 84.960938 82.851562 84.898438 C 82.914062 84.832031 82.949219 84.742188 82.949219 84.648438 L 82.949219 83.648438 Z M 82.820312 85.449219 C 82.871094 85.449219 82.917969 85.472656 82.949219 85.511719 C 82.964844 85.550781 82.964844 85.597656 82.949219 85.640625 C 82.964844 85.683594 82.964844 85.726562 82.949219 85.769531 C 82.910156 85.789062 82.863281 85.789062 82.820312 85.769531 C 82.777344 85.789062 82.730469 85.789062 82.691406 85.769531 C 82.652344 85.738281 82.632812 85.691406 82.628906 85.640625 C 82.640625 85.539062 82.71875 85.460938 82.820312 85.449219 Z M 82.820312 85.449219 "/>
<path style=" stroke:none;fill-rule:nonzero;fill:rgb(96.470588%,66.666667%,9.019608%);fill-opacity:1;" d="M 87.351562 83.769531 C 87.546875 83.769531 87.734375 83.851562 87.871094 83.988281 C 88.015625 84.128906 88.09375 84.320312 88.089844 84.519531 C 88.089844 84.71875 88.015625 84.90625 87.878906 85.050781 C 87.738281 85.1875 87.546875 85.261719 87.351562 85.261719 C 87.160156 85.261719 86.976562 85.191406 86.839844 85.058594 C 86.800781 85.296875 86.683594 85.515625 86.511719 85.679688 L 86.351562 85.800781 L 86.109375 85.671875 C 86.191406 85.632812 86.261719 85.578125 86.320312 85.511719 C 86.496094 85.359375 86.597656 85.140625 86.601562 84.910156 L 86.601562 84.519531 C 86.601562 84.105469 86.9375 83.769531 87.351562 83.769531 Z M 87.351562 84.011719 C 87.21875 84.007812 87.089844 84.0625 87 84.160156 C 86.902344 84.253906 86.847656 84.382812 86.851562 84.519531 C 86.84375 84.652344 86.894531 84.777344 86.988281 84.871094 C 87.085938 84.96875 87.214844 85.023438 87.351562 85.019531 C 87.484375 85.023438 87.609375 84.96875 87.699219 84.871094 C 87.800781 84.78125 87.855469 84.652344 87.851562 84.519531 C 87.851562 84.382812 87.796875 84.253906 87.699219 84.160156 C 87.613281 84.058594 87.484375 84 87.351562 84 Z M 87.351562 84.011719 "/>
<path style=" stroke:none;fill-rule:nonzero;fill:rgb(96.470588%,66.666667%,9.019608%);fill-opacity:1;" d="M 89.441406 83.769531 C 89.652344 83.761719 89.855469 83.847656 90 84 C 90.140625 84.132812 90.21875 84.316406 90.21875 84.511719 L 90.21875 85 L 90.671875 85 L 90.671875 85.238281 L 90.21875 85.238281 C 90.179688 85.320312 90.125 85.394531 90.058594 85.460938 C 89.898438 85.625 89.671875 85.714844 89.441406 85.710938 L 89.289062 85.710938 L 89.289062 85.46875 L 89.441406 85.46875 C 89.613281 85.472656 89.78125 85.40625 89.898438 85.28125 L 89.46875 85.28125 C 89.269531 85.285156 89.078125 85.210938 88.9375 85.070312 C 88.796875 84.929688 88.71875 84.738281 88.71875 84.539062 C 88.714844 84.339844 88.796875 84.148438 88.941406 84.011719 C 89.070312 83.867188 89.25 83.78125 89.441406 83.769531 Z M 89.441406 84.011719 C 89.160156 84.011719 88.929688 84.238281 88.929688 84.519531 C 88.925781 84.652344 88.980469 84.78125 89.078125 84.871094 C 89.171875 84.972656 89.304688 85.027344 89.441406 85.019531 L 89.941406 85.019531 L 89.941406 84.519531 C 89.941406 84.382812 89.886719 84.253906 89.789062 84.160156 C 89.699219 84.0625 89.574219 84.003906 89.441406 84 Z M 89.441406 84.011719 "/>
<path style=" stroke:none;fill-rule:nonzero;fill:rgb(96.470588%,66.666667%,9.019608%);fill-opacity:1;" d="M 91.761719 83.738281 C 91.945312 83.746094 92.121094 83.8125 92.261719 83.929688 C 92.320312 83.980469 92.375 84.035156 92.421875 84.101562 C 92.515625 84.238281 92.554688 84.402344 92.539062 84.570312 C 92.539062 84.738281 92.472656 84.902344 92.351562 85.019531 L 92.800781 85.019531 L 92.800781 85.261719 L 90.5 85.261719 L 90.5 85 L 90.941406 85 C 90.824219 84.878906 90.757812 84.71875 90.75 84.550781 C 90.75 84.382812 90.792969 84.222656 90.878906 84.078125 C 90.921875 84.011719 90.976562 83.949219 91.039062 83.898438 C 91.183594 83.785156 91.359375 83.722656 91.539062 83.71875 Z M 91.679688 83.980469 L 91.609375 83.980469 C 91.449219 83.972656 91.289062 84.03125 91.171875 84.140625 C 91.070312 84.234375 91.011719 84.363281 91 84.5 C 90.984375 84.628906 91.03125 84.761719 91.128906 84.851562 C 91.261719 84.96875 91.433594 85.03125 91.609375 85.019531 L 91.679688 85.019531 C 91.859375 85.027344 92.035156 84.96875 92.171875 84.851562 C 92.265625 84.761719 92.316406 84.628906 92.300781 84.5 C 92.289062 84.363281 92.230469 84.234375 92.128906 84.140625 C 92.003906 84.039062 91.84375 83.988281 91.679688 84 Z M 91.378906 83.121094 C 91.429688 83.121094 91.476562 83.144531 91.511719 83.179688 C 91.550781 83.210938 91.570312 83.257812 91.570312 83.308594 C 91.570312 83.359375 91.546875 83.40625 91.511719 83.441406 C 91.46875 83.457031 91.421875 83.457031 91.378906 83.441406 C 91.339844 83.460938 91.292969 83.460938 91.25 83.441406 C 91.210938 83.40625 91.191406 83.359375 91.191406 83.308594 C 91.199219 83.210938 91.277344 83.128906 91.378906 83.121094 Z M 91.890625 83.121094 C 91.941406 83.121094 91.988281 83.144531 92.019531 83.179688 C 92.058594 83.210938 92.082031 83.257812 92.078125 83.308594 C 92.078125 83.359375 92.058594 83.40625 92.019531 83.441406 C 91.945312 83.507812 91.832031 83.507812 91.761719 83.441406 C 91.722656 83.40625 91.699219 83.359375 91.699219 83.308594 C 91.699219 83.257812 91.71875 83.210938 91.761719 83.179688 C 91.792969 83.144531 91.839844 83.121094 91.890625 83.121094 Z M 91.890625 83.121094 "/>
<path style=" stroke:none;fill-rule:nonzero;fill:rgb(96.470588%,66.666667%,9.019608%);fill-opacity:1;" d="M 93.371094 83.71875 L 93.371094 84.71875 C 93.367188 84.8125 93.402344 84.90625 93.46875 84.96875 C 93.539062 85.035156 93.628906 85.070312 93.71875 85.070312 L 93.820312 85.070312 L 93.820312 85.308594 L 93.71875 85.308594 C 93.5625 85.3125 93.410156 85.253906 93.300781 85.140625 C 93.191406 85.253906 93.039062 85.3125 92.878906 85.308594 L 92.769531 85.308594 L 92.769531 85 L 92.878906 85 C 92.972656 85.003906 93.0625 84.96875 93.128906 84.902344 C 93.195312 84.835938 93.234375 84.742188 93.230469 84.648438 L 93.230469 83.648438 Z M 93.238281 83.101562 C 93.289062 83.101562 93.335938 83.121094 93.371094 83.160156 C 93.386719 83.203125 93.386719 83.25 93.371094 83.289062 C 93.371094 83.339844 93.355469 83.386719 93.320312 83.421875 C 93.285156 83.453125 93.238281 83.472656 93.191406 83.46875 C 93.148438 83.484375 93.101562 83.484375 93.058594 83.46875 C 93.023438 83.4375 93 83.390625 93 83.339844 C 93.007812 83.238281 93.089844 83.160156 93.191406 83.148438 Z M 93.238281 83.101562 "/>
<path style=" stroke:none;fill-rule:nonzero;fill:rgb(96.470588%,66.666667%,9.019608%);fill-opacity:1;" d="M 94.390625 82.320312 L 94.390625 84.679688 C 94.390625 84.835938 94.328125 84.984375 94.210938 85.089844 C 94.101562 85.199219 93.953125 85.261719 93.800781 85.261719 L 93.691406 85.261719 L 93.691406 85 L 93.800781 85 C 93.890625 84.996094 93.976562 84.960938 94.039062 84.898438 C 94.105469 84.835938 94.140625 84.75 94.140625 84.660156 L 94.140625 82.320312 Z M 94.390625 82.320312 "/>
<path style=" stroke:none;fill-rule:nonzero;fill:rgb(96.470588%,66.666667%,9.019608%);fill-opacity:1;" d="M 100 83.738281 C 100.164062 83.71875 100.332031 83.738281 100.488281 83.789062 C 100.574219 83.824219 100.652344 83.871094 100.71875 83.929688 C 100.78125 83.980469 100.835938 84.035156 100.878906 84.101562 C 100.972656 84.238281 101.019531 84.402344 101.011719 84.570312 C 101 84.738281 100.925781 84.898438 100.808594 85.019531 L 101.261719 85.019531 L 101.261719 85.261719 L 97.871094 85.261719 C 97.714844 85.265625 97.566406 85.203125 97.460938 85.089844 C 97.351562 84.980469 97.289062 84.835938 97.289062 84.679688 L 97.539062 84.679688 C 97.535156 84.769531 97.570312 84.859375 97.640625 84.921875 C 97.699219 84.988281 97.78125 85.023438 97.871094 85.019531 L 99.429688 85.019531 C 99.316406 84.898438 99.25 84.746094 99.238281 84.578125 C 99.226562 84.410156 99.273438 84.238281 99.371094 84.101562 C 99.414062 84.03125 99.464844 83.96875 99.53125 83.921875 C 99.664062 83.8125 99.828125 83.75 100 83.738281 Z M 100.140625 83.980469 L 100.070312 83.980469 C 99.914062 83.976562 99.757812 84.027344 99.640625 84.128906 C 99.53125 84.222656 99.46875 84.359375 99.460938 84.5 C 99.445312 84.636719 99.496094 84.777344 99.601562 84.871094 C 99.730469 84.976562 99.898438 85.03125 100.070312 85.019531 L 100.140625 85.019531 C 100.308594 85.03125 100.476562 84.976562 100.609375 84.871094 C 100.714844 84.777344 100.773438 84.640625 100.761719 84.5 C 100.753906 84.355469 100.683594 84.21875 100.570312 84.128906 C 100.457031 84.039062 100.316406 83.996094 100.171875 84 Z M 100.140625 83.070312 C 100.1875 83.066406 100.234375 83.085938 100.269531 83.121094 C 100.304688 83.152344 100.324219 83.203125 100.320312 83.25 C 100.320312 83.300781 100.296875 83.347656 100.261719 83.378906 C 100.230469 83.417969 100.1875 83.4375 100.140625 83.429688 C 100.089844 83.4375 100.042969 83.417969 100.011719 83.378906 C 99.972656 83.347656 99.949219 83.300781 99.949219 83.25 C 99.949219 83.199219 99.972656 83.152344 100.011719 83.121094 C 100.046875 83.085938 100.097656 83.066406 100.148438 83.070312 Z M 100.140625 83.070312 "/>
<path style=" stroke:none;fill-rule:nonzero;fill:rgb(96.470588%,66.666667%,9.019608%);fill-opacity:1;" d="M 102.269531 83.75 L 102.339844 83.75 C 102.628906 83.730469 102.910156 83.867188 103.070312 84.109375 L 102.738281 84.109375 C 102.625 84.027344 102.484375 83.984375 102.339844 83.988281 L 102.269531 83.988281 C 102.109375 83.984375 101.957031 84.039062 101.839844 84.148438 C 101.734375 84.238281 101.667969 84.363281 101.660156 84.5 C 101.648438 84.636719 101.703125 84.765625 101.800781 84.859375 C 101.929688 84.96875 102.097656 85.027344 102.269531 85.019531 L 103.328125 85.019531 L 103.328125 85.261719 L 101.160156 85.261719 L 101.160156 85 L 101.609375 85 C 101.511719 84.894531 101.449219 84.761719 101.429688 84.621094 C 101.410156 84.476562 101.429688 84.332031 101.488281 84.199219 C 101.550781 84.066406 101.644531 83.949219 101.769531 83.871094 C 101.921875 83.785156 102.097656 83.746094 102.269531 83.75 Z M 102.269531 83.070312 C 102.316406 83.070312 102.359375 83.089844 102.390625 83.121094 C 102.429688 83.152344 102.449219 83.199219 102.449219 83.25 C 102.449219 83.300781 102.429688 83.347656 102.390625 83.378906 C 102.363281 83.417969 102.316406 83.4375 102.269531 83.429688 C 102.222656 83.4375 102.171875 83.417969 102.140625 83.378906 C 102.101562 83.347656 102.078125 83.300781 102.078125 83.25 C 102.078125 83.199219 102.101562 83.152344 102.140625 83.121094 C 102.179688 83.085938 102.226562 83.066406 102.28125 83.070312 Z M 102.269531 83.070312 "/>
<path style=" stroke:none;fill-rule:nonzero;fill:rgb(96.470588%,66.666667%,9.019608%);fill-opacity:1;" d="M 106.449219 83.738281 L 106.449219 84.679688 C 106.449219 84.769531 106.480469 84.855469 106.539062 84.921875 C 106.605469 84.980469 106.691406 85.015625 106.78125 85.019531 L 106.890625 85.019531 L 106.890625 85.261719 L 106.78125 85.261719 C 106.625 85.261719 106.480469 85.199219 106.371094 85.089844 C 106.335938 85.054688 106.304688 85.011719 106.28125 84.96875 L 106.21875 85.039062 C 106.082031 85.1875 105.882812 85.269531 105.679688 85.261719 C 105.421875 85.269531 105.175781 85.140625 105.039062 84.921875 C 104.90625 85.140625 104.660156 85.273438 104.398438 85.261719 C 104.195312 85.265625 104 85.183594 103.859375 85.039062 L 103.800781 85 C 103.777344 85.042969 103.746094 85.085938 103.710938 85.121094 C 103.601562 85.230469 103.453125 85.292969 103.300781 85.289062 L 103.199219 85.289062 L 103.199219 85 L 103.300781 85 C 103.390625 85 103.476562 84.964844 103.539062 84.898438 C 103.605469 84.835938 103.640625 84.75 103.640625 84.660156 L 103.640625 84.199219 L 103.890625 84.199219 L 103.890625 84.570312 C 103.902344 84.683594 103.953125 84.789062 104.03125 84.871094 C 104.128906 84.964844 104.261719 85.019531 104.398438 85.019531 C 104.539062 85.023438 104.671875 84.96875 104.769531 84.871094 C 104.867188 84.773438 104.921875 84.636719 104.921875 84.5 L 104.921875 83.941406 L 105.160156 83.941406 L 105.160156 84.5 C 105.15625 84.640625 105.210938 84.773438 105.308594 84.871094 C 105.410156 84.964844 105.542969 85.019531 105.679688 85.019531 C 105.820312 85.023438 105.953125 84.96875 106.050781 84.871094 C 106.148438 84.773438 106.203125 84.640625 106.199219 84.5 L 106.199219 83.738281 Z M 104.800781 83.121094 C 104.902344 83.128906 104.980469 83.210938 104.988281 83.308594 C 104.988281 83.359375 104.96875 83.40625 104.929688 83.441406 C 104.890625 83.460938 104.839844 83.460938 104.800781 83.441406 C 104.757812 83.457031 104.710938 83.457031 104.671875 83.441406 C 104.65625 83.398438 104.65625 83.351562 104.671875 83.308594 C 104.65625 83.269531 104.65625 83.222656 104.671875 83.179688 C 104.703125 83.144531 104.75 83.121094 104.800781 83.121094 Z M 105.039062 82.691406 C 105.085938 82.675781 105.132812 82.675781 105.179688 82.691406 C 105.195312 82.730469 105.195312 82.777344 105.179688 82.820312 C 105.1875 82.871094 105.167969 82.925781 105.132812 82.960938 C 105.09375 83 105.042969 83.015625 104.988281 83.011719 C 104.953125 83.023438 104.910156 83.023438 104.871094 83.011719 C 104.832031 82.972656 104.808594 82.921875 104.808594 82.871094 C 104.8125 82.820312 104.832031 82.773438 104.871094 82.738281 C 104.902344 82.707031 104.953125 82.6875 105 82.691406 Z M 105.308594 83.121094 C 105.363281 83.121094 105.414062 83.140625 105.449219 83.179688 C 105.464844 83.222656 105.464844 83.269531 105.449219 83.308594 C 105.464844 83.351562 105.464844 83.398438 105.449219 83.441406 C 105.40625 83.457031 105.355469 83.457031 105.308594 83.441406 C 105.269531 83.457031 105.222656 83.457031 105.179688 83.441406 C 105.148438 83.402344 105.132812 83.359375 105.128906 83.308594 C 105.128906 83.261719 105.148438 83.214844 105.179688 83.179688 C 105.214844 83.144531 105.261719 83.121094 105.308594 83.121094 Z M 105.308594 83.121094 "/>
<path style=" stroke:none;fill-rule:nonzero;fill:rgb(96.470588%,66.666667%,9.019608%);fill-opacity:1;" d="M 107.460938 82.320312 L 107.460938 84.679688 C 107.460938 84.835938 107.398438 84.984375 107.28125 85.089844 C 107.171875 85.199219 107.023438 85.261719 106.871094 85.261719 L 106.761719 85.261719 L 106.761719 85 L 106.871094 85 C 106.960938 84.996094 107.042969 84.960938 107.109375 84.898438 C 107.175781 84.835938 107.210938 84.75 107.210938 84.660156 L 107.210938 82.320312 Z M 107.460938 82.320312 "/>
<path style=" stroke:none;fill-rule:nonzero;fill:rgb(96.470588%,66.666667%,9.019608%);fill-opacity:1;" d="M 108.289062 85.261719 L 108.050781 85.261719 L 108.050781 82.320312 L 108.289062 82.320312 Z M 108.289062 85.261719 "/>
<path style=" stroke:none;fill-rule:nonzero;fill:rgb(96.470588%,66.666667%,9.019608%);fill-opacity:1;" d="M 111.449219 82.320312 L 111.449219 85 L 111.78125 85 L 111.78125 85.238281 L 111.160156 85.238281 L 111.160156 82.320312 Z M 111.449219 82.320312 "/>
<path style=" stroke:none;fill-rule:nonzero;fill:rgb(96.470588%,66.666667%,9.019608%);fill-opacity:1;" d="M 112.398438 83.71875 L 112.398438 84.71875 C 112.394531 84.8125 112.433594 84.90625 112.5 84.96875 C 112.5625 85.03125 112.648438 85.070312 112.738281 85.070312 L 112.851562 85.070312 L 112.851562 85.308594 L 112.738281 85.308594 C 112.582031 85.3125 112.429688 85.253906 112.320312 85.140625 C 112.210938 85.25 112.0625 85.3125 111.910156 85.308594 L 111.800781 85.308594 L 111.800781 85 L 111.910156 85 C 112 84.996094 112.085938 84.960938 112.148438 84.898438 C 112.21875 84.835938 112.253906 84.742188 112.25 84.648438 L 112.25 83.648438 Z M 112.261719 83.101562 C 112.308594 83.097656 112.359375 83.121094 112.390625 83.160156 C 112.410156 83.199219 112.410156 83.25 112.390625 83.289062 C 112.40625 83.332031 112.40625 83.378906 112.390625 83.421875 C 112.347656 83.433594 112.300781 83.433594 112.261719 83.421875 C 112.21875 83.433594 112.171875 83.433594 112.128906 83.421875 C 112.113281 83.378906 112.113281 83.332031 112.128906 83.289062 C 112.109375 83.25 112.109375 83.199219 112.128906 83.160156 C 112.164062 83.121094 112.210938 83.101562 112.261719 83.101562 Z M 112.261719 83.101562 "/>
<path style=" stroke:none;fill-rule:nonzero;fill:rgb(96.470588%,66.666667%,9.019608%);fill-opacity:1;" d="M 113.410156 82.320312 L 113.410156 84.679688 C 113.410156 84.835938 113.351562 84.980469 113.238281 85.089844 C 113.128906 85.195312 112.984375 85.257812 112.828125 85.261719 L 112.71875 85.261719 L 112.71875 85 L 112.828125 85 C 113.015625 84.996094 113.160156 84.84375 113.160156 84.660156 L 113.160156 82.320312 Z M 113.410156 82.320312 "/>
<path style=" stroke:none;fill-rule:nonzero;fill:#FFFFFF;fill-opacity:1;" d="M 74.089844 77.578125 C 74.089844 76.441406 73.71875 75.75 73 75.519531 L 72.78125 75.449219 L 73 75.371094 C 73.804688 75.078125 74.320312 74.285156 74.261719 73.429688 C 74.261719 72.050781 73.261719 71.191406 71.539062 71.191406 L 68 71.191406 L 68 79.550781 L 69.410156 79.550781 L 69.410156 76 L 70.898438 76 C 72.410156 76 72.679688 76.53125 72.679688 77.578125 L 72.679688 77.730469 C 72.644531 78.332031 72.691406 78.9375 72.820312 79.53125 L 74.179688 79.53125 C 74.101562 79.039062 74.070312 78.539062 74.089844 78.039062 Z M 71.160156 74.898438 L 69.429688 74.898438 L 69.429688 72.320312 L 71.230469 72.320312 C 72.230469 72.320312 72.800781 72.769531 72.800781 73.601562 C 72.800781 74.429688 72.261719 74.898438 71.160156 74.898438 Z M 71.160156 74.898438 "/>
<path style=" stroke:none;fill-rule:nonzero;fill:#FFFFFF;fill-opacity:1;" d="M 78.609375 71.179688 C 77.511719 71.152344 76.457031 71.59375 75.703125 72.394531 C 74.953125 73.195312 74.574219 74.277344 74.671875 75.371094 C 74.671875 77.910156 76.179688 79.550781 78.5 79.550781 C 81.21875 79.550781 82.441406 77.441406 82.441406 75.339844 C 82.441406 72.808594 80.941406 71.179688 78.609375 71.179688 Z M 78.609375 78.441406 C 77.121094 78.441406 76.171875 77.21875 76.171875 75.328125 C 76.171875 73.441406 77.070312 72.328125 78.589844 72.328125 C 80.109375 72.328125 81.03125 73.46875 81.03125 75.328125 C 81.03125 77.191406 80.078125 78.441406 78.570312 78.441406 Z M 78.609375 78.441406 "/>
<path style=" stroke:none;fill-rule:nonzero;fill:#FFFFFF;fill-opacity:1;" d="M 88.578125 71.191406 L 88.578125 76.191406 C 88.578125 77.75 87.949219 78.5 86.648438 78.5 C 85.921875 78.5 84.648438 78.199219 84.648438 76.191406 L 84.648438 71.191406 L 83.269531 71.191406 L 83.269531 76.109375 C 83.269531 78.390625 84.398438 79.550781 86.628906 79.550781 C 88.859375 79.550781 90 78.410156 90 76.058594 L 90 71.191406 Z M 88.578125 71.191406 "/>
<path style=" stroke:none;fill-rule:nonzero;fill:#FFFFFF;fill-opacity:1;" d="M 94.539062 71.179688 L 91.191406 71.179688 L 91.191406 79.550781 L 92.628906 79.550781 L 92.628906 76.25 L 94.480469 76.25 C 95.898438 76.25 97.410156 75.578125 97.410156 73.691406 C 97.410156 72.171875 96.28125 71.179688 94.539062 71.179688 Z M 94.308594 75.128906 L 92.628906 75.128906 L 92.628906 72.308594 L 94.351562 72.308594 C 95.351562 72.308594 95.949219 72.828125 95.949219 73.71875 C 95.949219 74.609375 95.371094 75.128906 94.308594 75.128906 Z M 94.308594 75.128906 "/>
<path style=" stroke:none;fill-rule:nonzero;fill:#FFFFFF;fill-opacity:1;" d="M 99.429688 78.289062 L 99.429688 75.710938 L 103.5 75.710938 L 103.5 74.558594 L 99.429688 74.558594 L 99.429688 72.339844 L 103.691406 72.339844 L 103.691406 71.191406 L 98.058594 71.191406 L 98.058594 79.429688 L 103.738281 79.429688 L 103.898438 78.289062 Z M 99.429688 78.289062 "/>
<path style=" stroke:none;fill-rule:nonzero;fill:#FFFFFF;fill-opacity:1;" d="M 106 69.339844 L 106 70.78125 L 111.128906 70.78125 L 111.011719 70.929688 C 109.160156 73.476562 107.882812 76.394531 107.269531 79.480469 L 109 79.480469 C 109.605469 76.316406 110.882812 73.324219 112.75 70.699219 L 112.75 69.339844 Z M 106 69.339844 "/>
<path style=" stroke:none;fill-rule:nonzero;fill:#FFFFFF;fill-opacity:1;" d="M 113.570312 79.351562 C 113.570312 79.464844 113.476562 79.558594 113.359375 79.558594 C 113.242188 79.558594 113.148438 79.464844 113.148438 79.351562 C 113.148438 79.234375 113.242188 79.140625 113.359375 79.140625 C 113.476562 79.140625 113.570312 79.234375 113.570312 79.351562 Z M 113.570312 79.351562 "/>
</g>
</svg>
