<svg id="Layer_1" data-name="Layer 1" xmlns="http://www.w3.org/2000/svg" viewBox="0 17 200 122">
    <defs>
        <style>.cls-1{fill:#000000;}</style>
    </defs>
    <title>0101</title>
    <path class="cls-1" d="M142.49,79.55s0,0,0,0A59.27,59.27,0,0,1,26.59,95.38,56.19,56.19,0,0,1,25,88.6a59.45,59.45,0,0,1,1.57-27.71h0a57.92,57.92,0,0,1,4.24-10.36A59.54,59.54,0,0,1,122.1,31.68c2,1.56,3.84,3.1,5.78,4.81s3.86,3.68,5.68,5.59a81.27,81.27,0,0,0-15.23-9c-3.79-1.8-15.3-5.11-24-5.11a58.72,58.72,0,0,0-37,13.11c-.68.49-1.32,1-2,1.57-1.51,1.34-2.89,2.79-4.25,4.22l-.28.29a44.74,44.74,0,0,0-.48,61.09,45.44,45.44,0,0,0,6.79,6A44.85,44.85,0,0,0,73,121.52c14.44,4.23,28.16,2.08,40.35-8.12a25.46,25.46,0,0,0,4.88-5.31,53.91,53.91,0,0,1-6.22,4.73c-1.08.68-2.16,1.32-3.27,1.91a46.6,46.6,0,0,1-50.68-4.06c-.89-.67-.86-1.15-.3-2A31.57,31.57,0,0,1,75.58,96c4.53-1.41,9.24-1.65,13.93-1.88,7-.34,14.11-.45,21.14-1l.78-.07a44.65,44.65,0,0,0,9.8-1.32,57.37,57.37,0,0,0,6.65-1.7c6-1.94,11.15-4.93,14.6-10.43Z"/><path class="cls-1" d="M77.61,48.2V90.28c1.12-.46,2.29-.89,3.51-1.27,4.35-1.36,8.74-1.57,13-1.78,1.79-.09,3.62-.16,5.39-.23V37Zm18,20.63L81.71,75.89V72.53l13.91-7.07Zm0-10.39L81.71,65.5V62.13l13.91-7.06Zm0-9.81L81.71,55.7V52.33l13.91-7.06Z"/><path class="cls-1" d="M102.28,37V86.9c3.53-.14,7.12-.31,10.63-.61l.37,0,.33,0h.15A38,38,0,0,0,122,85.11l.06,0h.06c.69-.13,1.37-.27,2-.43V48.2ZM120.87,76.6,107,69.53V66.16l13.92,7.07Zm0-10.4L107,59.14V55.77l13.92,7.06Zm0-9.8L107,49.34V46L120.87,53Z"/>
</svg>