<?xml version="1.0" encoding="utf-8"?>
<!-- Generator: Adobe Illustrator 24.0.1, SVG Export Plug-In . SVG Version: 6.00 Build 0)  -->
<svg version="1.1" id="Layer_1" xmlns="http://www.w3.org/2000/svg" xmlns:xlink="http://www.w3.org/1999/xlink" x="0px" y="0px"
	 viewBox="0 0 64 80" style="enable-background:new 0 0 64 80;fill:white;" xml:space="preserve">
<g>
	<path d="M10,62h24c0.3,0,0.5-0.1,0.7-0.3l2-2c0.2-0.2,0.3-0.4,0.3-0.7v-7c0-0.3-0.1-0.5-0.3-0.7L35,49.6V30.3l1.8-2.7
		c0.1-0.2,0.2-0.4,0.2-0.6v-6c0-0.3-0.1-0.5-0.3-0.7l-4-4C32.5,16.1,32.3,16,32,16h-4v-2h1c0.6,0,1-0.4,1-1c0,0,0-0.1,0-0.1l-1-10
		C28.9,2.4,28.5,2,28,2H16c-0.5,0-0.9,0.4-1,0.9l-1,10c-0.1,0.5,0.3,1,0.9,1.1c0,0,0.1,0,0.1,0h1v2h-4c-0.3,0-0.5,0.1-0.7,0.3l-4,4
		C7.1,20.5,7,20.7,7,21v6c0,0.2,0.1,0.4,0.2,0.6L9,30.3v19.3l-1.7,1.7C7.1,51.5,7,51.7,7,52v7c0,0.3,0.1,0.5,0.3,0.7l2,2
		C9.5,61.9,9.7,62,10,62z M16.9,4H19v5h2V4h2v5h2V4h2.1l0.8,8H16.1L16.9,4z M26,14v2h-8v-2H26z M9,21.4l3.4-3.4h19.2l3.4,3.4v5.3
		L33.5,29H10.5L9,26.7V21.4z M33,31v18H11V31H33z M9,52.4l1.4-1.4h23.2l1.4,1.4v6.2L33.6,60H10.4L9,58.6V52.4z"/>
	<path d="M12,27h20c0.6,0,1-0.4,1-1v-3c0-0.3-0.1-0.5-0.3-0.7l-2-2C30.5,20.1,30.3,20,30,20H14c-0.3,0-0.5,0.1-0.7,0.3l-2,2
		C11.1,22.5,11,22.7,11,23v3C11,26.6,11.4,27,12,27z M13,23.4l1.4-1.4h15.2l1.4,1.4V25H13V23.4z"/>
	<path d="M12,58h6v-2h-5v-2h-2v3C11,57.6,11.4,58,12,58z"/>
	<rect x="20" y="56" width="2" height="2"/>
	<path d="M18,47h8c2.8,0,5-2.2,5-5c0-0.6-0.4-1-1-1h-4c-1.6,0-3.1,0.8-4,2c-0.9-1.3-2.4-2-4-2h-4c-0.6,0-1,0.4-1,1
		C13,44.8,15.2,47,18,47z M26,43h2.8c-0.4,1.2-1.6,2-2.8,2h-2.8C23.6,43.8,24.7,43,26,43z M18,43c1.3,0,2.4,0.8,2.8,2H18
		c-1.3,0-2.4-0.8-2.8-2H18z"/>
	<rect x="18" y="33" width="8" height="2"/>
	<rect x="14" y="37" width="16" height="2"/>
	<rect x="13" y="33" width="3" height="2"/>
	<rect x="28" y="33" width="3" height="2"/>
	<path d="M55,56.8l2-13.7c0.1-0.5-0.3-1.1-0.8-1.1c0,0-0.1,0-0.1,0H40c-0.6,0-1,0.4-1,1c0,0,0,0.1,0,0.1l2,13.7l-1.9,3.7
		c-0.2,0.5,0,1.1,0.4,1.3C39.7,62,39.8,62,40,62h16c0.6,0,1-0.4,1-1c0-0.2,0-0.3-0.1-0.5L55,56.8z M41.6,60l1.3-2.6
		c0.1-0.2,0.1-0.4,0.1-0.6l-1.1-7.7c0.9,0.6,2,0.9,3.1,0.9c1.3,0,2.5-0.4,3.6-1.2c1.4-1.1,3.5-1.1,4.9,0c0.2,0.1,0.4,0.3,0.7,0.4
		L53,56.9c0,0.2,0,0.4,0.1,0.6l1.3,2.6H41.6z M54.4,47.1c-1-0.7-2.2-1.1-3.4-1.1c-1.3,0-2.5,0.4-3.6,1.2c-1.4,1.1-3.5,1.1-4.9,0
		c-0.3-0.2-0.7-0.4-1-0.6L41.2,44h13.7L54.4,47.1z"/>
	<rect x="50" y="50" width="2" height="2"/>
	<rect x="47" y="54" width="2" height="2"/>
	<path d="M41,37c0,1.7,1.3,3,3,3s3-1.3,3-3s-1.3-3-3-3S41,35.3,41,37z M45,37c0,0.6-0.4,1-1,1s-1-0.4-1-1s0.4-1,1-1S45,36.4,45,37z"
		/>
	<path d="M48,31c0,1.7,1.3,3,3,3s3-1.3,3-3c0-1.7-1.3-3-3-3S48,29.3,48,31z M51,30c0.6,0,1,0.4,1,1s-0.4,1-1,1s-1-0.4-1-1
		S50.4,30,51,30z"/>
</g>
</svg>
