<?xml version="1.0" encoding="utf-8"?>
<!-- Generator: Adobe Illustrator 24.0.1, SVG Export Plug-In . SVG Version: 6.00 Build 0)  -->
<svg version="1.1" xmlns="http://www.w3.org/2000/svg" xmlns:xlink="http://www.w3.org/1999/xlink" x="0px" y="0px"
	 viewBox="0 0 100 125" style="enable-background:new 0 0 100 125;fill:white;" xml:space="preserve">
<g id="Layer_2">
</g>
<g id="Layer_1">
	<g>
		<path d="M37.1,77.7C36.6,77.3,36,77,35.4,77l-4.2-0.3c-4.3-0.3-8.1-2.5-10.6-5.7l-10,21.3c-0.9,2,0.8,4.3,3,3.9l9-1.7
			c1.1-0.2,2.3,0.3,2.9,1.4l4.4,8c1.1,2,3.9,1.9,4.8-0.2L44.4,83c-1.5-0.6-2.8-1.4-4.1-2.5L37.1,77.7z"/>
		<path d="M89.4,92.3L79.4,71c-2.5,3.2-6.3,5.3-10.6,5.7L64.6,77c-0.7,0.1-1.2,0.3-1.7,0.7l-3.2,2.7c-1.2,1-2.6,1.9-4.1,2.5
			l9.7,20.7c0.9,2,3.8,2.1,4.8,0.2l4.4-8c0.6-1,1.7-1.6,2.9-1.4l9,1.7C88.6,96.5,90.4,94.3,89.4,92.3z"/>
		<path d="M59,73.2c1.4-1.2,3.2-2,5.1-2.1l4.2-0.3c4.4-0.3,7.9-3.8,8.2-8.2l0.3-4.2c0.1-1.9,0.9-3.7,2.1-5.1l2.8-3.2
			c2.9-3.4,2.9-8.3,0-11.6l-2.8-3.2c-1.2-1.4-2-3.2-2.1-5.1L76.5,26c-0.3-4.4-3.8-7.9-8.2-8.2l-4.2-0.3c-1.9-0.1-3.7-0.9-5.1-2.1
			l-3.2-2.8c-3.4-2.9-8.3-2.9-11.6,0L41,15.1c-1.4,1.2-3.2,2-5.1,2.1l-4.2,0.3c-4.4,0.3-7.9,3.8-8.2,8.2l-0.3,4.2
			c-0.1,1.9-0.9,3.7-2.1,5.1l-2.8,3.2c-2.9,3.4-2.9,8.3,0,11.6l2.8,3.2c1.2,1.4,2,3.2,2.1,5.1l0.3,4.2c0.3,4.4,3.8,7.9,8.2,8.2
			l4.2,0.3c1.9,0.1,3.7,0.9,5.1,2.1l3.2,2.8c3.4,2.9,8.3,2.9,11.6,0L59,73.2z M31.2,44.2c0-10.4,8.4-18.8,18.8-18.8
			s18.8,8.4,18.8,18.8S60.4,63,50,63S31.2,54.5,31.2,44.2z"/>
		<path d="M60.6,39.3l-5.2-1c-0.5-0.1-1-0.4-1.2-0.9l-2.6-4.7c-0.7-1.2-2.5-1.2-3.1,0l-2.6,4.7c-0.3,0.5-0.7,0.8-1.2,0.9l-5.2,1
			c-1.4,0.3-1.9,2-1,3l3.6,3.9c0.4,0.4,0.5,0.9,0.5,1.4L42,52.9c-0.2,1.4,1.3,2.4,2.5,1.8l4.8-2.3c0.5-0.2,1-0.2,1.5,0l4.8,2.3
			c1.3,0.6,2.7-0.4,2.5-1.8l-0.6-5.3c-0.1-0.5,0.1-1.1,0.5-1.4l3.6-3.9C62.5,41.2,62,39.6,60.6,39.3z"/>
	</g>
</g>
</svg>
