<?xml version="1.0" encoding="utf-8"?>
<!-- Generator: Adobe Illustrator 24.0.1, SVG Export Plug-In . SVG Version: 6.00 Build 0)  -->
<svg version="1.1" id="Layer_1" xmlns="http://www.w3.org/2000/svg" xmlns:xlink="http://www.w3.org/1999/xlink" x="0px" y="0px"
	 viewBox="0 0 85.3 106.7" style="enable-background:new 0 0 85.3 106.7;fill:white;" xml:space="preserve">
<g>
	<path d="M42.6,91.4c10.7,0,20.7-4.2,28.3-11.7c7.5-7.5,11.7-17.6,11.7-28.3s-4.2-20.7-11.7-28.3S53.3,11.5,42.6,11.5
		s-20.7,4.2-28.3,11.7c-15.6,15.6-15.6,40.9,0,56.5C21.9,87.3,32,91.4,42.6,91.4z M68.3,25.9c6.8,6.8,10.6,15.9,10.6,25.6
		c0,9-3.3,17.6-9.3,24.2L49.8,55.9l0-0.7l-5.5-6.5c3.3,1.9,8.5,4.9,10.6,5.8c3.2,1.4,8.7-1.6,10.5-2.7s-2.4-2.7-2.4-2.7l-17.4-1.7
		l6.2-1l0,1l0.8,0l-0.1-1.9l-7.9,1.3l7.6-5.3L50.6,37l4.6-7.2l6.6-3.7l-0.4-0.7l-6.8,3.8L49.7,37l1.7,4.3l-6.5,4.6
		c0.2-0.6,0.3-1.2,0.3-1.9c0-1.3-0.4-2.5-1.1-3.2c1.5-5.2,5-8.9,5.1-8.9l-0.6-0.5c-0.2,0.2-3.6,3.7-5.2,8.9
		c-0.1-0.1-0.3-0.1-0.4-0.2v-12h-0.8v12c-0.2,0-0.3,0.1-0.4,0.2c-1.6-5.2-5-8.8-5.2-8.9L36.1,32c0,0,3.5,3.7,5.1,8.9
		c-0.6,0.7-1.1,1.9-1.1,3.2c0,0.7,0.1,1.3,0.3,1.9l-2.3-1.6l-3.9-3.9l1.4-3.5l-4.9-7.7L24,25.4l-0.4,0.7l6.6,3.7l4.6,7.2l-1.1,2.8
		L18.4,24.6c6.7-6,15.2-9.3,24.3-9.3C52.3,15.3,61.4,19,68.3,25.9z M44.1,49.7l3,3.5l-2.8-2.8C44.2,50.2,44.2,50,44.1,49.7z
		 M15.7,27.2l18.7,18.7l-1.9-0.3l-0.1,1.9l0.8,0l0-1l2.1,0.3l1,1l-14.2,1.4c0,0-4.2,1.6-2.4,2.7c1.9,1.1,7.4,4.1,10.5,2.7
		c1.7-0.7,5.2-2.7,8.3-4.5l0.7,0.7l-3.8,4.5l0.4,6.4l-5,8.8l-6.5,6.5l0.5,0.6l6.6-6.5l0,0l5.1-8.9l0.1-0.1l-0.4-6.4l3.6-4.2l1,1
		c-0.1,1.4-0.2,3.1-0.2,4.8c0,5.8,0.9,10.6,2.1,10.6s2.1-4.7,2.1-10.6c0-0.3,0-0.6,0-0.9l4,4l-0.1,1.7l5.2,9l6.6,6.5l0.5-0.6
		l-6.5-6.5l-5-8.8l0-0.8l17.4,17.4c-6.7,6-15.2,9.3-24.3,9.3c-9.7,0-18.8-3.8-25.6-10.6C3.4,63.4,2.9,41.4,15.7,27.2z"/>
	<polygon points="22.2,58.2 27.8,57.1 33,55.8 33,54.5 32.2,54.5 32.2,55.2 27.6,56.4 21.8,57.5 18.6,60 19,60.6 	"/>
	<polygon points="57.7,56.4 53.1,55.2 53,54.5 52.3,54.5 52.3,55.8 57.5,57.1 63.1,58.2 66.3,60.6 66.7,60 63.5,57.5 	"/>
</g>
</svg>
