<?xml version="1.0" encoding="utf-8"?>
<!-- Generator: Adobe Illustrator 24.0.1, SVG Export Plug-In . SVG Version: 6.00 Build 0)  -->
<svg version="1.1" id="Layer_1" xmlns="http://www.w3.org/2000/svg" xmlns:xlink="http://www.w3.org/1999/xlink" x="0px" y="0px"
	 viewBox="0 0 100 125" style="enable-background:new 0 0 100 125;fill:white;" xml:space="preserve">
<path d="M84.4,66.5c-1.4-0.1-2.9,0.3-4.1,1.1c-1.2,0.9-2.3,1.8-3.3,2.9c-0.4,0.4-0.9,0.8-1.5,1.1c-0.5,0.2-1,0.4-1.5,0.4
	c-0.6,0-1.1,0-1.7-0.2c-0.5-0.2-1-0.4-1.4-0.8c-0.6-0.5-1.1-1-1.6-1.6c-0.7-0.8-1.5-1.6-2.3-2.3c-1.1-0.9-2.3-1.5-3.7-1.7
	c-1.3-0.3-2.7-0.3-4.1,0.1c-1.4,0.3-2.7,1-3.7,1.9c-0.8,0.7-1.6,1.5-2.3,2.4c-1.3,1.4-2,1.7-3.3,1.8s-2-0.4-3.3-1.8
	c-0.7-0.8-1.5-1.6-2.3-2.4c-1.1-0.9-2.3-1.6-3.7-1.9c-1.3-0.3-2.7-0.3-4.1-0.1c-1.3,0.3-2.6,0.9-3.7,1.7c-0.8,0.7-1.6,1.5-2.3,2.3
	c-0.5,0.6-1,1.1-1.6,1.6c-0.4,0.4-0.9,0.6-1.4,0.8C27,72,26.5,72.1,25.9,72c-0.5-0.1-1-0.2-1.4-0.4c-0.5-0.3-1-0.7-1.5-1.1
	c-1-1.1-2.1-2-3.3-2.9c-1.2-0.8-2.6-1.2-4.1-1.1c-0.4,0-0.6,0.7-0.6,1.4s0.2,1.2,0.4,1.3c0.9,0.2,1.7,0.5,2.3,1.1
	c0.9,0.9,1.7,1.9,2.5,2.9c0.6,0.7,1.3,1.3,2,1.9c0.9,0.6,1.9,1,3,1.3c1.1,0.2,2.2,0.2,3.3,0c1.2-0.2,2.3-0.7,3.3-1.4
	c0.9-0.6,1.7-1.3,2.4-2.1c0.5-0.6,1.1-1.1,1.8-1.6c0.4-0.3,1-0.6,1.5-0.7c0.6-0.1,1.2-0.1,1.8,0.1c0.6,0.2,1.1,0.5,1.5,0.9
	c0.5,0.5,1.1,1.2,1.9,2c0.9,1,1.9,1.8,3,2.5c2.7,1.4,5.8,1.4,8.5,0c1.1-0.7,2.1-1.5,3-2.5c0.6-0.7,1.2-1.4,1.9-2
	c0.4-0.4,0.9-0.7,1.5-0.9c0.6-0.2,1.2-0.2,1.8-0.1c0.6,0.1,1.1,0.3,1.5,0.7c0.6,0.5,1.2,1,1.7,1.6c0.7,0.8,1.5,1.5,2.4,2.2
	c1,0.7,2.1,1.2,3.3,1.4c1.1,0.2,2.2,0.2,3.3,0c1.1-0.2,2.1-0.6,3-1.3c0.7-0.5,1.4-1.2,2-1.9c0.8-1,1.6-2,2.5-2.9
	c0.6-0.6,1.4-1,2.3-1.1c0.2,0,0.4-0.7,0.4-1.5C84.8,67,84.7,66.5,84.4,66.5z"/>
<path d="M84.4,81.2c-1.4,0-2.9,0.3-4.1,1.1c-1.2,0.9-2.3,1.8-3.3,2.9c-0.4,0.4-0.9,0.8-1.4,1.1c-0.5,0.2-1,0.4-1.5,0.4
	c-0.6,0.1-1.2,0-1.7-0.1c-0.5-0.1-1-0.4-1.4-0.8c-0.6-0.5-1.1-1-1.6-1.6c-0.7-0.8-1.5-1.6-2.3-2.3c-1.1-0.9-2.3-1.5-3.7-1.7
	c-1.3-0.3-2.7-0.3-4.1,0.1c-1.4,0.3-2.7,1-3.7,1.9c-0.8,0.7-1.6,1.5-2.4,2.4c-1.3,1.4-2,1.7-3.3,1.8s-2-0.4-3.3-1.8
	c-0.7-0.8-1.5-1.6-2.3-2.4c-1.1-0.9-2.3-1.6-3.7-1.9c-1.3-0.3-2.7-0.3-4.1-0.1c-1.3,0.3-2.6,0.9-3.7,1.7c-0.8,0.7-1.6,1.5-2.3,2.3
	c-0.5,0.6-1,1.1-1.6,1.6c-0.4,0.4-0.9,0.6-1.4,0.8c-0.5,0.2-1.1,0.2-1.7,0.2c-0.5-0.1-1-0.2-1.5-0.4c-0.5-0.3-1-0.7-1.4-1.1
	c-1-1.1-2.2-2-3.4-2.9c-1.2-0.8-2.6-1.2-4.1-1.1c-0.4,0-0.6,0.6-0.6,1.4s0.2,1.2,0.4,1.3c0.9,0.2,1.7,0.5,2.3,1.1
	c0.9,0.9,1.7,1.9,2.5,2.9c0.6,0.7,1.3,1.3,2,1.9c0.9,0.6,1.9,1,3,1.3c1.1,0.2,2.2,0.2,3.3,0c1.2-0.2,2.3-0.7,3.3-1.4
	c0.9-0.6,1.7-1.3,2.4-2.1c0.5-0.6,1.1-1.1,1.8-1.6c0.4-0.4,1-0.6,1.5-0.7c0.6-0.1,1.2-0.1,1.8,0.1c0.6,0.2,1.1,0.5,1.5,0.9
	c0.5,0.5,1.1,1.2,1.9,2c0.9,1,1.9,1.8,3,2.5c2.7,1.4,5.8,1.4,8.5,0c1.1-0.7,2.1-1.5,3-2.5c0.8-0.8,1.3-1.5,1.9-2
	c0.4-0.4,0.9-0.7,1.5-0.9c0.6-0.2,1.2-0.2,1.8-0.1c0.6,0.1,1.1,0.3,1.5,0.7c0.7,0.5,1.3,1.1,1.8,1.7c0.7,0.8,1.5,1.5,2.4,2.1
	c1,0.7,2.1,1.2,3.3,1.4c1.1,0.2,2.2,0.2,3.3,0c1.1-0.2,2.1-0.6,3-1.3c0.7-0.5,1.4-1.2,2-1.9c0.8-1,1.6-2,2.5-2.9
	c0.6-0.6,1.4-1,2.3-1.1c0.2,0,0.4-0.7,0.4-1.5S84.7,81.2,84.4,81.2z"/>
<path d="M84.4,96c-1.4,0-2.9,0.3-4.1,1.1C79.1,98,78,98.9,77,100c-0.4,0.4-0.9,0.8-1.4,1.1c-0.5,0.2-1,0.4-1.5,0.4
	c-0.6,0-1.1,0-1.7-0.2c-0.5-0.1-1-0.4-1.4-0.7c-0.6-0.5-1.1-1-1.6-1.6c-0.7-0.9-1.5-1.7-2.3-2.4c-1.1-0.9-2.3-1.5-3.7-1.7
	c-1.3-0.3-2.7-0.3-4.1,0.1c-1.4,0.3-2.7,1-3.7,1.9c-0.8,0.7-1.6,1.5-2.3,2.4c-1.3,1.4-2,1.7-3.3,1.8s-2-0.4-3.3-1.8
	c-0.7-0.8-1.5-1.6-2.3-2.4c-1.1-0.9-2.3-1.6-3.7-1.9c-1.3-0.3-2.7-0.3-4.1-0.1c-1.3,0.3-2.6,0.8-3.7,1.7c-0.8,0.7-1.6,1.5-2.3,2.3
	c-0.5,0.6-1,1.2-1.6,1.7c-0.4,0.4-0.9,0.6-1.4,0.8c-0.5,0.1-1.1,0.2-1.7,0.2c-0.5,0-1-0.2-1.5-0.4c-0.5-0.3-1-0.7-1.4-1.1
	c-1-1.1-2.2-2-3.4-2.9C18.4,96.3,17,96,15.6,96c-0.4,0-0.6,0.6-0.6,1.4s0.2,1.2,0.4,1.3c0.9,0.2,1.7,0.6,2.3,1.2
	c0.9,0.9,1.7,1.9,2.5,2.9c0.6,0.7,1.3,1.3,2,1.9c0.9,0.6,1.9,1,3,1.3c1.1,0.2,2.2,0.2,3.3,0c1.2-0.2,2.3-0.7,3.3-1.4
	c0.9-0.6,1.7-1.4,2.4-2.1c0.5-0.6,1.1-1.1,1.8-1.6c0.4-0.4,1-0.6,1.5-0.7c0.6-0.1,1.2-0.1,1.8,0.1c0.6,0.2,1.1,0.5,1.5,0.9
	c0.5,0.5,1.1,1.2,1.9,2c0.9,1,1.9,1.8,3,2.5c2.7,1.4,5.8,1.4,8.5,0c1.1-0.7,2.1-1.5,3-2.5c0.8-0.8,1.3-1.5,1.9-2
	c0.4-0.4,0.9-0.7,1.5-0.9c0.6-0.2,1.2-0.2,1.8-0.1c0.6,0.1,1.1,0.3,1.5,0.7c0.6,0.5,1.2,1,1.7,1.6c0.7,0.8,1.5,1.5,2.4,2.1
	c1,0.7,2.1,1.2,3.3,1.4c1.1,0.2,2.2,0.2,3.3,0c1.1-0.2,2.1-0.6,3-1.3c0.7-0.5,1.4-1.2,2-1.9c0.8-1,1.6-2,2.5-2.9
	c0.6-0.6,1.4-1,2.3-1.1c0.2-0.1,0.4-0.7,0.4-1.5S84.7,96,84.4,96z"/>
<path d="M39.8,15c0.6-1.4,2-2.2,3.5-2.2c1.3,0,2.5,0.6,3.4,1.6c0.1,0.1,0.8-0.1,1.5-0.4c0.7-0.4,1-0.7,0.9-1c-0.4-1-1-1.8-1.8-2.5
	c-1-0.8-2.2-1.4-3.4-1.6c-1.5-0.3-3.1-0.1-4.5,0.5c-2.5,1.1-4.2,3.3-4.7,6c0,0.2-0.1,0.5-0.1,0.7c0,0.2,0,0.5,0,0.6c0,0.3,0,0.7,0,1
	c0,1.4-0.1,2.8-0.1,4.2c-0.1,2.8-0.1,5.8-0.1,8.7c0,11.7,0.5,23.4,1.4,29.2c0,0.2,0.7,0.4,1.4,0.3s1.2-0.2,1.2-0.3
	c0.3-2,0.6-4.7,0.8-7.8c6,1.3,18,1.2,23.1-0.3c0.2,3.3,0.5,6,0.8,8.1c0,0.2,0.7,0.4,1.4,0.3s1.2-0.2,1.2-0.3
	c0.9-5.8,1.4-17.5,1.4-29.2c0-2.9,0-5.9-0.1-8.7c0-1.4-0.1-2.8-0.1-4.2c0-0.3,0-0.7,0-1v-0.3c0-0.1,0-0.2,0-0.3
	c0-0.4,0.1-0.7,0.3-1.1c0.6-1.4,2-2.2,3.5-2.2c1.3,0,2.5,0.6,3.4,1.6c0.1,0.1,0.8-0.1,1.4-0.4c0.7-0.4,1-0.7,0.9-1
	c-0.4-1-1-1.8-1.8-2.5c-1-0.9-2.3-1.4-3.6-1.6c-1.5-0.3-3.1-0.1-4.5,0.5c-1.6,0.7-2.9,1.9-3.8,3.4c-0.5,0.8-0.8,1.7-0.9,2.6
	c-0.1,0.2-0.1,0.5-0.1,0.7c0,0.2,0,0.5,0,0.6v1c0,1.4-0.1,2.8-0.1,4.2c0,0.6,0,1.2,0,1.8c-5.2-1.3-16-1.3-22-0.2c0-0.5,0-1,0-1.6
	c0-1.4-0.1-2.8-0.1-4.2v-1v-0.4c0-0.1,0-0.2,0-0.3C39.6,15.7,39.6,15.3,39.8,15z M39.3,48.2c0.1-2.6,0.2-5.5,0.3-8.4
	c6,1.1,16.9,1,22-0.2c0.1,3.1,0.2,6.2,0.3,9C56.8,47.1,45.3,47,39.3,48.2z M61.6,27.2c0,1.1,0,2.3,0,3.4c0,1.8,0,3.6,0,5.4
	c-5.2-1.3-16-1.3-21.9-0.2c0-1.7,0-3.5,0-5.2c0-1,0-2.1,0-3.1C45.7,28.5,56.4,28.4,61.6,27.2L61.6,27.2z"/>
</svg>
