<?xml version="1.0" encoding="utf-8"?>
<!-- Generator: Adobe Illustrator 24.0.1, SVG Export Plug-In . SVG Version: 6.00 Build 0)  -->
<svg version="1.1" id="Layer_1" xmlns="http://www.w3.org/2000/svg" xmlns:xlink="http://www.w3.org/1999/xlink" x="0px" y="0px"
	 viewBox="0 0 69 86.3" style="enable-background:new 0 0 69 86.3;fill:white;" xml:space="preserve">
<g>
	<g>
		<g>
			<g>
				<path d="M25.4,47.7c-0.2-0.5-0.8-0.7-1.4-0.5L9.6,53.9c-0.5,0.2-0.7,0.8-0.5,1.4l4.2,9.1c0.2,0.4,0.4,0.7,0.6,1
					c0.9-0.4,1.8-0.7,2.9-0.8c0.9-1.5,2.2-2.6,3.8-3.3l-0.5-1c-0.2-0.5,0-1.1,0.5-1.4c0.5-0.2,1.1,0,1.4,0.5l0.6,1.4
					c0.4-0.1,0.8-0.1,1.3-0.1c0.4,0,0.8,0,1.2,0.1c0.9-1.9,2.4-3.4,4.2-4.3L25.4,47.7z"/>
			</g>
		</g>
		<g>
			<path d="M15.8,40.6L10,43.3L4.4,31.2c-0.8-1.6-0.1-3.5,1.5-4.3c0.4-0.2,0.9-0.3,1.4-0.3c1.2,0,2.4,0.7,2.9,1.8L15.8,40.6z"/>
			<rect x="11.7" y="43.5" transform="matrix(0.9058 -0.4236 0.4236 0.9058 -18.1719 10.6672)" width="6.4" height="5.4"/>
		</g>
	</g>
	<g>
		<path d="M67.5,33.2c-1.3-0.4-3.8-2.2-8-1.7c-8,0.8-10.2,8.2-10.3,8.4c-3.1,1.6-5.6,3.5-7.2,4.9c0.1-4.7,0.7-9.7,2.2-14.1
			c2,0.3,5.4-0.1,8.1-1.2c7-3,9.5-11,8.1-17.8c0-0.1-0.1-0.2-0.1-0.3c-0.3-0.5-0.8-0.5-1.4-0.6c-14.5-1.1-21.1,8.8-16.5,18.9
			c-1,2.9-1.6,6.1-2,9.2c-0.7-0.9-1.7-2-3.1-3.1c0-0.1-0.2-1.2-0.2-1.2c0,0,0-0.1,0-0.1c-0.9-6.3-6.2-10.9-12.3-11.3
			c-0.9-0.1-4.8,0.1-5.3,0.7c0,0,0,0,0,0c-0.4,0.5,0,5,2,8.1c2.3,3.7,6.5,6.1,11,6.1c1.3,0,2.1-0.2,3.9-0.4v0h0.1l-0.1,0
			c2.5,2.2,3.4,3.9,3.6,4.5c-0.6,9,0.7,17.5,1.2,20.4c-0.1,0-0.3,0.1-0.4,0.1c-0.8-3.2-3.7-5.6-7.2-5.6c-3.5,0-6.5,2.5-7.2,5.8
			c-0.8-0.3-1.6-0.5-2.5-0.5c-2.6,0-4.9,1.6-5.8,3.9c-3.6-0.2-6.7,2.7-6.7,6.3c0,0.6,0.4,1,1,1h41.8c0.6,0,1-0.5,1-1
			c0-3.6-3-6.5-6.7-6.3c-0.9-2.2-2.9-3.7-5.3-3.9c-0.4-2.1-1.2-8.1-1.3-15c0.9-0.9,3.6-3.5,7.6-5.6c1.6,0.7,3.3,1.7,6.4,1.7
			c4.8,0,9.3-2.8,11.3-7.4c0.8-1.8,0.8-1.7,0.8-2C68.1,33.8,67.8,33.3,67.5,33.2z M51.7,17.8c1.2-0.6,2.1,1.2,0.9,1.8
			c-3.7,1.9-6.1,5.2-7.8,9.1c-0.3,0-0.7,0-0.9-0.1c-0.2-0.6-0.4-1.1-0.6-1.7C45.2,23.1,47.9,19.8,51.7,17.8z M34.1,36.1
			c-1.8-1.3-4.1-2.6-7.1-4c-1.2-0.5-0.4-2.4,0.8-1.9c2.9,1.3,5.1,2.6,7,3.9c0.2,0.9,0.1,0.8,0.3,1.8L34.1,36.1z M52,40.9
			c-0.2-0.1-0.5-0.2-0.9-0.4c0.5-1.1,0.4-1,0.8-1.8c2.1-0.8,4.3-1.4,6.8-1.5c0.6,0,1,0.4,1.1,0.9C59.9,39.9,57.8,38.4,52,40.9z"/>
	</g>
</g>
</svg>
