<?xml version="1.0" encoding="utf-8"?>
<!-- Generator: Adobe Illustrator 24.0.1, SVG Export Plug-In . SVG Version: 6.00 Build 0)  -->
<svg version="1.1" id="Layer_1" xmlns="http://www.w3.org/2000/svg" xmlns:xlink="http://www.w3.org/1999/xlink" x="0px" y="0px"
	 viewBox="0 0 64 80" style="enable-background:new 0 0 64 80;" xml:space="preserve">
<g>
	<path d="M60,54H40v6h20V54z M44,59h-2v-2h2V59z"/>
	<path d="M57,52l0-26.9L40.4,8.5l-0.7,0.7c-1.2,1.2-1.2,3.1,0,4.2l11,10.8c0.2,0.2,0.3,0.4,0.3,0.7h0v16h-2V26c-1.7,0-3,1.3-3,3v7.3
		c0,0.4-0.3,0.8-0.7,0.9C43.3,38,42,39.9,42,42v5c0,2.8,2.2,5,5,5H57z"/>
	<path d="M32,37.9c2.2-1.3,11.2-6.7,12-12.3c0.2-1.9-0.6-3.8-2.1-5l0,0c-2.2-2.1-5.6-2.1-7.7,0L32.7,22c-0.4,0.4-1,0.4-1.4,0
		l-1.5-1.5c-1-1-2.4-1.5-3.8-1.5c-1.4,0-2.8,0.5-3.9,1.5c-1.4,1.2-2.2,3-2,4.8C20.8,31,29.8,36.6,32,37.9z M26,21v2
		c-1.1,0-2,0.9-2,2h-2C22,22.8,23.8,21,26,21z"/>
	<path d="M23.6,8.5L7,25.1L7,52h10c2.8,0,5-2.2,5-5v-5c0-2.1-1.3-4-3.3-4.7c-0.4-0.1-0.7-0.5-0.7-0.9V29c0-1.7-1.3-3-3-3v15h-2V25h0
		c0-0.3,0.1-0.5,0.3-0.7l11-10.8c1.2-1.2,1.2-3.1,0-4.2L23.6,8.5z"/>
	<path d="M4,60h20v-6H4V60z M20,57h2v2h-2V57z"/>
</g>
</svg>
