<?xml version="1.0" encoding="utf-8"?>
<!-- Generator: Adobe Illustrator 24.0.1, SVG Export Plug-In . SVG Version: 6.00 Build 0)  -->
<svg version="1.1" id="Layer_1" xmlns="http://www.w3.org/2000/svg" xmlns:xlink="http://www.w3.org/1999/xlink" x="0px" y="0px"
	 viewBox="0 0 100 125" style="enable-background:new 0 0 100 125;fill:white;" xml:space="preserve">
<g>
	<path d="M91.1,39.1C91,36.5,91,34,91,31.6c0-1.9-1.5-3.4-3.4-3.4c-14.7-0.1-25.9-4.3-35.2-13.3c-1.3-1.3-3.5-1.3-4.8,0
		c-9.3,9-20.5,13.2-35.1,13.2c-1.9,0-3.4,1.5-3.4,3.4c0,2.4,0,4.9-0.1,7.6c-0.5,24.7-1.2,58.4,39.9,72.6c0.4,0.1,0.7,0.2,1.1,0.2
		c0.4,0,0.8-0.1,1.1-0.2C92.2,97.5,91.5,63.8,91.1,39.1z M50,104.8C14.8,92,15.3,64,15.8,39.3c0-1.5,0.1-2.9,0.1-4.3
		c13.7-0.7,24.7-4.8,34.1-13c9.4,8.2,20.4,12.4,34.1,12.9c0,1.4,0,2.8,0.1,4.3C84.7,64,85.2,92,50,104.8z"/>
	<path d="M61.8,51L45.3,67.5l-7.1-7.1c-1.3-1.3-3.5-1.3-4.9,0c-1.3,1.3-1.3,3.5,0,4.9l9.5,9.5c0.7,0.7,1.5,1,2.4,1s1.8-0.3,2.4-1
		l19-19c1.3-1.3,1.3-3.5,0-4.9C65.3,49.6,63.1,49.6,61.8,51z"/>
</g>
</svg>
