<?xml version="1.0" encoding="iso-8859-1"?>
<!-- Generator: Adobe Illustrator 19.0.0, SVG Export Plug-In . SVG Version: 6.00 Build 0)  -->
<svg version="1.1" id="Capa_1" xmlns="http://www.w3.org/2000/svg" xmlns:xlink="http://www.w3.org/1999/xlink" x="0px" y="0px"
	 viewBox="0 0 512.001 512.001" style="enable-background:new 0 0 512.001 512.001;" xml:space="preserve">
<g>
	<g>
		<polygon points="480.8,360.958 480.8,390.945 450.812,390.945 450.812,360.958 420.825,360.958 420.825,390.945 390.837,390.945 
			390.837,360.958 360.85,360.958 360.85,390.945 330.862,390.945 330.862,360.958 300.875,360.958 300.875,390.945 
			270.887,390.945 270.887,360.958 240.9,360.958 240.9,390.945 210.912,390.945 210.912,360.958 180.925,360.958 180.925,451.92 
			511.787,451.92 511.787,360.958 		"/>
	</g>
</g>
<g>
	<g>
		<path d="M300.562,210.333c-7.349-7.351-17.514-9.53-27.019-7.638l-25.992,60.649l60.649-25.992
			C310.092,227.847,307.913,217.682,300.562,210.333z"/>
	</g>
</g>
<g>
	<g>
		<path d="M417.186,51.299L294.664,173.821c9.915,2.612,19.344,7.548,27.103,15.307c7.759,7.759,12.696,17.189,15.308,27.104
			L459.596,93.709L417.186,51.299z"/>
	</g>
</g>
<g>
	<g>
		<path d="M503.217,8.89c-11.711-11.711-30.698-11.711-42.408,0.001l-22.418,21.204L480.8,72.505l22.417-21.206
			C514.929,39.588,514.929,20.601,503.217,8.89z"/>
	</g>
</g>
<g>
	<g>
		<path d="M445.659,150.045L338.886,256.817l-148.444,63.635l63.636-148.444l21.964-21.964H89.963c0,0,0,11.82,0,30.987
			c0,63.585,0,208.102,0,270.887H29.988C13.425,451.919,0,465.344,0,481.906c0,16.562,13.425,29.987,29.988,29.987h420.825v-29.988
			H150.937V330.969h299.875V150.045H445.659z"/>
	</g>
</g>
<g>
	<g>
		<path d="M44.981,91.07C20.139,91.07,0,111.209,0,136.051v294.222c8.856-5.165,19.015-8.341,29.988-8.341h29.987V91.07H44.981z"/>
	</g>
</g>
<g>
</g>
<g>
</g>
<g>
</g>
<g>
</g>
<g>
</g>
<g>
</g>
<g>
</g>
<g>
</g>
<g>
</g>
<g>
</g>
<g>
</g>
<g>
</g>
<g>
</g>
<g>
</g>
<g>
</g>
</svg>
