<svg id="Capa_1" enable-background="new 0 0 512.512 512.512" height="512" viewBox="0 0 512.512 512.512" width="512" xmlns="http://www.w3.org/2000/svg"><g><path d="m386.928 500.604v-327.231c0-3.901-3.162-7.063-7.063-7.063h-83.637c-5.332 0-9.655 4.323-9.655 9.655v68.636 256.003z" fill="#fbe88c"/><path d="m313.663 269.247v-59.566c0-10.342 8.384-18.725 18.725-18.725h54.54v-17.582c0-3.901-3.162-7.063-7.063-7.063h-83.637c-5.332 0-9.655 4.323-9.655 9.655v68.636 256.003h27.09z" fill="#fbe372"/><path d="m487.283 500.604h-100.355v-371.608c0-3.901 3.162-7.063 7.063-7.063h86.228c3.901 0 7.063 3.162 7.063 7.063v371.608z" fill="#e79098"/><path d="m416.15 157.503c0-7.391 5.991-13.382 13.382-13.382h57.751v-15.125c0-3.901-3.162-7.063-7.063-7.063h-86.229c-3.901 0-7.063 3.162-7.063 7.063v371.608h29.222z" fill="#e17983"/><path d="m296.523 500.604v-248.94c0-3.901-3.162-7.063-7.063-7.063h-86.228c-3.901 0-7.063 3.162-7.063 7.063v248.94z" fill="#e79098"/><path d="m223.814 277.538c0-6.104 4.948-11.051 11.051-11.051h61.658v-14.823c0-3.901-3.162-7.063-7.063-7.063h-86.229c-3.901 0-7.063 3.162-7.063 7.063v248.939h27.646z" fill="#e17983"/><circle cx="257.062" cy="108.11" fill="#b3e5ee" r="103.702"/><path d="m299.87 198.767c-57.273 0-103.702-46.429-103.702-103.702 0-38.758 21.265-72.544 52.761-90.342-53.472 4.148-95.57 48.85-95.57 103.386 0 57.273 46.429 103.702 103.702 103.702 18.515 0 35.89-4.848 50.936-13.35-2.683.208-5.39.306-8.127.306z" fill="#86d7e5"/><g><path d="m202.31 174.174c8.427 0 15.259 6.832 15.259 15.259 0 8.427-6.832 15.259-15.259 15.259h-55.204c-1.912 0-3.732.818-5.002 2.248l-15.753 17.744c-2.321 2.614-.465 6.744 3.031 6.744h17.563c9.336 0 15.847 9.259 12.689 18.045l-18.693 52c-.534 1.484-1.941 2.474-3.519 2.474h-18.495c-2.522 0-4.321-2.446-3.569-4.854l9.967-31.905c1.126-3.604-1.567-7.267-5.343-7.267h-15.128c-2.129 0-4.073 1.208-5.017 3.116l-45.997 92.984c-.63 1.275-1.929 2.081-3.351 2.081h-21.234c-2.684 0-4.494-2.745-3.437-5.212l40.746-95.079v-23.824c0-13.583 5.218-26.646 14.577-36.491l27.272-28.688c4.29-4.513 10.243-7.067 16.47-7.067h9.42 15.525l10.313 12.708z" fill="#ede2dd"/><g><path d="m210.319 500.452v-189.44c0-3.901-3.162-7.063-7.063-7.063h-86.228c-3.901 0-7.063 3.162-7.063 7.063v189.44z" fill="#fbe88c"/><path d="m141.669 332.383c0-3.901 3.162-7.063 7.063-7.063h61.587v-14.309c0-3.901-3.162-7.063-7.063-7.063h-86.228c-3.901 0-7.063 3.162-7.063 7.063v189.44h31.705v-168.068z" fill="#fbe372"/><path d="m132.61 500.452h-100.355v-135.286c0-3.901 3.162-7.063 7.063-7.063h86.228c3.901 0 7.063 3.162 7.063 7.063v135.286z" fill="#e79098"/><path d="m56.194 387.192c0-3.901 3.162-7.063 7.063-7.063h69.353v-14.963c0-3.901-3.162-7.063-7.063-7.063h-86.229c-3.901 0-7.063 3.162-7.063 7.063v135.286h23.938v-113.26z" fill="#e17983"/></g><g><path d="m505.012 508.104h-497.512c-4.143 0-7.5-3.357-7.5-7.5s3.357-7.5 7.5-7.5h497.512c4.143 0 7.5 3.357 7.5 7.5s-3.358 7.5-7.5 7.5z" fill="#e17983"/></g></g><circle cx="153.142" cy="161.741" fill="#ede2dd" r="18.838"/></g></svg>