<svg id="Layer_1" data-name="Layer 1" xmlns="http://www.w3.org/2000/svg" viewBox="0 0 841.89 237.41"><defs><style>.cls-1{fill:#3e4a6a;}</style></defs><title>01011</title><path class="cls-1" d="M766.9,106.64a8.73,8.73,0,0,0-4.12-3.67,14.2,14.2,0,0,0-6.27-1.45,8.74,8.74,0,0,0-5.64,1.88,6.17,6.17,0,0,0-2.35,5.09,6.94,6.94,0,0,0,1.74,5,9.27,9.27,0,0,0,4.29,2.51q2.55.7,5.61,1.71t5.61,2.1a9.67,9.67,0,0,1,4.29,3.71,11.32,11.32,0,0,1,1.73,6.35,13.83,13.83,0,0,1-1.36,6.39,10.4,10.4,0,0,1-3.66,4.14,18.24,18.24,0,0,1-10.16,2.9,23.13,23.13,0,0,1-9.74-1.85q-4-1.84-4-4.48a3.12,3.12,0,0,1,1.68-2.64c.37-.22,1-.54,1.78-1a9.5,9.5,0,0,0,4.62,4.09,16,16,0,0,0,7,1.59,10.21,10.21,0,0,0,6.3-2.05,6.61,6.61,0,0,0,2.7-5.58,6.37,6.37,0,0,0-2.39-5.36,16.29,16.29,0,0,0-5.81-2.8q-3.41-.95-6.83-2.1a13.23,13.23,0,0,1-5.8-3.89,10.63,10.63,0,0,1-2.4-7.26q0-6.24,4.09-9.54a16.1,16.1,0,0,1,10.43-3.3,22.57,22.57,0,0,1,8.62,1.62q3.95,1.62,4,4.45C770.76,105.08,769.48,106.2,766.9,106.64Z"/><path class="cls-1" d="M780,139l.13-11.95V113.53A113.51,113.51,0,0,0,779.28,98a64.15,64.15,0,0,1,10.06-.79q18.12,0,18.12,13.43a13,13,0,0,1-3,9,13.85,13.85,0,0,1-8,4.37c0,.05.39.88,1.16,2.49s1.3,2.7,1.6,3.24.75,1.42,1.37,2.65a20.12,20.12,0,0,0,3,4.66,5.64,5.64,0,0,0,4.33,1.94,9.82,9.82,0,0,0,1.84-.19,4.84,4.84,0,0,1,.6,2c0,1.7-1.69,2.54-5,2.54a6.88,6.88,0,0,1-5.15-2.67q-1.29-1.49-2.19-2.64a26.17,26.17,0,0,1-2.23-3.6l-1.87-3.48q-.54-1-1.83-3.84c-.85-1.87-1.35-2.94-1.48-3.2-1.26-.2-1.88-.7-1.88-1.49a7.83,7.83,0,0,1,.33-1.85,16.6,16.6,0,0,0,3.17.37,9.36,9.36,0,0,0,7.11-2.68q2.55-2.67,2.55-7.69T799,103.45c-1.9-1.42-4.8-2.13-8.72-2.13q-2.18,0-5.28.27.27,3.93.27,13.79v13.56q0,9.15,1.29,13.4a8.12,8.12,0,0,1-3.17.53,3.2,3.2,0,0,1-2.63-.87A5,5,0,0,1,780,139Z"/><path class="cls-1" d="M162.65,79.4h0A65.55,65.55,0,0,1,34.46,96.9a62.48,62.48,0,0,1-1.82-7.5,66.23,66.23,0,0,1-1.05-11.74,65,65,0,0,1,2.79-18.91h0a64.56,64.56,0,0,1,4.69-11.46,65.86,65.86,0,0,1,101-20.85c2.19,1.72,4.25,3.44,6.39,5.33s4.27,4.06,6.29,6.18c-4.91-3.91-11.27-7.3-16.84-10-4.2-2-16.93-5.65-26.61-5.65a65,65,0,0,0-40.92,14.5c-.75.55-1.47,1.14-2.16,1.74-1.68,1.48-3.2,3.09-4.7,4.67l-.31.32a49.47,49.47,0,0,0,7,74.22,50,50,0,0,0,17.59,8c16,4.67,31.15,2.3,44.63-9a27.9,27.9,0,0,0,5.4-5.86,58.16,58.16,0,0,1-6.88,5.22c-1.19.76-2.39,1.47-3.61,2.12a51.59,51.59,0,0,1-56.07-4.5c-1-.74-1-1.26-.32-2.19a32.05,32.05,0,0,1,2.26-3A36.41,36.41,0,0,1,88.64,97.58c5-1.57,10.23-1.83,15.42-2.08,7.79-.38,15.6-.5,23.37-1.17l.87-.07a49.82,49.82,0,0,0,10.84-1.46,62.86,62.86,0,0,0,7.35-1.88c6.58-2.14,12.34-5.45,16.16-11.54Z"/><path class="cls-1" d="M90.89,44.71V91.27c1.24-.52,2.53-1,3.88-1.41,4.82-1.51,9.67-1.74,14.38-2,2-.1,4-.18,6-.25V32.37Zm19.93,22.82-15.4,7.82V71.62l15.4-7.81Zm0-11.49-15.4,7.81V60.12l15.4-7.81Zm0-10.84L95.42,53V49.29l15.4-7.82Z"/><path class="cls-1" d="M118.18,32.37V87.52c3.9-.15,7.88-.33,11.76-.67l.4,0,.37,0h.17A41.24,41.24,0,0,0,140,85.54l.06,0h.07c.76-.14,1.51-.3,2.24-.48V44.71Zm20.56,43.76-15.39-7.82V64.59l15.39,7.81Zm0-11.5-15.39-7.81V53.09l15.39,7.81Zm0-10.84L123.35,46V42.25l15.39,7.82Z"/><path class="cls-1" d="M49.13,197.22a10.55,10.55,0,0,1,10.58,10.53h0v7.1h3.61v3.48H49.13a10.18,10.18,0,0,1-7.23-2.93,14.7,14.7,0,0,1-4.58,8.79A18,18,0,0,1,35,226l-3.39-2a11.43,11.43,0,0,0,3.07-2.16,12.42,12.42,0,0,0,3.94-8.56v-5.59a10.62,10.62,0,0,1,10.53-10.53Zm0,3.39a6.82,6.82,0,0,0-5,2.13,6.89,6.89,0,0,0-2.13,5v.05a7,7,0,0,0,2.07,5,6.23,6.23,0,0,0,5,1.92h7.1v-7a7.19,7.19,0,0,0-7.1-7.14Z"/><path class="cls-1" d="M91.36,179.82,73.91,193h28.66a12.1,12.1,0,0,1,8.89,3.66,12.63,12.63,0,0,1-.41,18.18h7.74v3.48H61.45v-3.48h41.12a8.48,8.48,0,0,0,6.37-2.79,9.16,9.16,0,0,0,2.7-6.5,9.13,9.13,0,0,0-9.07-9.16H67.82V193l.45-.28,23.22-16.44Z"/><path class="cls-1" d="M126.76,176.61v33.48a7.94,7.94,0,0,1-2.43,5.82,8.17,8.17,0,0,1-5.82,2.42H117v-3.48h1.55a4.75,4.75,0,0,0,4.76-4.76V176.61Z"/><path class="cls-1" d="M138.64,176.61v37.56a.61.61,0,0,0,.69.68h4.57v3.48h-8.74V176.61Z"/><path class="cls-1" d="M171,214.85v3.48H156.5a10.43,10.43,0,0,1-6.87-2.52l-.32-.27v2.79h-7.24v-3.48h6.55a10.63,10.63,0,0,1-2.65-5.26c-.58-4.74.85-8.35,4.3-10.86a10.4,10.4,0,0,1,6.32-2.06,10.55,10.55,0,0,1,7.6,3.11,10.17,10.17,0,0,1,3.25,7.56v7.51Zm-7-.09v-7.37a6.85,6.85,0,0,0-2.24-5.09,7.6,7.6,0,0,0-10.49,0,6.89,6.89,0,0,0-2.2,5.18,7,7,0,0,0,2.15,5.13,7.4,7.4,0,0,0,5.27,2.15Z"/><path class="cls-1" d="M186,196.85q7,.38,10.12,5.18h-4.63a9.86,9.86,0,0,0-7.46-1.7c-3,.37-5.16,1.55-6.51,3.53a6.56,6.56,0,0,0-.64,7.15c1.32,2.56,4,3.84,8,3.84h11.22v3.48H169.18v-3.48h6.32a9.51,9.51,0,0,1-2.65-6.82,10.76,10.76,0,0,1,2.56-7.05Q179.12,196.54,186,196.85Z"/><path class="cls-1" d="M208.36,176.57v1.6a2.8,2.8,0,0,0-1.83.05,1.21,1.21,0,0,0-.73,1c-.07,1.16,1,1.81,3.15,2v1.65h-5.17v-1.65h.87a3.09,3.09,0,0,1-.23-3.39C205.06,176.78,206.38,176.38,208.36,176.57ZM208,218.33h-3.48V185.45H208Z"/><path class="cls-1" d="M274.22,176.61v37c0,.52,0,.92,0,1.19h3.7v3.48h-4.53a12.46,12.46,0,0,1-24-4.67v-4.12h3.39v4.12a9.13,9.13,0,0,0,9,9.07,8.57,8.57,0,0,0,6.41-2.7,8.7,8.7,0,0,0,2.66-6.37v-37Z"/><path class="cls-1" d="M298.17,199.78a10.17,10.17,0,0,1,3.25,7.56v11H290.48a10.43,10.43,0,0,1-6.87-2.52l-.32-.27v2.79h-7.24v-3.48h6.55a10.63,10.63,0,0,1-2.65-5.26c-.59-4.74.85-8.35,4.3-10.86a10.4,10.4,0,0,1,6.32-2.06A10.56,10.56,0,0,1,298.17,199.78Zm-.18,15v-7.37a6.85,6.85,0,0,0-2.24-5.09,7.6,7.6,0,0,0-10.49,0,6.89,6.89,0,0,0-2.2,5.18,7,7,0,0,0,2.15,5.13,7.4,7.4,0,0,0,5.27,2.15Z"/><path class="cls-1" d="M313.31,176.61v37.56a.6.6,0,0,0,.68.68h4.58v3.48h-8.75V176.61Z"/><path class="cls-1" d="M346.65,179.82,329.2,193h28.67a12.09,12.09,0,0,1,8.88,3.66,12.61,12.61,0,0,1-.41,18.18h7.74v3.48H316.74v-3.48h41.13a8.47,8.47,0,0,0,6.36-2.79,9.17,9.17,0,0,0,2.71-6.5,9.15,9.15,0,0,0-9.07-9.16H323.11V193l.46-.28,23.22-16.44Z"/><path class="cls-1" d="M382.14,196.53V210a8.43,8.43,0,0,1-8.38,8.38h-1.51v-3.48h1.51a4.65,4.65,0,0,0,3.43-1.42,4.7,4.7,0,0,0,1.42-3.48V196.53ZM376.74,221a2.54,2.54,0,0,1,1.87.77,2.51,2.51,0,0,1,.78,1.83,2.66,2.66,0,0,1-2.65,2.66,2.51,2.51,0,0,1-1.84-.78,2.55,2.55,0,0,1-.78-1.88,2.65,2.65,0,0,1,2.62-2.6Z"/><path class="cls-1" d="M441,197.22a10.56,10.56,0,1,1-7.24,18.18,14.7,14.7,0,0,1-4.58,8.79,18,18,0,0,1-2.34,1.84l-3.38-2a11.39,11.39,0,0,0,3.06-2.16,12.38,12.38,0,0,0,3.94-8.56v-5.59A10.64,10.64,0,0,1,441,197.22Zm0,3.39a7.28,7.28,0,0,0-7.1,7.14v.05a7.12,7.12,0,0,0,12.13,5,6.9,6.9,0,0,0,2.06-5.09,7.19,7.19,0,0,0-7.09-7.14Z"/><path class="cls-1" d="M470.55,197.22a10.16,10.16,0,0,1,7.42,3.11,9.92,9.92,0,0,1,3.16,7.2v7.32h6.37v3.48h-6.37a12.36,12.36,0,0,1-2.24,3A12.13,12.13,0,0,1,470,225a14.42,14.42,0,0,1-2-.14v-3.52a9.2,9.2,0,0,0,2,.18,8.87,8.87,0,0,0,6.51-2.66l.27-.27.05-.09.18-.19h-6.46a10.56,10.56,0,1,1,0-21.11Zm0,3.39a7.19,7.19,0,0,0-7.1,7.14,6.94,6.94,0,0,0,2.06,5.09,6.87,6.87,0,0,0,5,2h7.1v-7.1a7.28,7.28,0,0,0-7.1-7.14Z"/><path class="cls-1" d="M503.48,196.72a12.52,12.52,0,0,1,7.1,2.7,10.12,10.12,0,0,1,2.24,2.47,10.36,10.36,0,0,1,1.79,6.69,9.33,9.33,0,0,1-2.7,6.27h6.36v3.48H485.62v-3.48h6.32a9.29,9.29,0,0,1-2.7-6.27,11.11,11.11,0,0,1,1.78-6.69,10.05,10.05,0,0,1,2.25-2.52,11.94,11.94,0,0,1,7.1-2.65A17.94,17.94,0,0,1,503.48,196.72Zm-1.1,3.39h-1a8.76,8.76,0,0,0-6.28,2.33,7.43,7.43,0,0,0-2.47,5,6,6,0,0,0,1.93,5c1.58,1.55,3.86,2.33,6.82,2.33h1q4.44,0,6.82-2.33a6,6,0,0,0,1.93-5,7.44,7.44,0,0,0-2.48-5A8.81,8.81,0,0,0,502.38,200.11ZM498.08,188a2.61,2.61,0,0,1,1.88.77,2.62,2.62,0,0,1,0,3.71,2.58,2.58,0,0,1-1.88.78,2.51,2.51,0,0,1-1.84-.78,2.63,2.63,0,0,1,1.84-4.48Zm7.23,0a2.6,2.6,0,0,1,1.88.77,2.6,2.6,0,0,1,0,3.71,2.57,2.57,0,0,1-1.88.78,2.62,2.62,0,0,1-1.83-4.49A2.53,2.53,0,0,1,505.31,188Z"/><path class="cls-1" d="M526.33,196.53V210a4.74,4.74,0,0,0,1.42,3.48,4.83,4.83,0,0,0,3.48,1.42h1.51v3.48h-1.51a7.82,7.82,0,0,1-6-2.47l-.69-.73-.68.73a7.78,7.78,0,0,1-5.91,2.47h-1.56v-3.48H518a4.65,4.65,0,0,0,3.43-1.42,4.7,4.7,0,0,0,1.42-3.48V196.53Zm-1.92-8.83a2.56,2.56,0,0,1,1.88.77,2.59,2.59,0,0,1,.73,1.88,2.52,2.52,0,0,1-.73,1.83,2.57,2.57,0,0,1-1.88.78,2.66,2.66,0,0,1-2.61-2.61,2.57,2.57,0,0,1,.78-1.88A2.5,2.5,0,0,1,524.41,187.7Z"/><path class="cls-1" d="M540.71,176.61v33.48a7.94,7.94,0,0,1-2.43,5.82,8.13,8.13,0,0,1-5.81,2.42h-1.56v-3.48h1.56a4.67,4.67,0,0,0,3.34-1.37,4.63,4.63,0,0,0,1.42-3.39V176.61Z"/><path class="cls-1" d="M620.67,196.72a15.24,15.24,0,0,1,7,.82,12.35,12.35,0,0,1,3.21,1.88,10.21,10.21,0,0,1,2.24,2.47,10,10,0,0,1,1.81,6.64,9.73,9.73,0,0,1-2.72,6.32h6.36v3.48H590.13a8.19,8.19,0,0,1-8.2-8.19h3.43a4.85,4.85,0,0,0,4.77,4.76l22.12-.05a9.39,9.39,0,0,1-2.7-6.23,10.61,10.61,0,0,1,1.78-6.73,9.86,9.86,0,0,1,2.25-2.52A11.78,11.78,0,0,1,620.67,196.72Zm2,3.39h-1a8.89,8.89,0,0,0-6.12,2.13,7.5,7.5,0,0,0-2.63,5.24,6.16,6.16,0,0,0,2.11,5.27,9.6,9.6,0,0,0,6.64,2.1h1a9.53,9.53,0,0,0,6.62-2.13,6.11,6.11,0,0,0,2.13-5.24,7.48,7.48,0,0,0-2.65-5.24A9,9,0,0,0,622.69,200.11Zm-.32-12.83a2.56,2.56,0,0,1,1.78,4.4,2.4,2.4,0,0,1-1.78.73,2.5,2.5,0,0,1-1.85-.75,2.57,2.57,0,0,1,1.85-4.38Z"/><path class="cls-1" d="M652.5,196.9h1c4.6,0,8,1.71,10.25,5.13H659.1a9.3,9.3,0,0,0-5.63-1.74h-1a8.71,8.71,0,0,0-6.23,2.29,7.31,7.31,0,0,0-2.42,5,6,6,0,0,0,1.88,5c1.58,1.5,3.83,2.24,6.73,2.24h14.93v3.48H636.75v-3.48h6.37a9.7,9.7,0,0,1-2.62-5.31,10.83,10.83,0,0,1,.87-5.91,11,11,0,0,1,4-4.76A13.05,13.05,0,0,1,652.5,196.9Zm0-9.62a2.41,2.41,0,0,1,1.78.74,2.54,2.54,0,0,1,0,3.66,2.4,2.4,0,0,1-1.78.73,2.48,2.48,0,0,1-1.83-.73,2.57,2.57,0,0,1,1.83-4.4Z"/><path class="cls-1" d="M711.63,196.76V210a4.69,4.69,0,0,0,1.37,3.44,4.64,4.64,0,0,0,3.39,1.37H718v3.48h-1.56a8,8,0,0,1-5.82-2.42,9.49,9.49,0,0,1-1.32-1.7l-.87,1a9.87,9.87,0,0,1-7.65,3.16,10.23,10.23,0,0,1-9-4.9,10.13,10.13,0,0,1-9,4.9,10.38,10.38,0,0,1-7.64-3.16,7.19,7.19,0,0,1-.87-.91,7.32,7.32,0,0,1-1.29,1.65,7.93,7.93,0,0,1-5.81,2.42h-1.51v-3.48h1.51a4.56,4.56,0,0,0,3.34-1.37,4.7,4.7,0,0,0,1.47-3.44v-6.82h3.48v5.31a6.91,6.91,0,0,0,2.06,4.22,7.18,7.18,0,0,0,5.26,2.19,7.41,7.41,0,0,0,7.33-7.37v-8h3.44v8a7.32,7.32,0,0,0,7.28,7.37,7.22,7.22,0,0,0,5.27-2.19,7.08,7.08,0,0,0,2.15-5.18V196.72ZM688.32,188a2.6,2.6,0,0,1,1.88.77,2.62,2.62,0,0,1,0,3.71,2.57,2.57,0,0,1-1.88.78,2.47,2.47,0,0,1-1.83-.78,2.6,2.6,0,0,1,0-3.71A2.5,2.5,0,0,1,688.32,188Zm3.43-6.14a2.55,2.55,0,0,1,1.88.78,2.51,2.51,0,0,1,.78,1.83,2.66,2.66,0,0,1-2.66,2.66,2.51,2.51,0,0,1-1.83-.78,2.57,2.57,0,0,1-.78-1.88,2.66,2.66,0,0,1,2.61-2.61Zm3.8,6.14a2.58,2.58,0,0,1,1.88.77,2.6,2.6,0,0,1,0,3.71,2.55,2.55,0,0,1-1.88.78,2.62,2.62,0,0,1-1.83-4.49A2.53,2.53,0,0,1,695.55,188Z"/><path class="cls-1" d="M725.92,176.61v33.48a7.94,7.94,0,0,1-2.43,5.82,8.17,8.17,0,0,1-5.82,2.42h-1.55v-3.48h1.55a4.76,4.76,0,0,0,4.77-4.76V176.61Z"/><path class="cls-1" d="M737.8,218.33h-3.49V176.61h3.49Z"/><path class="cls-1" d="M782.59,176.61v37.56a.61.61,0,0,0,.69.68h4.58v3.48h-8.75V176.61Z"/><path class="cls-1" d="M795.92,196.53V210a4.7,4.7,0,0,0,1.42,3.48,4.83,4.83,0,0,0,3.48,1.42h1.51v3.48h-1.51a7.81,7.81,0,0,1-6-2.47l-.69-.73-.69.73a7.75,7.75,0,0,1-5.9,2.47H786v-3.48h1.56a4.67,4.67,0,0,0,3.43-1.42,4.74,4.74,0,0,0,1.42-3.48V196.53ZM794,187.7a2.58,2.58,0,0,1,2.61,2.65,2.49,2.49,0,0,1-.74,1.83A2.55,2.55,0,0,1,794,193a2.65,2.65,0,0,1-2.61-2.61,2.56,2.56,0,0,1,.77-1.88A2.5,2.5,0,0,1,794,187.7Z"/><path class="cls-1" d="M810.3,176.61v33.48a7.94,7.94,0,0,1-2.43,5.82,8.16,8.16,0,0,1-5.81,2.42H800.5v-3.48h1.56a4.76,4.76,0,0,0,4.76-4.76V176.61Z"/><path class="cls-1" d="M267.84,117.63c0-14.72-4.7-23.67-14-26.67L250.88,90l2.91-1c4.9-1.77,16.26-7.67,16.26-25,0-17.82-13.46-28.87-35.09-28.87H189.49V143h18.13V97.46h19.06c19.42,0,23,6.85,23,20.39v1.88c0,10.21.14,18.47,1.85,23.28h17.57c-1.23-5-1.23-12.51-1.23-19.2ZM230,82.91H207.62V49.64h23.31c13.07,0,20.26,5.84,20.26,16.5C251.19,77.42,244.28,82.91,230,82.91Z"/><path class="cls-1" d="M326.29,35C295.87,35,275.42,56.67,275.42,89c0,32.85,19.4,54.07,49.46,54.07,35.11,0,50.81-27.38,50.81-54.51C375.69,56,356.32,35,326.29,35Zm-.61,93.68c-19.16,0-31.52-15.73-31.52-40.08,0-24.51,11.7-39.14,31.27-39.14,19.74,0,31.52,14.74,31.52,39.42C357,113.75,345.25,128.63,325.68,128.63Z"/><path class="cls-1" d="M455.08,35.09V98.93c0,20.15-8.14,29.95-24.93,29.95-9.46,0-25.34-3.89-25.34-29.95V35.09H386.43V98.54c0,29.51,14.6,44.47,43.42,44.47,29.31,0,43.56-14.77,43.56-45.1V35.09Z"/><path class="cls-1" d="M532,35H488.76V143h18.61V100.45h24c18.27,0,37.8-8.7,37.8-33.13C569.15,47.65,554.57,35,532,35Zm-2.91,50.92H507.37V49.53h22.27c13.12,0,20.65,6.63,20.65,18.21S542.76,85.87,529.11,85.87Z"/><path class="cls-1" d="M595.24,126.75V93.38h52.64V78.59H595.24V49.88h55V35.09H577.52V141.55h73.37l2.15-14.8Z"/><path class="cls-1" d="M679.52,11.18v18.5h66.23l-1.6,2c-19.35,25.05-42.5,72.9-48.26,110.35h23.39c5.52-35.52,24.47-79.85,48.46-113.4V11.18Z"/><circle class="cls-1" cx="775.18" cy="140.44" r="2.65"/></svg>