<svg id="Layer_1" data-name="Layer 1" xmlns="http://www.w3.org/2000/svg" viewBox="0 0 744 158.67"><defs><style>.cls-1{fill:#fff;}</style></defs><title>0101</title><path class="cls-1" d="M688.77,104.18a7.92,7.92,0,0,0-3.73-3.31,12.68,12.68,0,0,0-5.67-1.31,7.85,7.85,0,0,0-5.1,1.7,5.58,5.58,0,0,0-2.12,4.59,6.26,6.26,0,0,0,1.57,4.55,8.43,8.43,0,0,0,3.88,2.27c1.54.43,3.23.94,5.07,1.55s3.53,1.24,5.07,1.89a8.82,8.82,0,0,1,3.88,3.36,10.22,10.22,0,0,1,1.56,5.74A12.58,12.58,0,0,1,692,131a9.42,9.42,0,0,1-3.31,3.74,16.44,16.44,0,0,1-9.19,2.62,20.91,20.91,0,0,1-8.8-1.67Q667,134,667,131.63a2.84,2.84,0,0,1,1.52-2.39c.34-.2.88-.49,1.61-.87a8.55,8.55,0,0,0,4.18,3.7,14.44,14.44,0,0,0,6.29,1.44,9.2,9.2,0,0,0,5.7-1.85,6,6,0,0,0,2.45-5,5.77,5.77,0,0,0-2.16-4.84,14.94,14.94,0,0,0-5.25-2.54q-3.09-.86-6.18-1.89a12,12,0,0,1-5.25-3.52,9.64,9.64,0,0,1-2.16-6.57q0-5.64,3.7-8.62a14.5,14.5,0,0,1,9.42-3,20.5,20.5,0,0,1,7.79,1.46c2.39,1,3.58,2.32,3.58,4S691.1,103.78,688.77,104.18Z"/><path class="cls-1" d="M700.64,133.45l.12-10.8V110.42a103.38,103.38,0,0,0-.8-14.06,59.06,59.06,0,0,1,9.1-.71q16.37,0,16.37,12.14a11.74,11.74,0,0,1-2.74,8.1,12.52,12.52,0,0,1-7.28,4s.35.79,1,2.25,1.18,2.44,1.45,2.93.68,1.29,1.24,2.4a18.29,18.29,0,0,0,2.74,4.21,5.13,5.13,0,0,0,3.91,1.76,8.74,8.74,0,0,0,1.67-.18,4.39,4.39,0,0,1,.54,1.85q0,2.3-4.56,2.29a6.2,6.2,0,0,1-4.66-2.41c-.77-.9-1.44-1.69-2-2.39a23.92,23.92,0,0,1-2-3.25q-1.18-2.21-1.68-3.15c-.33-.62-.88-1.78-1.66-3.47s-1.22-2.66-1.34-2.9c-1.13-.18-1.7-.62-1.7-1.34a7,7,0,0,1,.3-1.67,15.46,15.46,0,0,0,2.86.33,8.47,8.47,0,0,0,6.43-2.42q2.31-2.42,2.31-7c0-3-.85-5.15-2.56-6.43s-4.34-1.92-7.88-1.92q-2,0-4.77.24.24,3.54.24,12.47v12.26q0,8.27,1.16,12.11a7.26,7.26,0,0,1-2.86.48,2.91,2.91,0,0,1-2.38-.79A4.59,4.59,0,0,1,700.64,133.45Z"/><path class="cls-1" d="M142.49,79.55s0,0,0,0A59.27,59.27,0,0,1,26.59,95.38,56.19,56.19,0,0,1,25,88.6a59.45,59.45,0,0,1,1.57-27.71h0a57.92,57.92,0,0,1,4.24-10.36A59.54,59.54,0,0,1,122.1,31.68c2,1.56,3.84,3.1,5.78,4.81s3.86,3.68,5.68,5.59a81.27,81.27,0,0,0-15.23-9c-3.79-1.8-15.3-5.11-24-5.11a58.72,58.72,0,0,0-37,13.11c-.68.49-1.32,1-2,1.57-1.51,1.34-2.89,2.79-4.25,4.22l-.28.29a44.74,44.74,0,0,0-.48,61.09,45.44,45.44,0,0,0,6.79,6A44.85,44.85,0,0,0,73,121.52c14.44,4.23,28.16,2.08,40.35-8.12a25.46,25.46,0,0,0,4.88-5.31,53.91,53.91,0,0,1-6.22,4.73c-1.08.68-2.16,1.32-3.27,1.91a46.6,46.6,0,0,1-50.68-4.06c-.89-.67-.86-1.15-.3-2A31.57,31.57,0,0,1,75.58,96c4.53-1.41,9.24-1.65,13.93-1.88,7-.34,14.11-.45,21.14-1l.78-.07a44.65,44.65,0,0,0,9.8-1.32,57.37,57.37,0,0,0,6.65-1.7c6-1.94,11.15-4.93,14.6-10.43Z"/><path class="cls-1" d="M77.61,48.2V90.28c1.12-.46,2.29-.89,3.51-1.27,4.35-1.36,8.74-1.57,13-1.78,1.79-.09,3.62-.16,5.39-.23V37Zm18,20.63L81.71,75.89V72.53l13.91-7.07Zm0-10.39L81.71,65.5V62.13l13.91-7.06Zm0-9.81L81.71,55.7V52.33l13.91-7.06Z"/><path class="cls-1" d="M102.28,37V86.9c3.53-.14,7.12-.31,10.63-.61l.37,0,.33,0h.15A38,38,0,0,0,122,85.11l.06,0h.06c.69-.13,1.37-.27,2-.43V48.2ZM120.87,76.6,107,69.53V66.16l13.92,7.07Zm0-10.4L107,59.14V55.77l13.92,7.06Zm0-9.8L107,49.34V46L120.87,53Z"/><path class="cls-1" d="M237.58,114.12c0-13.31-4.25-21.4-12.67-24.11l-2.66-.86,2.63-.94c4.43-1.59,14.7-6.93,14.7-22.61,0-16.12-12.17-26.11-31.72-26.11H166.75v97.57h16.39V95.88h17.23c17.56,0,20.77,6.2,20.77,18.44V116c0,9.23.12,16.69,1.67,21h15.88c-1.11-4.5-1.11-11.3-1.11-17.35Zm-34.23-31.4H183.14V52.65h21.07c11.82,0,18.32,5.28,18.32,14.92C222.53,77.77,216.28,82.72,203.35,82.72Z"/><path class="cls-1" d="M290.42,39.37c-27.5,0-46,19.64-46,48.88,0,29.7,17.54,48.89,44.72,48.89,31.74,0,45.94-24.76,45.94-49.29C335.09,58.41,317.57,39.37,290.42,39.37Zm-.55,84.69c-17.31,0-28.49-14.22-28.49-36.23S272,52.44,289.65,52.44c17.84,0,28.5,13.33,28.5,35.64C318.15,110.61,307.57,124.06,289.87,124.06Z"/><path class="cls-1" d="M406.86,39.49V97.21c0,18.22-7.36,27.08-22.54,27.08-8.55,0-22.9-3.52-22.9-27.08V39.49H344.8V96.86c0,26.68,13.2,40.2,39.25,40.2,26.5,0,39.38-13.35,39.38-40.77V39.49Z"/><path class="cls-1" d="M476.42,39.37H437.31v97.69h16.82V98.59h21.68c16.52,0,34.18-7.87,34.18-29.95C510,50.85,496.81,39.37,476.42,39.37Zm-2.63,46H454.13V52.55h20.14c11.86,0,18.67,6,18.67,16.47S486.13,85.41,473.79,85.41Z"/><path class="cls-1" d="M533.58,122.36V92.2h47.58V78.82H533.58V52.87h49.73V39.49H517.56v96.25h66.32l2-13.38Z"/><path class="cls-1" d="M609.77,17.88V34.61h59.87l-1.44,1.84c-17.49,22.64-38.42,65.91-43.63,99.77h21.14c5-32.12,22.12-72.19,43.82-102.53V17.88Z"/><circle class="cls-1" cx="696.25" cy="134.74" r="2.4"/></svg>